<svg width="7" height="5" viewBox="0 0 7 5" fill="none" xmlns="http://www.w3.org/2000/svg">
<path d="M5.16149 4.98747H4.85775C4.47966 4.98131 4.08417 5.03832 3.72822 4.95049C3.38335 4.86575 3.2473 4.47129 2.99419 4.23554C2.25224 3.53909 1.40272 3.03832 0.406079 2.77021C0.0200775 2.66697 0.0121646 2.6454 0.00741867 2.26327C-0.000491198 1.59917 -0.00207781 0.936616 0.00266812 0.272516C0.00425009 0.0413903 0.1055 -0.0341107 0.342796 0.0136552C3.16662 0.580683 5.25167 2.09995 6.56629 4.60534C6.58843 4.64849 6.60742 4.69471 6.62482 4.74094C6.67544 4.87653 6.60741 4.97669 6.44921 4.97823C6.0205 4.98285 5.59021 4.97823 5.16149 4.97823V4.98593V4.98747Z" fill="#015596"/>
</svg>
