<svg width="50" height="50" viewBox="0 0 50 50" fill="none" xmlns="http://www.w3.org/2000/svg">
<path d="M31.7482 17C32.5784 16.9999 33.3771 17.3176 33.9805 17.8877C34.5839 18.4578 34.9462 19.2372 34.9932 20.066L34.9982 20.25V29.75C34.9983 30.5801 34.6807 31.3788 34.1106 31.9822C33.5404 32.5856 32.761 32.948 31.9322 32.995L31.7482 33H23.2472C22.4851 33.0003 21.7471 32.7327 21.1622 32.244L21.0072 32.105L16.0122 27.355C15.3878 26.7611 15.0247 25.9435 15.003 25.082C14.9812 24.2205 15.3025 23.3856 15.8962 22.761L16.0122 22.645L21.0072 17.895C21.5595 17.3699 22.2787 17.0556 23.0392 17.007L23.2482 17H31.7492H31.7482ZM24.4442 21.397C24.2997 21.2895 24.1214 21.2375 23.9417 21.2507C23.7621 21.2638 23.5932 21.3412 23.4659 21.4686C23.3386 21.596 23.2614 21.765 23.2484 21.9446C23.2355 22.1243 23.2876 22.3026 23.3952 22.447L23.4682 22.53L25.9382 25L23.4682 27.47L23.3952 27.554C23.2877 27.6985 23.2358 27.8769 23.2489 28.0565C23.2621 28.2361 23.3394 28.405 23.4668 28.5323C23.5943 28.6596 23.7632 28.7368 23.9429 28.7498C24.1225 28.7628 24.3008 28.7107 24.4452 28.603L24.5282 28.53L26.9982 26.061L29.4682 28.531L29.5522 28.603C29.6967 28.7105 29.8751 28.7625 30.0547 28.7493C30.2343 28.7362 30.4032 28.6588 30.5305 28.5314C30.6578 28.404 30.735 28.235 30.748 28.0554C30.761 27.8757 30.7089 27.6974 30.6012 27.553L30.5282 27.47L28.0592 25L30.5292 22.53L30.6012 22.446C30.7087 22.3015 30.7607 22.1231 30.7475 21.9435C30.7344 21.7639 30.657 21.595 30.5296 21.4677C30.4022 21.3404 30.2332 21.2632 30.0536 21.2502C29.8739 21.2372 29.6956 21.2893 29.5512 21.397L29.4682 21.47L26.9982 23.939L24.5282 21.469L24.4442 21.397Z" fill="white"/>
</svg>
