<svg width="16" height="18" viewBox="0 0 16 18" fill="none" xmlns="http://www.w3.org/2000/svg">
<g clip-path="url(#clip0_1517_12287)">
<path d="M14.6168 15.5562V18H9.11025C8.49313 18 7.95501 17.5775 7.80159 16.9732L6.75626 12.8491C6.60341 12.2448 6.06472 11.8223 5.4476 11.8223H0V9.37854C0 7.71966 1.32984 6.37507 2.97053 6.37507H5.44703C6.06415 6.37507 6.60227 6.79761 6.75569 7.40189L7.80101 11.526C7.95386 12.1302 8.49256 12.5528 9.10968 12.5528H11.6457C13.2864 12.5528 14.6162 13.8974 14.6162 15.5562H14.6168ZM9.92258 6.1777C9.30546 6.1777 8.76734 5.75516 8.61392 5.15088L7.56859 1.02682C7.41574 0.422535 6.87705 0 6.25993 0H0.812331V2.44376C0.812331 4.10264 2.14217 5.44723 3.78287 5.44723H6.25936C6.87648 5.44723 7.4146 5.86977 7.56802 6.47405L8.61335 10.5981C8.7662 11.2024 9.30489 11.6249 9.92201 11.6249H12.458C14.0987 11.6249 15.4286 10.2803 15.4286 8.62145V6.1777H9.92201H9.92258Z" fill="white"/>
</g>
<defs>
<clipPath id="clip0_1517_12287">
<rect width="15.4286" height="18" fill="white"/>
</clipPath>
</defs>
</svg>
