<svg width="24" height="24" viewBox="0 0 24 24" fill="none" xmlns="http://www.w3.org/2000/svg">
<path fill-rule="evenodd" clip-rule="evenodd" d="M3.20649 11.6773C3.50259 9.60728 5.57532 9.05228 5.77013 7.16979C4.83506 7.58229 3.72078 7.45479 2.90259 6.77979C1.9987 8.41479 1.94415 10.0198 3.20649 11.6848V11.6773Z" fill="#587DFF"/>
<path fill-rule="evenodd" clip-rule="evenodd" d="M7.20388 5.685C8.26362 5.5275 9.16752 4.785 10.0325 4.0575C11.2325 3.045 12.9 1.7925 14.4896 1.9125C11.6454 1.035 8.57531 1.6575 6.69739 2.8125C7.42206 3.615 7.5857 4.7325 7.20388 5.685Z" fill="#587DFF"/>
<path fill-rule="evenodd" clip-rule="evenodd" d="M20.7935 12.3224C20.4974 14.3924 18.4247 14.9474 18.2299 16.8299C19.1649 16.4174 20.2792 16.5449 21.0974 17.2199C22.0013 15.5849 22.0558 13.9799 20.7935 12.3149V12.3224Z" fill="#587DFF"/>
<path fill-rule="evenodd" clip-rule="evenodd" d="M16.7961 18.3149C15.7363 18.4724 14.8325 19.2149 13.9675 19.9424C12.7675 20.9549 11.1 22.2074 9.51038 22.0874C12.3545 22.9649 15.4247 22.3424 17.3026 21.1874C16.5779 20.3849 16.4143 19.2674 16.7961 18.3149Z" fill="#587DFF"/>
<path fill-rule="evenodd" clip-rule="evenodd" d="M12.3234 3.21008C14.3883 3.51008 14.9493 5.57258 16.8351 5.77508C16.4221 4.83758 16.5467 3.72008 17.2247 2.90258C15.5883 1.99508 13.9831 1.95008 12.3234 3.20258V3.21008Z" fill="#00DC9E"/>
<path fill-rule="evenodd" clip-rule="evenodd" d="M18.3078 7.20727C18.4636 8.26477 19.2039 9.17227 19.9364 10.0348C20.9493 11.2348 22.2039 12.8998 22.0792 14.4898C22.9597 11.6473 22.3286 8.57227 21.1753 6.69727C20.3727 7.41727 19.2506 7.58977 18.3 7.19977L18.3078 7.20727Z" fill="#00DC9E"/>
<path fill-rule="evenodd" clip-rule="evenodd" d="M11.6766 20.7901C9.61169 20.4901 9.05065 18.4276 7.16494 18.2251C7.57793 19.1551 7.45325 20.2801 6.77533 21.0976C8.41169 22.0051 10.0169 22.0501 11.6766 20.7976V20.7901Z" fill="#00DC9E"/>
<path fill-rule="evenodd" clip-rule="evenodd" d="M5.68444 16.7923C5.52859 15.7348 4.78833 14.8273 4.05587 13.9648C3.04288 12.7648 1.78833 11.0998 1.91301 9.50977C1.03249 12.3523 1.66366 15.4273 2.8169 17.3023C3.6195 16.5823 4.74158 16.4098 5.69223 16.7923H5.68444Z" fill="#00DC9E"/>
<path fill-rule="evenodd" clip-rule="evenodd" d="M20.9649 3.0302C21.8455 3.9077 21.8455 5.3327 20.9649 6.2102C20.0844 7.0877 18.6662 7.0877 17.7857 6.2102C16.9052 5.3327 16.9052 3.9077 17.7857 3.0302C18.6585 2.1527 20.0844 2.1527 20.9649 3.0302Z" fill="#00DC9E"/>
<path fill-rule="evenodd" clip-rule="evenodd" d="M6.20649 17.79C7.08701 18.6675 7.08701 20.0925 6.20649 20.97C5.32597 21.8475 3.90779 21.8475 3.02727 20.97C2.14675 20.0925 2.14675 18.6675 3.02727 17.79C3.9 16.9125 5.32597 16.9125 6.20649 17.79Z" fill="#00DC9E"/>
<path fill-rule="evenodd" clip-rule="evenodd" d="M20.9649 20.97C20.0844 21.8475 18.6662 21.8475 17.7857 20.97C16.9052 20.0925 16.9052 18.6675 17.7857 17.79C18.6585 16.9125 20.0844 16.9125 20.9649 17.79C21.8455 18.6675 21.8455 20.0925 20.9649 20.97Z" fill="#587DFF"/>
<path fill-rule="evenodd" clip-rule="evenodd" d="M6.20649 6.2102C5.32597 7.0877 3.90779 7.0877 3.02727 6.2102C2.14675 5.3327 2.14675 3.9077 3.02727 3.0302C3.9 2.1527 5.32597 2.1527 6.20649 3.0302C7.08701 3.9077 7.08701 5.3327 6.20649 6.2102Z" fill="#587DFF"/>
<path fill-rule="evenodd" clip-rule="evenodd" d="M11.0455 11.04L9.4013 9.45C9.26104 9.315 9.26884 9.2475 9.26884 9.12V8.55V8.5275C9.26884 8.5275 9.26884 8.505 9.26884 8.4975C9.26884 8.4975 9.26884 8.4825 9.26884 8.475V8.4525C9.26884 8.4525 9.26884 8.43 9.26884 8.4225C9.26884 8.4225 9.26884 8.4075 9.26884 8.4V8.3775C9.26884 8.3775 9.26884 8.355 9.26884 8.3475V8.325V8.3025C9.26884 8.3025 9.26884 8.2875 9.27663 8.28C9.27663 8.28 9.27663 8.265 9.27663 8.2575C9.27663 8.2575 9.27663 8.235 9.28442 8.2275C9.28442 8.2275 9.28442 8.2125 9.28442 8.205C9.28442 8.205 9.28442 8.19 9.28442 8.1825C9.28442 8.1825 9.28442 8.16 9.29221 8.1525C9.29221 8.1525 9.29221 8.1375 9.30001 8.13C9.30001 8.13 9.30001 8.115 9.30001 8.1075C9.30001 8.1075 9.30001 8.085 9.3078 8.085C9.3078 8.085 9.3078 8.07 9.3078 8.0625C9.3078 8.0625 9.3078 8.0475 9.31559 8.04C9.31559 8.04 9.31559 8.025 9.32338 8.0175V8.0025C9.32338 8.0025 9.32338 7.9875 9.33117 7.98C9.33117 7.98 9.33117 7.965 9.33897 7.9575V7.9425C9.33897 7.9425 9.33897 7.9275 9.34676 7.92C9.34676 7.92 9.34676 7.92 9.35455 7.905C9.35455 7.905 9.35455 7.905 9.36234 7.8975C9.36234 7.8975 9.36234 7.8825 9.37014 7.8825C9.37014 7.8825 9.37014 7.8825 9.37014 7.875C9.37014 7.875 9.37793 7.8675 9.37793 7.86C9.37793 7.86 9.37793 7.86 9.38572 7.8525C9.38572 7.8525 9.38572 7.8525 9.39351 7.845H9.4013L9.4091 7.83C9.4091 7.83 9.4091 7.83 9.41689 7.8225L9.43247 7.8075C9.43247 7.8075 9.43247 7.8075 9.44026 7.8C9.44026 7.8 9.44026 7.8 9.44806 7.8H9.45585L9.46364 7.785C9.46364 7.785 9.47143 7.7775 9.47923 7.77C9.47923 7.77 9.47923 7.7625 9.48702 7.755H9.49481C9.49481 7.755 9.49481 7.74 9.5026 7.74C9.5026 7.74 9.5026 7.74 9.51039 7.74C9.51039 7.74 9.52598 7.7325 9.52598 7.725H9.53377C9.53377 7.725 9.53377 7.7175 9.54156 7.71H9.54936C9.54936 7.71 9.54936 7.7025 9.55715 7.695C9.55715 7.695 9.56494 7.68 9.57273 7.68H9.58052C9.58052 7.68 9.58052 7.6725 9.58832 7.665H9.59611C9.59611 7.665 9.59611 7.6575 9.6039 7.6575C9.6039 7.6575 9.61949 7.65 9.62728 7.6425H9.63507L9.64286 7.635C9.64286 7.635 9.64286 7.635 9.65065 7.635C9.78312 7.575 9.93117 7.5375 10.087 7.5375H12.7364V6.75L14.4273 8.43L12.7364 10.11V9.3225H10.8195V11.0475L11.0455 11.04ZM11.0455 12.9525H9.31559V11.04H10.1026L8.42728 9.345L6.75195 11.04H7.53897V13.6875C7.53897 13.845 7.57793 13.9875 7.63247 14.1225C7.63247 14.1225 7.63247 14.1225 7.63247 14.13V14.145L7.64027 14.1525C7.64027 14.1525 7.64806 14.1675 7.65585 14.175V14.19C7.65585 14.19 7.65585 14.205 7.65585 14.2125L7.66364 14.235C7.66364 14.235 7.66364 14.25 7.66364 14.2575C7.66364 14.2575 7.66364 14.2725 7.67143 14.2725C7.67143 14.2725 7.67923 14.2875 7.68702 14.295C7.68702 14.295 7.68702 14.295 7.68702 14.3025H7.69481V14.3175C7.69481 14.3175 7.7026 14.3325 7.71039 14.34L7.71819 14.355C7.71819 14.355 7.71819 14.355 7.71819 14.3625C7.71819 14.3625 7.71819 14.3625 7.72598 14.37C7.72598 14.37 7.73377 14.3775 7.74156 14.385C7.74156 14.385 7.74156 14.385 7.74936 14.3925L7.75715 14.4075C7.75715 14.4075 7.75715 14.4075 7.76494 14.4075C7.76494 14.4075 7.76494 14.4075 7.77273 14.415C7.77273 14.415 7.78052 14.4225 7.78832 14.43C7.78832 14.43 7.78832 14.43 7.79611 14.43C7.79611 14.43 7.79611 14.43 7.8039 14.4375H7.81169C7.81169 14.4375 7.81169 14.4525 7.81949 14.4525C7.81949 14.4525 7.81949 14.4525 7.82728 14.46C7.82728 14.46 7.83507 14.46 7.83507 14.4675H7.84286C7.84286 14.4675 7.84286 14.4825 7.85065 14.4825H7.85845C7.85845 14.4825 7.86624 14.4975 7.87403 14.4975H7.88182L7.88962 14.5125H7.89741C7.89741 14.5125 7.89741 14.5275 7.9052 14.5275H7.91299C7.91299 14.5275 7.92078 14.5425 7.92858 14.5425C7.92858 14.5425 7.93637 14.55 7.94416 14.5575H7.95195C7.95195 14.5575 7.95975 14.565 7.96754 14.5725C7.96754 14.5725 7.98312 14.58 7.99091 14.5875C7.99091 14.5875 7.99871 14.595 8.0065 14.6025C8.0065 14.6025 8.01429 14.61 8.02208 14.61C8.02208 14.61 8.03767 14.6175 8.03767 14.625C8.03767 14.625 8.04546 14.625 8.05325 14.6325H8.06104C8.06104 14.6325 8.06884 14.64 8.07663 14.6475C8.07663 14.6475 8.09221 14.6475 8.10001 14.655C8.10001 14.655 8.1078 14.655 8.11559 14.6625C8.11559 14.6625 8.13117 14.6625 8.13897 14.67C8.13897 14.67 8.15455 14.67 8.16234 14.67C8.16234 14.67 8.17013 14.67 8.17793 14.67C8.17793 14.67 8.19351 14.67 8.2013 14.67H8.21689C8.21689 14.67 8.22468 14.67 8.23247 14.67C8.23247 14.67 8.24806 14.67 8.25585 14.67C8.25585 14.67 8.27143 14.67 8.27923 14.67C8.27923 14.67 8.29481 14.67 8.3026 14.67H8.33377H8.35715H8.93377C9.05845 14.67 9.12858 14.6775 9.26104 14.5425L10.8507 12.9L11.0455 12.9525ZM12.9623 11.04H14.6922V12.9525H13.8974L15.5727 14.6475L17.2481 12.9525H16.461V10.305C16.461 10.1475 16.4221 10.005 16.3675 9.87C16.3675 9.87 16.3675 9.87 16.3675 9.8625V9.8475C16.3675 9.84 16.3675 9.8325 16.3597 9.825V9.81V9.795C16.3597 9.795 16.3597 9.7725 16.352 9.765V9.75C16.352 9.75 16.352 9.735 16.3442 9.735C16.3442 9.735 16.3364 9.7125 16.3286 9.7125C16.3286 9.7125 16.3286 9.7125 16.3286 9.705C16.3286 9.705 16.3286 9.705 16.3286 9.6975C16.3286 9.6975 16.3286 9.6825 16.3208 9.6825C16.3208 9.6825 16.313 9.6675 16.3052 9.66V9.645C16.3052 9.645 16.3052 9.645 16.2974 9.6375C16.2974 9.6375 16.2974 9.6375 16.2896 9.63C16.2896 9.63 16.2818 9.615 16.274 9.615C16.274 9.615 16.274 9.615 16.274 9.6075H16.2662L16.2584 9.5925C16.2584 9.5925 16.2584 9.5925 16.2507 9.585C16.2507 9.585 16.2507 9.585 16.2429 9.5775C16.2429 9.5775 16.2351 9.5775 16.2351 9.5625C16.2351 9.5625 16.2351 9.5625 16.2273 9.5625C16.2273 9.5625 16.2273 9.5625 16.2195 9.555H16.2117C16.2117 9.555 16.2117 9.54 16.2039 9.54C16.2039 9.54 16.2039 9.54 16.1961 9.5325C16.1961 9.5325 16.1883 9.5325 16.1805 9.525H16.1727C16.1727 9.525 16.1727 9.51 16.1649 9.51H16.1571C16.1571 9.51 16.1494 9.495 16.1416 9.495H16.1338L16.126 9.48H16.1182L16.1104 9.465H16.1026C16.1026 9.465 16.0948 9.45 16.087 9.45C16.087 9.45 16.0792 9.4425 16.0714 9.435H16.0636C16.0636 9.435 16.0558 9.4275 16.0481 9.4275C16.0481 9.4275 16.0403 9.4125 16.0325 9.4125C16.0325 9.4125 16.0247 9.405 16.0169 9.405H16.0091C16.0091 9.405 16.0013 9.3975 15.9935 9.39C15.9935 9.39 15.9779 9.3825 15.9701 9.3825C15.9701 9.3825 15.9623 9.3825 15.9545 9.375H15.9468C15.9468 9.375 15.939 9.3675 15.9312 9.3675C15.9312 9.3675 15.9156 9.3675 15.9156 9.36C15.9156 9.36 15.9078 9.36 15.9 9.36C15.9 9.36 15.8844 9.36 15.8766 9.3525H15.861H15.8533C15.8533 9.3525 15.8455 9.3525 15.8377 9.3525C15.8377 9.3525 15.8221 9.3525 15.8143 9.3525H15.7987H15.7909C15.7909 9.3525 15.7831 9.3525 15.7753 9.3525C15.7753 9.3525 15.7597 9.3525 15.752 9.3525H15.7364C15.7364 9.3525 15.7208 9.3525 15.713 9.3525C15.713 9.3525 15.6974 9.3525 15.6896 9.3525H15.674H15.0974C14.9727 9.3525 14.9026 9.345 14.7701 9.48L13.1805 11.1225L12.9623 11.04ZM11.0455 13.89V14.685H12.9623V12.96L14.6065 14.55C14.7468 14.685 14.7312 14.7525 14.7312 14.88V15.45V15.4725C14.7312 15.4725 14.7312 15.495 14.7312 15.5025C14.7312 15.5025 14.7312 15.5175 14.7312 15.525V15.5475C14.7312 15.5475 14.7312 15.57 14.7312 15.5775C14.7312 15.5775 14.7312 15.5925 14.7312 15.6V15.6225C14.7312 15.6225 14.7312 15.645 14.7312 15.6525C14.7312 15.6525 14.7312 15.6675 14.7312 15.675C14.7312 15.675 14.7312 15.6975 14.7312 15.705C14.7312 15.705 14.7312 15.72 14.7312 15.7275C14.7312 15.7275 14.7312 15.7425 14.7312 15.75C14.7312 15.75 14.7312 15.7725 14.7234 15.78C14.7234 15.78 14.7234 15.795 14.7234 15.8025C14.7234 15.8025 14.7234 15.8175 14.7234 15.825C14.7234 15.825 14.7234 15.8475 14.7156 15.855C14.7156 15.855 14.7156 15.87 14.7156 15.8775C14.7156 15.8775 14.7156 15.8925 14.7078 15.9C14.7078 15.9 14.7078 15.9225 14.7 15.9225C14.7 15.9225 14.7 15.9375 14.6922 15.945C14.6922 15.945 14.6922 15.96 14.6844 15.9675C14.6844 15.9675 14.6844 15.9825 14.6766 15.99V16.005C14.6766 16.005 14.6766 16.02 14.6688 16.0275C14.6688 16.0275 14.661 16.0425 14.661 16.05C14.661 16.05 14.661 16.065 14.6533 16.065C14.6533 16.065 14.6533 16.08 14.6455 16.0875C14.6455 16.0875 14.6455 16.0875 14.6377 16.095C14.6299 16.1025 14.6377 16.095 14.6299 16.1025C14.6299 16.1025 14.6299 16.1175 14.6221 16.1175C14.6221 16.1175 14.6221 16.1175 14.6221 16.125C14.6221 16.125 14.6143 16.1325 14.6143 16.14C14.6143 16.14 14.6143 16.14 14.6065 16.1475C14.6065 16.1475 14.6065 16.1475 14.5987 16.155H14.5909L14.5831 16.17C14.5831 16.17 14.5831 16.17 14.5753 16.1775C14.5753 16.1775 14.5675 16.185 14.5597 16.1925C14.5597 16.1925 14.5597 16.1925 14.552 16.2C14.552 16.2 14.552 16.2 14.5442 16.2075H14.5364L14.5286 16.2225C14.5286 16.2225 14.5208 16.23 14.513 16.2375H14.5052C14.5052 16.2375 14.5052 16.245 14.4974 16.2525H14.4896C14.4896 16.2525 14.4896 16.2675 14.4818 16.2675C14.4818 16.2675 14.4818 16.2675 14.474 16.2675C14.474 16.2675 14.4662 16.275 14.4584 16.2825C14.4584 16.2825 14.4507 16.29 14.4507 16.2975C14.4507 16.2975 14.4429 16.305 14.4429 16.3125H14.4351C14.4351 16.3125 14.4273 16.3275 14.4195 16.3275H14.4117C14.4117 16.3275 14.4117 16.335 14.4039 16.335H14.3961C14.3961 16.335 14.3883 16.3425 14.3883 16.35C14.3883 16.35 14.3727 16.3575 14.3649 16.365H14.3571L14.3494 16.3725H14.3416C14.2091 16.4325 14.061 16.47 13.9052 16.47H11.2558V17.2575L9.56494 15.5775L11.2558 13.8975L11.0455 13.89Z" fill="#00DC9E"/>
</svg>
