<svg width="24" height="24" viewBox="0 0 24 24" fill="none" xmlns="http://www.w3.org/2000/svg">
<path d="M20.925 7.89745L12.12 2.67745C10.8675 1.93495 9.255 2.17495 8.2725 3.26245L2.055 9.85495C1.68 10.3425 1.5 10.92 1.5 11.4825C1.5 12.39 1.9575 13.2825 2.805 13.785C3.7875 14.37 5.04 14.2575 5.9025 13.515L7.965 12.15C8.3175 11.8499 8.82 11.805 9.2175 12.0375L13.8 14.76C14.1975 14.9925 14.4 15.4425 14.31 15.8925L14.1675 18.3375C13.935 19.5075 14.4675 20.7 15.495 21.3074C16.9575 22.1775 18.855 21.5625 19.53 20.0025L22.26 11.5499C22.74 10.17 22.185 8.63995 20.925 7.89745ZM13.095 8.79745C12.96 9.03745 12.705 9.16495 12.45 9.16495C12.3225 9.16495 12.1875 9.13495 12.0675 9.05995L11.07 8.46745L10.485 9.46495C10.3425 9.70495 10.095 9.83245 9.84 9.83245C9.705 9.83245 9.5775 9.80245 9.4575 9.72745C9.0975 9.51745 8.985 9.05995 9.195 8.69995L9.78 7.70995L8.79 7.11745C8.43 6.90745 8.31 6.44245 8.5275 6.08995C8.7375 5.72995 9.195 5.61745 9.555 5.82745L10.545 6.41245L11.1375 5.42245C11.3475 5.06245 11.805 4.94995 12.165 5.15995C12.525 5.36995 12.6375 5.82745 12.4275 6.18745L11.835 7.17745L12.8325 7.76995C13.1925 7.97995 13.305 8.44495 13.095 8.79745ZM14.91 9.87745C15.18 9.41995 15.765 9.26995 16.215 9.53995C16.6725 9.80995 16.8225 10.395 16.5525 10.845C16.2825 11.3025 15.6975 11.4525 15.2475 11.1825C14.79 10.9124 14.64 10.3275 14.91 9.87745ZM17.22 13.4625C16.95 13.9124 16.365 14.0625 15.915 13.7925C15.4575 13.5225 15.315 12.9375 15.5775 12.4874C15.8475 12.0374 16.4325 11.8875 16.89 12.1575C17.34 12.42 17.49 13.005 17.22 13.4625ZM17.5275 9.20995C17.79 8.75245 18.375 8.60245 18.8325 8.87245C19.2825 9.14245 19.4325 9.72745 19.1625 10.1775C18.9 10.635 18.315 10.785 17.8575 10.515C17.4075 10.245 17.2575 9.65995 17.5275 9.20995ZM19.8375 12.795C19.5675 13.245 18.9825 13.395 18.525 13.125C18.075 12.8549 17.925 12.27 18.195 11.82C18.465 11.37 19.05 11.22 19.5 11.4825C19.95 11.7525 20.1 12.3375 19.8375 12.795Z" fill="#587DFF"/>
</svg>
