<svg width="60" height="70" viewBox="0 0 60 70" fill="none" xmlns="http://www.w3.org/2000/svg">
<path d="M56.8432 60.4965V70H35.4287C33.0288 70 30.9361 68.3568 30.3395 66.0068L26.2743 49.9688C25.6799 47.6188 23.585 45.9756 21.1851 45.9756H0V36.4721C0 30.0209 5.17161 24.7919 11.5521 24.7919H21.1829C23.5828 24.7919 25.6755 26.4351 26.2721 28.7851L30.3373 44.8231C30.9317 47.1731 33.0266 48.8163 35.4265 48.8163H45.2889C51.6693 48.8163 56.8409 54.0453 56.8409 60.4965H56.8432ZM38.5878 24.0244C36.1879 24.0244 34.0952 22.3812 33.4986 20.0312L29.4334 3.99318C28.839 1.64319 26.7441 0 24.3442 0H3.15907V9.5035C3.15907 15.9547 8.33067 21.1837 14.7111 21.1837H24.342C26.7419 21.1837 28.8345 22.8269 29.4312 25.1769L33.4963 41.2149C34.0908 43.5649 36.1857 45.208 38.5856 45.208H48.4479C54.8284 45.208 60 39.9791 60 33.5279V24.0244H38.5856H38.5878Z" fill="white"/>
</svg>
