<svg width="32" height="32" viewBox="0 0 32 32" fill="none" xmlns="http://www.w3.org/2000/svg">
<path d="M16 2C8.27 2 2 8.27 2 16C2 23.73 8.27 30 16 30C23.73 30 30 23.73 30 16C30 8.27 23.73 2 16 2ZM23.71 18.71L19.21 23.21C19.01 23.4 18.76 23.5 18.5 23.5C18.24 23.5 17.99 23.4 17.79 23.21C17.4 22.82 17.4 22.18 17.79 21.79L20.59 19H9C8.45 19 8 18.55 8 18C8 17.45 8.45 17 9 17H23C23.4 17 23.77 17.24 23.92 17.62C24.08 17.99 23.99 18.42 23.71 18.71ZM23 15H9C8.6 15 8.23 14.76 8.08 14.38C7.92 14.01 8.01 13.58 8.29 13.29L12.79 8.79C13.18 8.4 13.82 8.4 14.21 8.79C14.6 9.18 14.6 9.82 14.21 10.21L11.41 13H23C23.55 13 24 13.45 24 14C24 14.55 23.55 15 23 15Z" fill="#015596"/>
</svg>
