<svg width="150" height="150" viewBox="0 0 150 150" fill="none" xmlns="http://www.w3.org/2000/svg">
<path d="M110.383 91.4343C126.781 91.4343 140.074 78.0944 140.074 61.6389C140.074 45.1834 126.781 31.8435 110.383 31.8435C93.9848 31.8435 80.6916 45.1834 80.6916 61.6389C80.6916 78.0944 93.9848 91.4343 110.383 91.4343Z" fill="#F7F6F5"/>
<path d="M127.559 80.5144H76.1857V88.0006H127.559V80.5144Z" fill="#F9ECE1"/>
<path d="M128.582 89.0205H75.1761V79.4944H128.582V89.0205ZM77.2089 86.9806H126.55V81.5342H77.2089V86.9806Z" fill="#EAD8C3"/>
<path d="M30.9715 36.515C24.4329 41.9478 21.9191 50.8823 24.3516 59.0417C32.5841 86.7088 67.5874 168.276 109.068 125.622C140.745 93.0528 94.4869 89.3674 74.6612 91.5297C40.5862 95.2558 48.3512 22.0796 30.9715 36.515Z" fill="#F7F6F5"/>
<path d="M55.2759 32.374H104.515C114.265 32.374 122.186 40.3158 122.186 50.1071V80.5212H55.2827V32.374H55.2759Z" fill="#F9ECE1"/>
<path d="M123.196 81.5343H54.2596V31.354H104.515C114.821 31.354 123.202 39.765 123.202 50.107V81.5343H123.196ZM56.2923 79.4944H121.163V50.107C121.163 40.8937 113.696 33.3939 104.508 33.3939H56.2855V79.4944H56.2923Z" fill="#EAD8C3"/>
<path d="M55.2759 32.374C64.3147 32.374 71.646 39.7379 71.646 48.8016V80.5144H38.9058V48.8016C38.9058 39.7311 46.2439 32.374 55.2759 32.374Z" fill="white"/>
<path d="M72.6624 81.5343H37.8827V48.8015C37.8827 39.1802 45.6815 31.354 55.2691 31.354C64.8568 31.354 72.6556 39.1802 72.6556 48.8015V81.5343H72.6624ZM39.9154 79.4944H70.6297V48.8015C70.6297 40.3021 63.7388 33.3939 55.2759 33.3939C46.8131 33.3939 39.9222 40.3089 39.9222 48.8015V79.4944H39.9154Z" fill="#EAD8C3"/>
<path d="M76.1858 80.5144H33.5124V88.0006H76.1858V80.5144Z" fill="white"/>
<path d="M77.2021 89.0205H32.496V79.4944H77.2021V89.0205ZM34.5287 86.9806H75.1694V81.5342H34.5287V86.9806Z" fill="#EAD8C3"/>
<path d="M88.7276 88.5649H76.6058V138.48H88.7276V88.5649Z" fill="white"/>
<path d="M88.7208 88.5649H80.6916V138.48H88.7208V88.5649Z" fill="#F9ECE1"/>
<path d="M89.7439 139.5H75.5895V87.5452H89.7439V139.5ZM77.6222 137.46H87.7112V89.585H77.6222V137.46Z" fill="#EAD8C3"/>
<path d="M73.6787 55.4175H71.646C71.2734 55.4175 70.9684 55.1115 70.9684 54.7376C70.9684 54.3636 71.2734 54.0576 71.646 54.0576H73.6787C74.0514 54.0576 74.3563 54.3636 74.3563 54.7376C74.3563 55.1115 74.0514 55.4175 73.6787 55.4175Z" fill="#EAD8C3"/>
<path d="M115.918 55.4175H111.697C111.325 55.4175 111.02 55.1115 111.02 54.7376C111.02 54.3636 111.325 54.0576 111.697 54.0576H115.918C116.291 54.0576 116.596 54.3636 116.596 54.7376C116.596 55.1115 116.291 55.4175 115.918 55.4175ZM107.469 55.4175H103.248C102.875 55.4175 102.57 55.1115 102.57 54.7376C102.57 54.3636 102.875 54.0576 103.248 54.0576H107.469C107.842 54.0576 108.147 54.3636 108.147 54.7376C108.147 55.1115 107.842 55.4175 107.469 55.4175ZM99.0198 55.4175H94.7986C94.4259 55.4175 94.121 55.1115 94.121 54.7376C94.121 54.3636 94.4259 54.0576 94.7986 54.0576H99.0198C99.3925 54.0576 99.6974 54.3636 99.6974 54.7376C99.6974 55.1115 99.3925 55.4175 99.0198 55.4175ZM90.5705 55.4175H86.3493C85.9766 55.4175 85.6717 55.1115 85.6717 54.7376C85.6717 54.3636 85.9766 54.0576 86.3493 54.0576H90.5705C90.9432 54.0576 91.2481 54.3636 91.2481 54.7376C91.2481 55.1115 90.9432 55.4175 90.5705 55.4175ZM82.1212 55.4175H77.9C77.5273 55.4175 77.2224 55.1115 77.2224 54.7376C77.2224 54.3636 77.5273 54.0576 77.9 54.0576H82.1212C82.4939 54.0576 82.7988 54.3636 82.7988 54.7376C82.7988 55.1115 82.4939 55.4175 82.1212 55.4175Z" fill="#EAD8C3"/>
<path d="M122.179 55.4175H120.147C119.774 55.4175 119.469 55.1115 119.469 54.7376C119.469 54.3636 119.774 54.0576 120.147 54.0576H122.179C122.552 54.0576 122.857 54.3636 122.857 54.7376C122.857 55.1115 122.552 55.4175 122.179 55.4175Z" fill="#EAD8C3"/>
<path d="M9.8584 67.5815C10.082 68.0371 10.6173 68.2615 11.1051 68.0847C11.1051 68.0847 11.2271 68.0439 11.4507 67.9555C11.9724 67.7515 12.2299 67.16 12.0266 66.6364C11.8234 66.1196 11.2339 65.8545 10.7121 66.0584C10.536 66.1264 10.4411 66.1604 10.4276 66.1672C9.89906 66.3576 9.62126 66.9356 9.81097 67.4659C9.82453 67.5067 9.84485 67.5475 9.8584 67.5815Z" fill="#EAD8C3"/>
<path d="M14.8928 63.8963C15.0757 63.7807 15.2654 63.6515 15.4552 63.5292C15.9227 63.2164 16.5528 63.3388 16.8645 63.8079C17.1762 64.2703 17.0542 64.9095 16.5867 65.2222C16.3834 65.3582 16.1802 65.4942 15.9769 65.6234C15.5026 65.9226 14.8724 65.7866 14.5743 65.3106C14.554 65.2766 14.5404 65.2494 14.5201 65.2154C14.2897 64.7531 14.4388 64.1819 14.886 63.9031L14.8928 63.8963ZM13.4021 51.9496C13.8696 51.6436 14.4998 51.7796 14.8115 52.2488C14.9267 52.4256 15.0486 52.6024 15.1774 52.7724C15.5094 53.2279 15.4145 53.8671 14.9673 54.2002C14.5133 54.5334 13.8764 54.4382 13.5444 53.9895C13.3953 53.7855 13.2463 53.5747 13.1108 53.3639C13.0904 53.3299 13.0701 53.2959 13.0498 53.2619C12.8194 52.8063 12.9685 52.242 13.4089 51.9564L13.4021 51.9496ZM11.5659 48.0467C11.6066 47.7543 11.6743 47.4619 11.7692 47.1832C11.9453 46.646 12.5213 46.3604 13.0566 46.544C13.5918 46.7276 13.8764 47.3056 13.6935 47.8359C13.6393 47.9991 13.5986 48.1691 13.5715 48.3391C13.4902 48.8966 12.9753 49.2842 12.4196 49.2026C12.0741 49.155 11.7963 48.9374 11.654 48.6451C11.5659 48.4683 11.5253 48.2575 11.5591 48.0467H11.5659ZM19.0395 60.5238C19.1886 60.3674 19.3376 60.2042 19.4867 60.0342C19.8594 59.6126 20.4963 59.5718 20.9231 59.939C21.3432 60.313 21.3839 60.9521 21.018 61.3805C20.8554 61.5641 20.686 61.7477 20.5166 61.9313C20.1304 62.3392 19.4867 62.3528 19.0802 61.9653C18.9921 61.8837 18.9243 61.7817 18.8701 61.6797C18.6872 61.3057 18.7414 60.8434 19.0463 60.5238H19.0395ZM17.0678 56.1721C17.393 55.7165 18.0299 55.6077 18.4839 55.9341C18.6668 56.0633 18.8498 56.1925 19.0395 56.3149C19.507 56.6277 19.629 57.26 19.3173 57.7292C19.0056 58.1983 18.3755 58.3207 17.908 58.008C17.7047 57.872 17.5014 57.736 17.3049 57.5932C17.1626 57.4912 17.0542 57.362 16.9865 57.2192C16.8238 56.8928 16.8442 56.4917 17.0678 56.1721ZM21.8446 59.1027C22.075 58.5927 22.6781 58.3615 23.193 58.5995C23.4031 58.6947 23.6063 58.7899 23.8164 58.8783C24.3313 59.1027 24.5685 59.7078 24.3381 60.2178C24.1145 60.7346 23.5115 60.9725 23.0033 60.7482C22.7865 60.653 22.5629 60.551 22.346 60.4558C22.1224 60.3538 21.9598 60.1838 21.8582 59.9798C21.7295 59.7146 21.7091 59.3951 21.8446 59.1027ZM15.2925 44.647C15.1367 44.103 15.4552 43.5386 15.9972 43.389C16.2615 43.3143 16.5325 43.2531 16.8103 43.2123C17.3659 43.1307 17.8876 43.5182 17.9622 44.0758C18.0435 44.6334 17.6573 45.1501 17.1017 45.2317C16.9119 45.2589 16.729 45.2997 16.546 45.3473C16.0717 45.4833 15.5771 45.2521 15.3603 44.8237C15.3332 44.7693 15.3061 44.7082 15.2925 44.647ZM21.9463 56.1789C22.0276 55.9817 22.1089 55.7777 22.1834 55.5737C22.3799 55.0434 22.9626 54.7714 23.4911 54.9686C24.0196 55.159 24.2907 55.7505 24.0942 56.2741C24.0061 56.5121 23.9112 56.7433 23.8164 56.9744C23.5928 57.4912 22.9965 57.736 22.4816 57.5116C22.2512 57.4096 22.075 57.2396 21.9734 57.0288C21.8446 56.7705 21.8243 56.4577 21.9463 56.1721V56.1789ZM27.0348 61.2309C27.211 60.6938 27.7802 60.4014 28.3154 60.5714C28.5323 60.6394 28.7559 60.7142 28.9727 60.7822C29.508 60.9453 29.8061 61.5165 29.6435 62.0605C29.4809 62.5976 28.9049 62.8968 28.3696 62.7336C28.146 62.6656 27.9157 62.5908 27.6853 62.516C27.4143 62.4276 27.2042 62.2372 27.089 61.9993C26.9738 61.7613 26.9467 61.4961 27.0348 61.2309ZM22.9355 51.1201C22.9355 50.9025 22.922 50.6849 22.9084 50.4673C22.8746 49.903 23.3014 49.4202 23.8638 49.3862C24.4262 49.3522 24.9073 49.7806 24.9411 50.3449C24.9547 50.5965 24.9682 50.8481 24.9682 51.0929C24.975 51.6572 24.5278 52.1196 23.9654 52.1264C23.5657 52.1264 23.2133 51.902 23.0439 51.562C22.9762 51.4261 22.9423 51.2765 22.9355 51.1201ZM20.747 44.8781C21.0925 44.4362 21.7362 44.3614 22.1767 44.7082C22.3867 44.8781 22.5967 45.0617 22.7865 45.2521C23.1862 45.6533 23.1862 46.2924 22.7865 46.6936C22.3935 47.0948 21.7498 47.0948 21.35 46.6936C21.2077 46.5576 21.0654 46.4216 20.9096 46.306C20.7876 46.2108 20.6928 46.0885 20.6318 45.9593C20.4624 45.6193 20.4895 45.1909 20.7402 44.8713L20.747 44.8781ZM32.4147 62.8152C32.5435 62.2645 33.0855 61.9245 33.6344 62.0537L34.3119 62.2101C34.8608 62.3324 35.2063 62.8832 35.0776 63.4272C34.9556 63.9779 34.4068 64.3179 33.8647 64.1955L33.1736 64.0391C32.8687 63.9711 32.6248 63.7603 32.496 63.502C32.3944 63.298 32.3605 63.0532 32.4147 62.8152Z" fill="#EAD8C3"/>
<path d="M38.0453 64.5694C38.1876 64.8618 38.4654 65.0726 38.8109 65.127L39.1497 65.1746C39.7053 65.2494 40.2203 64.8618 40.2948 64.3042C40.3694 63.7467 39.9831 63.2299 39.4275 63.1551L39.1023 63.1075C38.5467 63.0259 38.0317 63.4135 37.9504 63.9711C37.9166 64.1818 37.9504 64.3926 38.0453 64.5694Z" fill="#EAD8C3"/>
<path d="M119.482 51.1611C130.391 51.1611 139.234 42.2871 139.234 31.3405C139.234 20.394 130.391 11.52 119.482 11.52C108.574 11.52 99.7313 20.394 99.7313 31.3405C99.7313 42.2871 108.574 51.1611 119.482 51.1611Z" fill="white"/>
<path d="M119.482 52.1741C108.032 52.1741 98.715 42.8248 98.715 31.3337C98.715 19.8425 108.032 10.5 119.482 10.5C130.933 10.5 140.25 19.8493 140.25 31.3405C140.25 42.8316 130.933 52.1809 119.482 52.1809V52.1741ZM119.482 12.5398C109.15 12.5398 100.748 20.9712 100.748 31.3405C100.748 41.7097 109.15 50.1411 119.482 50.1411C129.815 50.1411 138.217 41.7097 138.217 31.3405C138.217 20.9712 129.815 12.5398 119.482 12.5398Z" fill="#EAD8C3"/>
<path d="M119.781 38.9287C118.52 38.9287 117.389 38.6159 116.386 37.9904C115.39 37.3648 114.604 36.4537 114.028 35.2638C113.459 34.067 113.168 32.6256 113.168 30.9325C113.168 29.2394 113.452 27.7911 114.028 26.6012C114.604 25.4045 115.383 24.5002 116.386 23.8746C117.382 23.2491 118.514 22.9363 119.781 22.9363C121.048 22.9363 122.193 23.2491 123.182 23.8746C124.171 24.5002 124.957 25.4113 125.526 26.6012C126.096 27.7979 126.387 29.2394 126.387 30.9325C126.387 32.6256 126.102 34.0738 125.526 35.2638C124.95 36.4605 124.171 37.3648 123.182 37.9904C122.193 38.6159 121.054 38.9287 119.781 38.9287ZM119.781 35.9029C120.384 35.9029 120.905 35.7329 121.353 35.393C121.8 35.053 122.152 34.5158 122.41 33.7815C122.667 33.0471 122.796 32.0952 122.796 30.9325C122.796 29.7698 122.667 28.8178 122.41 28.0835C122.152 27.3492 121.8 26.812 121.353 26.472C120.905 26.132 120.377 25.9621 119.781 25.9621C119.184 25.9621 118.676 26.132 118.229 26.472C117.782 26.812 117.429 27.3492 117.172 28.0835C116.914 28.8178 116.786 29.7698 116.786 30.9325C116.786 32.0952 116.914 33.0471 117.172 33.7815C117.429 34.5158 117.782 35.053 118.229 35.393C118.676 35.7329 119.198 35.9029 119.781 35.9029Z" fill="#DDC6AF"/>
</svg>
