<svg width="24" height="24" viewBox="0 0 24 24" fill="none" xmlns="http://www.w3.org/2000/svg">
<path d="M19.1429 3.75C19.1429 2.505 18.1858 1.5 17.0001 1.5H7.00006C6.40721 1.5 5.87149 1.755 5.48578 2.16C5.10006 2.565 4.85721 3.1275 4.85721 3.75C4.71435 5.4 4.61435 7.0575 4.55721 8.715C5.20721 8.19 6.01435 7.875 6.90006 7.875H17.1001C17.9858 7.875 18.7929 8.19 19.4429 8.715C19.3858 7.0575 19.2858 5.4 19.1429 3.75ZM13.4286 5.25H10.5715C10.1786 5.25 9.85721 4.9125 9.85721 4.5C9.85721 4.0875 10.1786 3.75 10.5715 3.75H13.4286C13.8215 3.75 14.1429 4.0875 14.1429 4.5C14.1429 4.9125 13.8215 5.25 13.4286 5.25Z" fill="#FEC75E"/>
<path d="M10.7286 14.2951C10.7286 14.5876 10.6357 14.8276 10.45 14.9926C10.2643 15.1576 9.98574 15.2401 9.61431 15.2401H8.63574V13.3501H9.61431C9.98574 13.3501 10.2643 13.4326 10.45 13.5976C10.6357 13.7626 10.7286 13.9951 10.7286 14.2951Z" fill="#FF9300"/>
<path d="M17.1 9.375H6.9C5.58571 9.375 4.51429 10.4925 4.5 11.8725V12C4.5 14.7525 4.61429 17.505 4.85714 20.25C4.85714 21.495 5.81429 22.5 7 22.5H17C17.5929 22.5 18.1286 22.245 18.5143 21.84C18.9 21.435 19.1429 20.8725 19.1429 20.25C19.3857 17.505 19.5 14.7525 19.5 12V11.8725C19.4857 10.4925 18.4143 9.375 17.1 9.375ZM10.75 17.3475L9.82143 15.9525C9.76429 15.9525 9.71429 15.9675 9.65 15.9675H8.63571V17.3475H7.79286V12.6075H9.65C10.05 12.6075 10.3929 12.675 10.6786 12.81C10.9643 12.9375 11.1857 13.1325 11.3429 13.3875C11.4929 13.6425 11.5714 13.9425 11.5714 14.295C11.5714 14.6475 11.4929 14.94 11.3429 15.1875C11.1857 15.435 10.9643 15.63 10.6786 15.765C10.6571 15.7725 10.6286 15.7725 10.6071 15.7875L11.65 17.3475H10.75ZM16.05 15.1875C15.9 15.4425 15.6786 15.6375 15.3929 15.7725C15.1071 15.9075 14.7643 15.975 14.3643 15.975H13.3429V17.3475H12.5071V12.6075H14.3643C14.7643 12.6075 15.1071 12.675 15.3929 12.81C15.6786 12.9375 15.9 13.1325 16.05 13.3875C16.2071 13.6425 16.2857 13.9425 16.2857 14.295C16.2857 14.6475 16.2071 14.94 16.05 15.1875ZM14.3286 13.35H13.3429V15.2325H14.3286C14.6929 15.2325 14.9714 15.15 15.1571 14.985C15.35 14.82 15.4429 14.5875 15.4429 14.295C15.4429 14.0025 15.35 13.7625 15.1571 13.5975C14.9714 13.4325 14.6929 13.35 14.3286 13.35Z" fill="#FF9300"/>
</svg>
