<svg width="24" height="24" viewBox="0 0 24 24" fill="none" xmlns="http://www.w3.org/2000/svg">
<path d="M12 1.5C6.2025 1.5 1.5 6.2025 1.5 12C1.5 17.7975 6.2025 22.5 12 22.5C17.7975 22.5 22.5 17.7975 22.5 12C22.5 6.2025 17.7975 1.5 12 1.5ZM17.7825 8.7825L10.6575 15.9075C10.5075 16.05 10.32 16.125 10.125 16.125C9.93 16.125 9.7425 16.05 9.5925 15.9075L6.2175 12.5325C5.925 12.24 5.925 11.76 6.2175 11.4675C6.51 11.175 6.99 11.175 7.2825 11.4675L10.125 14.3175L16.7175 7.7175C17.01 7.425 17.49 7.425 17.7825 7.7175C18.075 8.01 18.075 8.49 17.7825 8.7825Z" fill="#4CAF50"/>
</svg>
