<svg width="16" height="16" viewBox="0 0 16 16" fill="none" xmlns="http://www.w3.org/2000/svg">
<path d="M8 1C4.135 1 1 4.135 1 8C1 11.865 4.135 15 8 15C11.865 15 15 11.865 15 8C15 4.135 11.865 1 8 1ZM10.355 9.785C10.55 9.98 10.55 10.3 10.355 10.495C10.255 10.59 10.13 10.64 10 10.64C9.87 10.64 9.745 10.59 9.645 10.495L7.845 8.695L6.04 10.495C5.94 10.59 5.81 10.64 5.685 10.64C5.56 10.64 5.43 10.59 5.33 10.495C5.135 10.3 5.135 9.98 5.33 9.785L7.135 7.985L5.33 6.18C5.135 5.985 5.135 5.665 5.33 5.47C5.525 5.275 5.845 5.275 6.04 5.47L7.845 7.275L9.645 5.47C9.84 5.275 10.16 5.275 10.355 5.47C10.55 5.665 10.55 5.985 10.355 6.18L8.555 7.985L10.355 9.785Z" fill="#E21E27"/>
</svg>
