<svg width="7" height="16" viewBox="0 0 7 16" fill="none" xmlns="http://www.w3.org/2000/svg">
<path d="M6.84866 1.34868V1.49363C6.83936 1.83032 6.92307 2.20627 6.79596 2.49314C6.65954 2.79511 6.20689 2.78605 5.90771 2.94307C3.74215 4.07696 2.59195 5.83291 2.69426 8.23054C2.79346 10.5663 4.05374 12.1999 6.23015 13.1692C6.43012 13.2583 6.68899 13.2945 6.82076 13.4395C6.98352 13.6192 6.88742 13.9015 6.89207 14.14C6.90137 14.6942 6.90136 15.2498 6.89671 15.8054C6.89671 15.9473 6.80525 16.0304 6.65334 15.9896C6.272 15.8884 5.88446 15.8009 5.51243 15.6695C2.05559 14.4496 -0.292885 11.1083 0.0295459 7.33218C0.347327 3.61042 3.01204 0.924419 6.23325 0.0819278C6.35261 0.0502212 6.47352 0.0245539 6.59598 0.00492601C6.7417 -0.0177216 6.83781 0.0366327 6.83936 0.190636C6.84246 0.577155 6.83936 0.962165 6.83936 1.34868H6.84866Z" fill="#015596"/>
</svg>
