<svg width="24" height="24" viewBox="0 0 24 24" fill="none" xmlns="http://www.w3.org/2000/svg">
<path d="M6.375 11.25C9.06739 11.25 11.25 9.06739 11.25 6.375C11.25 3.68261 9.06739 1.5 6.375 1.5C3.68261 1.5 1.5 3.68261 1.5 6.375C1.5 9.06739 3.68261 11.25 6.375 11.25Z" fill="#015596"/>
<path d="M17.625 22.5C20.3174 22.5 22.5 20.3174 22.5 17.625C22.5 14.9326 20.3174 12.75 17.625 12.75C14.9326 12.75 12.75 14.9326 12.75 17.625C12.75 20.3174 14.9326 22.5 17.625 22.5Z" fill="#015596"/>
<path d="M20.25 1.5H15C13.7574 1.5 12.75 2.50736 12.75 3.75V9C12.75 10.2426 13.7574 11.25 15 11.25H20.25C21.4926 11.25 22.5 10.2426 22.5 9V3.75C22.5 2.50736 21.4926 1.5 20.25 1.5Z" fill="#015596"/>
<path d="M9 12.75H3.75C2.50736 12.75 1.5 13.7574 1.5 15V20.25C1.5 21.4926 2.50736 22.5 3.75 22.5H9C10.2426 22.5 11.25 21.4926 11.25 20.25V15C11.25 13.7574 10.2426 12.75 9 12.75Z" fill="#015596"/>
</svg>
