<svg width="11" height="9" viewBox="0 0 11 9" fill="none" xmlns="http://www.w3.org/2000/svg">
<path d="M5.45503 8.99999H0.834136C0.641411 8.99999 0.448681 8.99999 0.255956 8.99559C0.0767817 8.99119 0.00451075 8.88707 0.00300509 8.72429C0.00149942 8.60696 0 8.48964 0 8.37232V0.642332C0 0.0029326 3.58979e-07 0.0234639 0.630875 0.0219974C3.44647 0.0146648 6.26207 0.00733257 9.07917 0C9.22372 0 9.36826 0.0029328 9.5113 0.0146649C9.61971 0.023464 9.68445 0.0967894 9.68595 0.199445C9.69047 0.854977 9.69348 1.51051 9.69047 2.16604C9.69047 2.29949 9.60766 2.38015 9.46613 2.38455C9.2734 2.39042 9.08068 2.39188 8.88946 2.39335H3.4013C3.20857 2.39335 3.01585 2.39335 2.82463 2.39921C2.68762 2.40215 2.60329 2.46814 2.58974 2.60599C2.58372 2.67639 2.57921 2.74678 2.57921 2.8157C2.57921 3.94052 2.57469 5.06387 2.57921 6.18869C2.58071 6.59051 2.59727 6.60517 3.04445 6.60664C5.37974 6.60957 7.71353 6.60664 10.0488 6.60664C10.2415 6.60664 10.4343 6.60957 10.627 6.60957C10.8197 6.60957 10.8784 6.71516 10.88 6.87501C10.88 7.50708 10.8799 8.13915 10.8754 8.77268C10.8754 8.90907 10.7956 8.98826 10.6556 8.99266C10.4629 8.99852 10.2702 8.99852 10.0774 8.99852H5.45503V8.99999Z" fill="#015596"/>
</svg>
