<svg width="11" height="16" viewBox="0 0 11 16" fill="none" xmlns="http://www.w3.org/2000/svg">
<path d="M7.97185 7.65308C8.05871 7.8117 8.23862 7.84191 8.38285 7.92046C8.75043 8.12288 9.09784 8.35401 9.41423 8.62743C10.3448 9.43259 10.7791 10.4356 10.7232 11.6487C10.6333 13.5868 9.63602 14.9176 7.76248 15.5672C7.01027 15.8285 6.23325 15.9856 5.43451 15.9917C3.77345 16.0053 2.11239 15.9977 0.451325 15.9992C0.401695 15.9992 0.352064 15.9962 0.302434 15.9962C0.128728 15.9962 0.0217132 15.9222 0.00930566 15.7469C0.00155094 15.6261 0 15.5068 0 15.3859V7.42347C0 7.30262 0 7.18177 0.00930566 7.06243C0.0217132 6.92195 0.111668 6.85095 0.252804 6.8434C0.42651 6.83584 0.600215 6.83282 0.77237 6.83282C2.0612 6.82678 3.35004 6.82376 4.63887 6.81167C4.9351 6.80865 5.23289 6.7875 5.52756 6.74823C6.10297 6.66967 6.53723 6.37057 6.83191 5.88567C7.24911 5.20136 7.31425 4.47475 7.06145 3.72549C6.89705 3.23605 6.52172 2.9294 6.04868 2.72546C5.58495 2.52606 5.0933 2.48528 4.5939 2.48225C3.35469 2.47168 2.11549 2.46262 0.876284 2.45204C0.677763 2.45053 0.479242 2.45204 0.280721 2.446C0.103913 2.44298 0.00310189 2.35385 0.00310189 2.18013C0 1.55323 0.00310189 0.924813 0.00310189 0.297908C0.00310189 0.13023 0.0790982 0.0259976 0.260559 0.0124021C0.285374 0.0108915 0.310189 0.00938089 0.335004 0.00938089C2.07051 0.0275083 3.80602 -0.0480225 5.53997 0.0577205C6.28753 0.103039 7.00717 0.279781 7.69268 0.578882C9.15522 1.21787 9.87796 2.32817 9.91674 3.87957C9.95396 5.35846 9.42199 6.56393 8.16262 7.43405C8.12229 7.46124 8.07887 7.48692 8.04785 7.52317C8.01683 7.55792 7.99977 7.60474 7.97495 7.65006L7.97185 7.65308ZM4.21392 9.28908C3.79206 9.28908 3.37175 9.28304 2.9499 9.2921C2.72346 9.29663 2.64591 9.37669 2.64436 9.6048C2.63816 10.3284 2.63971 11.052 2.63971 11.7755C2.63971 12.2816 2.63661 12.7892 2.64281 13.2952C2.64591 13.543 2.7126 13.6245 2.93128 13.6245C3.74863 13.6245 4.56753 13.6366 5.38333 13.6034C5.98199 13.5792 6.55584 13.4282 7.07696 13.1185C7.54534 12.8405 7.85708 12.4523 7.96565 11.9266C8.19674 10.8027 7.73301 9.98849 6.63029 9.57458C6.44572 9.5051 6.25341 9.45373 6.06264 9.40842C5.45467 9.26642 4.83274 9.28606 4.21392 9.28908Z" fill="#015596"/>
</svg>
