<svg width="130" height="130" viewBox="0 0 130 130" fill="none" xmlns="http://www.w3.org/2000/svg">
<path d="M67.6908 116.122C94.3598 116.122 115.979 94.503 115.979 67.834C115.979 41.165 94.3598 19.5455 67.6908 19.5455C41.0218 19.5455 19.4023 41.165 19.4023 67.834C19.4023 94.503 41.0218 116.122 67.6908 116.122Z" fill="#F4EADC"/>
<path d="M98.1436 55.6595H37.2386C32.5251 55.6595 28.7041 59.4805 28.7041 64.194V104.169C28.7041 108.882 32.5251 112.703 37.2386 112.703H98.1436C102.857 112.703 106.678 108.882 106.678 104.169V64.194C106.678 59.4805 102.857 55.6595 98.1436 55.6595Z" fill="white"/>
<path d="M98.1435 55.6595H43.472C38.7585 55.6595 34.9375 59.4805 34.9375 64.194V104.169C34.9375 108.882 38.7585 112.703 43.472 112.703H98.1435C102.857 112.703 106.678 108.882 106.678 104.169V64.194C106.678 59.4805 102.857 55.6595 98.1435 55.6595Z" fill="#EDDDC0"/>
<path d="M98.1435 113.679H37.2385C31.993 113.679 27.729 109.415 27.729 104.169V64.194C27.729 58.9485 31.993 54.6845 37.2385 54.6845H98.1435C103.389 54.6845 107.653 58.9485 107.653 64.194V104.169C107.653 109.415 103.389 113.679 98.1435 113.679ZM37.2385 56.6345C33.072 56.6345 29.679 60.0275 29.679 64.194V104.169C29.679 108.336 33.072 111.729 37.2385 111.729H98.1435C102.31 111.729 105.703 108.336 105.703 104.169V64.194C105.703 60.0275 102.31 56.6345 98.1435 56.6345H37.2385Z" fill="#DBBC7A"/>
<path d="M94.2304 55.6595H87.7304V38.896C87.7304 27.846 78.7409 18.8565 67.6909 18.8565C56.6409 18.8565 47.6514 27.846 47.6514 38.896V55.6595H41.1514V38.896C41.1514 24.258 53.0594 12.35 67.6909 12.35C82.3224 12.35 94.2304 24.258 94.2304 38.8895V55.653V55.6595Z" fill="#015596"/>
<path d="M104.143 26.8385C106.157 26.8385 107.79 25.2059 107.79 23.192C107.79 21.1781 106.157 19.5455 104.143 19.5455C102.129 19.5455 100.497 21.1781 100.497 23.192C100.497 25.2059 102.129 26.8385 104.143 26.8385Z" fill="#015596"/>
<path d="M16.6188 87.9572L10.8833 86.1752L9.10127 91.9107L14.8368 93.6927L16.6188 87.9572Z" fill="#DBBC7A"/>
<path d="M103.558 117.065C112.963 117.065 120.588 109.44 120.588 100.035C120.588 90.6296 112.963 83.005 103.558 83.005C94.1524 83.005 86.5278 90.6296 86.5278 100.035C86.5278 109.44 94.1524 117.065 103.558 117.065Z" fill="#005499"/>
<path d="M101.283 105.417C100.458 105.417 99.6777 105.092 99.0927 104.507L95.7582 101.173C95.2512 100.666 95.2512 99.84 95.7582 99.333C96.2652 98.826 97.0907 98.826 97.5977 99.333L100.932 102.668C101.056 102.791 101.205 102.811 101.283 102.811C101.361 102.811 101.504 102.791 101.634 102.668L109.961 94.341C110.468 93.834 111.293 93.834 111.8 94.341C112.307 94.848 112.307 95.6735 111.8 96.1805L103.474 104.507C102.889 105.092 102.115 105.417 101.283 105.417Z" fill="white"/>
<path d="M72.8588 78.0325C72.8588 79.8135 71.9423 81.3735 70.5513 82.2705V87.1975C70.5513 88.712 69.3228 89.9405 67.8083 89.9405C66.2938 89.9405 65.0653 88.712 65.0653 87.1975V82.2705C63.6743 81.3735 62.7578 79.8135 62.7578 78.0325C62.7578 75.2505 65.0198 72.9885 67.8018 72.9885C70.5838 72.9885 72.8458 75.244 72.8458 78.0325H72.8588Z" fill="white"/>
<path d="M67.8082 90.909C65.7607 90.909 64.0902 89.245 64.0902 87.191V82.7645C62.6342 81.627 61.7827 79.898 61.7827 78.026C61.7827 74.711 64.4867 72.007 67.8017 72.007C71.1167 72.007 73.8207 74.7045 73.8207 78.026C73.8207 79.898 72.9692 81.627 71.5132 82.7645V87.191C71.5132 89.2385 69.8492 90.909 67.7952 90.909H67.8082ZM67.8082 73.9635C65.5657 73.9635 63.7392 75.79 63.7392 78.0325C63.7392 79.417 64.4347 80.6975 65.5982 81.4515L66.0467 81.7375V87.1975C66.0467 88.1725 66.8397 88.9655 67.8147 88.9655C68.7897 88.9655 69.5827 88.1725 69.5827 87.1975V81.7375L70.0312 81.4515C71.1947 80.6975 71.8902 79.4235 71.8902 78.039C71.8902 75.7965 70.0637 73.97 67.8212 73.97L67.8082 73.9635Z" fill="#DBBC7A"/>
</svg>
