<svg width="126" height="16" viewBox="0 0 126 16" fill="none" xmlns="http://www.w3.org/2000/svg">
<path d="M7.48258 7.75143C7.56411 7.90031 7.73297 7.92867 7.86836 8.0024C8.21337 8.1924 8.53946 8.40934 8.83644 8.66598C9.70989 9.42172 10.1175 10.3632 10.0651 11.5018C9.98066 13.3209 9.04461 14.5701 7.28606 15.1798C6.58001 15.4251 5.85068 15.5726 5.10097 15.5782C3.54185 15.591 1.98274 15.5839 0.423625 15.5853C0.377041 15.5853 0.330457 15.5825 0.283872 15.5825C0.120828 15.5825 0.0203806 15.513 0.00873453 15.3485C0.00145576 15.2351 0 15.1231 0 15.0097V7.53591C0 7.42248 0 7.30905 0.00873453 7.19703C0.0203806 7.06517 0.104814 6.99853 0.237288 6.99144C0.400333 6.98435 0.563377 6.98151 0.724966 6.98151C1.9347 6.97584 3.14443 6.97301 4.35416 6.96166C4.63221 6.95883 4.91172 6.93898 5.18831 6.90211C5.7284 6.82838 6.13601 6.54764 6.4126 6.09249C6.8042 5.45018 6.86534 4.76817 6.62805 4.06489C6.47374 3.60549 6.12145 3.31766 5.67745 3.12624C5.24218 2.93908 4.7807 2.9008 4.31195 2.89796C3.1488 2.88804 1.98565 2.87953 0.822502 2.8696C0.636165 2.86819 0.449828 2.8696 0.263492 2.86393C0.0975356 2.8611 0.00291151 2.77744 0.00291151 2.61438C0 2.02595 0.00291151 1.43611 0.00291151 0.847678C0.00291151 0.690291 0.0742435 0.592456 0.244567 0.579695C0.267859 0.578277 0.291151 0.576859 0.314443 0.576859C1.94343 0.593874 3.57242 0.522979 5.19996 0.622232C5.90163 0.664769 6.5771 0.830663 7.22055 1.11141C8.59332 1.71118 9.27171 2.75334 9.3081 4.20952C9.34304 5.59764 8.84371 6.72913 7.66164 7.54584C7.62379 7.57136 7.58303 7.59546 7.55392 7.62949C7.5248 7.66211 7.50879 7.70606 7.48549 7.7486L7.48258 7.75143ZM3.95529 9.28702C3.55932 9.28702 3.16481 9.28135 2.76885 9.28985C2.55631 9.29411 2.48352 9.36926 2.48206 9.58336C2.47624 10.2625 2.4777 10.9417 2.4777 11.6209C2.4777 12.0959 2.47478 12.5723 2.48061 13.0473C2.48352 13.2798 2.54612 13.3564 2.75138 13.3564C3.51856 13.3564 4.2872 13.3677 5.05293 13.3365C5.61485 13.3139 6.15348 13.1721 6.64261 12.8814C7.08225 12.6205 7.37486 12.2561 7.47676 11.7627C7.69367 10.7078 7.2584 9.94351 6.22335 9.555C6.05012 9.48978 5.86961 9.44157 5.69055 9.39903C5.11989 9.26575 4.53613 9.28418 3.95529 9.28702Z" fill="#015596"/>
<path d="M80.2279 0.637839C80.2992 1.1497 80.3225 14.9586 80.2541 15.9894C80.0183 16.049 79.9367 15.842 79.8174 15.73C76.9408 13.0232 74.0671 10.3108 71.1949 7.59973C70.6432 7.07936 70.0929 6.55757 69.5412 6.04004C69.4582 5.96205 69.3709 5.8869 69.2748 5.82735C69.2078 5.78623 69.1307 5.83302 69.1234 5.90108C69.1059 6.05847 69.1074 6.21728 69.1088 6.37608C69.1147 7.53167 69.1234 8.68584 69.1292 9.84143C69.1292 10.0002 69.135 10.159 69.1292 10.3164C69.1219 10.5617 69.0812 10.6128 68.8585 10.6128C68.2077 10.6128 67.5556 10.6043 66.9048 10.5972C66.7709 10.5972 66.6894 10.5291 66.6836 10.3944C66.6777 10.281 66.6777 10.1675 66.6777 10.0555V0.612317C66.6777 0.476199 66.6777 0.34008 66.6981 0.206798C66.7083 0.140157 66.7957 0.0933658 66.8553 0.141574C67.0155 0.272021 67.1654 0.413811 67.3154 0.557019C70.6112 3.72177 73.907 6.88652 77.2028 10.0527C77.3018 10.1477 77.3994 10.2455 77.5013 10.3391C77.5843 10.4143 77.6629 10.5475 77.7779 10.5121C77.9496 10.4568 77.8769 10.2824 77.8769 10.1605C77.8681 7.48771 77.8507 4.81639 77.8477 2.14365C77.8477 1.65022 77.7706 1.15395 77.8943 0.663362C78.4126 0.487542 78.9483 0.612317 79.4753 0.586795C79.7257 0.575452 79.9862 0.532915 80.2294 0.642093V0.637839H80.2279Z" fill="#015596"/>
<path d="M21.5148 0.64499C21.6386 0.561334 21.7812 0.576931 21.9195 0.576931C23.269 0.576931 24.62 0.571259 25.9694 0.581184C26.8356 0.586856 27.6843 0.705959 28.4966 1.02073C30.376 1.74953 31.3616 3.11072 31.4955 5.06175C31.5581 5.98055 31.3718 6.86248 31.0107 7.71322C30.6992 8.44628 30.2115 9.03612 29.5375 9.47992C29.3846 9.5806 29.2318 9.6841 29.0833 9.78335C29.1081 10.0372 29.274 10.2045 29.3948 10.3931C30.3586 11.8889 31.3266 13.382 32.2947 14.8765C32.3937 15.0296 32.4956 15.1813 32.5888 15.3387C32.663 15.4649 32.6121 15.5797 32.4781 15.5797C31.6877 15.584 30.8957 15.5797 30.1052 15.5854C29.9466 15.5854 29.8432 15.5145 29.7617 15.3954C29.6714 15.2635 29.5841 15.1303 29.4953 14.997C28.6087 13.667 27.7265 12.3356 26.8371 11.0084C26.3523 10.2853 26.5488 10.386 25.6885 10.3803C24.5486 10.3732 23.4073 10.3746 22.2675 10.3718C22.1277 10.3718 21.988 10.3718 21.8482 10.3675C21.493 10.3519 21.4566 10.3264 21.4624 9.96201C21.4712 9.35515 21.4129 8.74545 21.4988 8.15135C21.7492 8.05493 21.985 8.09038 22.2151 8.08896C23.4481 8.0762 24.6826 8.07479 25.9156 8.05777C26.2635 8.05352 26.6158 8.03508 26.9564 7.97695C27.7993 7.83091 28.3816 7.35166 28.7165 6.58741C29.258 5.34816 28.7543 4.07064 28.108 3.51057C27.7848 3.22982 27.4252 3.02423 27.003 2.96751C26.0539 2.84132 25.0989 2.9037 24.1454 2.91647C23.9998 2.91788 23.9576 3.02848 23.9561 3.15042C23.9518 3.53609 23.9518 3.92034 23.9503 4.30601C23.9503 4.6463 23.9474 4.98518 23.9445 5.32548C23.9445 5.45734 23.8717 5.52682 23.7363 5.54242C23.3913 5.58212 21.8293 5.56652 21.5163 5.51689C21.4377 4.96817 21.4377 1.19797 21.5163 0.650661V0.64499H21.5148Z" fill="#015596"/>
<path d="M42.2751 15.5868C42.2168 15.4237 42.2649 15.3202 42.3056 15.2167C43.1121 13.1834 48.6979 0.511674 49.0079 0.00548377C49.1302 -0.0242921 49.1681 0.073543 49.2001 0.145856C50.2453 2.54069 51.2862 4.93694 52.3271 7.33319C52.3343 7.35162 52.3256 7.37573 52.3241 7.40409C52.263 7.53737 52.132 7.49908 52.0243 7.5005C51.3954 7.50759 50.7679 7.50476 50.1391 7.51752C49.9178 7.52177 49.794 7.42677 49.7183 7.23819C49.532 6.77454 49.3398 6.31372 49.1521 5.85007C49.1011 5.72529 49.0691 5.59059 48.9512 5.50835C48.8012 5.52962 48.775 5.64873 48.7357 5.74231C48.1956 7.01842 47.6599 8.29594 47.1256 9.57489C47.0907 9.65713 47.066 9.74362 47.047 9.83011C47.0296 9.91093 47.098 9.9719 47.1562 9.97757C47.3411 9.99601 47.5274 9.99601 47.7138 9.99742C49.4592 10.0017 51.2047 10.0159 52.9501 9.99742C53.3534 9.99317 53.5688 10.0967 53.7289 10.4809C54.3753 12.0321 55.061 13.5691 55.7321 15.1104C55.7859 15.2337 55.866 15.3514 55.8442 15.4989C55.7743 15.6251 55.6476 15.5839 55.5414 15.5854C54.9125 15.5896 54.285 15.5882 53.6562 15.5854C52.9938 15.5854 53.1175 15.6109 52.9021 15.1004C52.5672 14.305 52.2557 13.5011 51.9311 12.6999C51.6443 11.991 51.7855 12.0591 51.0081 12.0576C49.5422 12.0548 48.0762 12.0746 46.6103 12.0463C46.1838 12.0378 45.9974 12.1923 45.8548 12.5582C45.517 13.4259 45.1196 14.271 44.7892 15.1401C44.6494 15.5088 44.4412 15.6109 44.0642 15.5925C43.463 15.5641 42.8588 15.5854 42.2751 15.5854V15.5868Z" fill="#015596"/>
<path d="M120.755 15.5868H116.287C116.101 15.5868 115.914 15.5868 115.728 15.5825C115.555 15.5783 115.485 15.4776 115.483 15.3202C115.482 15.2068 115.48 15.0934 115.48 14.9799V7.50617C115.48 6.88797 115.48 6.90782 116.09 6.9064C118.813 6.89931 121.535 6.89222 124.259 6.88513C124.398 6.88513 124.538 6.88797 124.676 6.89931C124.781 6.90782 124.844 6.97871 124.845 7.07797C124.85 7.71177 124.853 8.34557 124.85 8.97937C124.85 9.1084 124.77 9.18638 124.633 9.19064C124.446 9.19631 124.26 9.19773 124.075 9.19914H118.769C118.583 9.19914 118.396 9.19914 118.211 9.20482C118.079 9.20765 117.997 9.27146 117.984 9.40474C117.979 9.4728 117.974 9.54086 117.974 9.6075C117.974 10.695 117.97 11.7811 117.974 12.8687C117.976 13.2572 117.992 13.2714 118.424 13.2728C120.682 13.2756 122.938 13.2728 125.196 13.2728C125.383 13.2728 125.569 13.2756 125.755 13.2756C125.942 13.2756 125.998 13.3777 126 13.5322C126 14.1434 126 14.7545 125.995 15.367C125.995 15.4989 125.918 15.5754 125.783 15.5797C125.597 15.5854 125.41 15.5854 125.224 15.5854H120.755V15.5868Z" fill="#015596"/>
<path d="M97.4614 2.16072V2.29684C97.4527 2.61303 97.5313 2.96609 97.4119 3.23549C97.2838 3.51907 96.8587 3.51056 96.5778 3.65802C94.5441 4.72287 93.4639 6.37188 93.56 8.62351C93.6531 10.817 94.8367 12.3512 96.8806 13.2615C97.0683 13.3451 97.3115 13.3791 97.4352 13.5153C97.5881 13.684 97.4978 13.9491 97.5022 14.1732C97.5109 14.6935 97.5109 15.2153 97.5065 15.7371C97.5065 15.8704 97.4206 15.9484 97.278 15.9101C96.9199 15.8151 96.5559 15.7329 96.2065 15.6095C92.9602 14.4638 90.7547 11.326 91.0575 7.77986C91.356 4.28474 93.8584 1.76229 96.8835 0.971104C96.9956 0.941328 97.1091 0.917224 97.2241 0.898791C97.361 0.877523 97.4512 0.928567 97.4527 1.07319C97.4556 1.43618 97.4527 1.79774 97.4527 2.16072H97.4614Z" fill="#015596"/>
<path d="M120.569 2.86116H116.108C115.968 2.86116 115.83 2.8569 115.69 2.84698C115.554 2.83847 115.487 2.75623 115.485 2.6272C115.481 2.42303 115.481 2.22027 115.481 2.01609C115.481 1.65452 115.476 1.29296 115.484 0.929977C115.49 0.626546 115.527 0.59677 115.858 0.584009C115.974 0.579755 116.091 0.582591 116.206 0.582591H124.99C125.153 0.582591 125.314 0.585427 125.477 0.591098C125.611 0.59677 125.694 0.666247 125.694 0.79953C125.697 1.43191 125.699 2.06571 125.69 2.6981C125.689 2.82713 125.579 2.88526 125.448 2.8881C125.262 2.89235 125.077 2.89519 124.891 2.89519H120.569V2.85974V2.86116Z" fill="#015596"/>
<path d="M106.132 11.4281C105.542 13.5479 102.757 15.6733 100.194 15.9597C100.077 15.852 100.102 15.7116 100.101 15.5783C100.095 14.9899 100.098 14.4014 100.085 13.813C100.08 13.6216 100.166 13.528 100.344 13.4713C100.631 13.3791 100.919 13.2884 101.194 13.1707C101.997 12.8262 102.658 12.3001 103.198 11.6294C103.315 11.4848 103.421 11.3473 103.642 11.3515C104.455 11.3657 105.269 11.3714 106.082 11.3827C106.098 11.3827 106.114 11.4125 106.13 11.4295L106.132 11.4281Z" fill="#015596"/>
<path d="M104.763 5.38221H104.484C104.136 5.37654 103.772 5.429 103.444 5.34818C103.127 5.2702 103.002 4.90721 102.769 4.69027C102.086 4.04938 101.304 3.58857 100.387 3.34185C100.032 3.24685 100.025 3.227 100.02 2.87536C100.013 2.26425 100.012 1.65455 100.016 1.04344C100.018 0.830751 100.111 0.761274 100.329 0.805229C102.928 1.32702 104.846 2.72507 106.056 5.03057C106.076 5.07027 106.094 5.11281 106.11 5.15535C106.157 5.28012 106.094 5.37228 105.948 5.3737C105.554 5.37796 105.158 5.3737 104.763 5.3737V5.38079V5.38221Z" fill="#015596"/>
<path d="M66.7581 15.5825C66.7261 15.4833 66.6883 15.4209 66.6883 15.3571C66.6824 14.7006 66.6781 14.0455 66.6824 13.389C66.6824 13.1452 66.7305 13.0941 66.9547 13.0941C67.6054 13.0941 68.2561 13.1026 68.9068 13.1083C69.0815 13.1083 69.1529 13.2061 69.1543 13.3649C69.1601 14.0214 69.1674 14.6765 69.1703 15.333C69.1703 15.4932 69.0786 15.5811 68.9112 15.5811H66.7581V15.5825Z" fill="#015596"/>
</svg>
