<svg width="24" height="24" viewBox="0 0 24 24" fill="none" xmlns="http://www.w3.org/2000/svg">
<path d="M21.75 16.3494C21.75 16.7887 21.5727 17.228 21.2182 17.4916C20.8636 17.7552 20.4205 18.0188 19.9773 18.0188H4.11136C3.13636 18.0188 2.33864 17.4037 2.25 16.5251C2.25 15.9979 2.42727 15.5586 2.78182 15.2071C2.95909 15.0314 3.13636 14.9435 3.31364 14.8556C3.75682 14.6799 4.02273 14.3284 4.02273 13.8891V9.23221C4.02273 5.10251 7.65682 1.5 12.0886 1.5C14.3045 1.5 16.2545 2.37866 17.6727 3.69665C19.0909 5.01464 19.9773 6.85983 19.9773 8.96861V13.8891C19.9773 14.3284 20.2432 14.6799 20.6864 14.8556C21.3068 15.1192 21.75 15.7343 21.75 16.3494Z" fill="#015596"/>
<path d="M14.925 19.8643C15.1909 19.8643 15.3681 20.1279 15.2795 20.3915C14.7477 21.6216 13.5068 22.5002 12 22.5002C10.4931 22.5002 9.25223 21.6216 8.72041 20.3915C8.63178 20.1279 8.80905 19.8643 9.07496 19.8643H14.925Z" fill="#015596"/>
</svg>
