<svg width="11" height="3" viewBox="0 0 11 3" fill="none" xmlns="http://www.w3.org/2000/svg">
<path d="M5.47911 2.45415H0.676908C0.526448 2.45415 0.377555 2.44957 0.227094 2.43889C0.079768 2.42973 0.00766683 2.34119 0.00609953 2.20227C0.00139763 1.98245 0.00140261 1.76416 0.00140261 1.54433C0.00140261 1.15506 -0.00330579 0.765795 0.0045307 0.375C0.0107999 0.0483198 0.0515508 0.0162624 0.407328 0.00252346C0.532712 -0.00205618 0.658098 0.000996949 0.781915 0.000996949H10.239C10.4145 0.000996949 10.5885 0.00405003 10.764 0.0101562C10.9082 0.0162624 10.9976 0.091063 10.9976 0.234558C11.0007 0.915397 11.0023 1.59776 10.9929 2.2786C10.9913 2.41752 10.8738 2.4801 10.7327 2.48316C10.5321 2.48774 10.333 2.49079 10.1324 2.49079H5.47911V2.45263V2.45415Z" fill="#015596"/>
</svg>
