<svg width="24" height="24" viewBox="0 0 24 24" fill="none" xmlns="http://www.w3.org/2000/svg">
<path d="M14.82 15.3602C15.0075 17.3102 16.7625 18.7427 18.72 18.7427H20.055C20.31 18.7427 20.565 18.7202 20.805 18.6677V20.2427C20.805 21.4877 19.8 22.4927 19.305 22.4927H4.0725C2.925 22.4927 1.9575 21.6302 1.83 20.4902C1.5825 18.4277 1.4625 16.4177 1.5075 14.4602C1.53 13.0277 1.6425 11.6252 1.8525 10.2677C1.8525 10.2377 1.86 10.2002 1.8675 10.1702C2.01 9.17268 2.79 8.40018 3.7725 8.26518C3.8775 8.25018 3.9825 8.24268 4.0875 8.24268H18.555C19.8 8.24268 20.805 9.24768 20.805 10.4927V11.3177C20.5725 11.2652 20.3175 11.2427 20.07 11.2427H18.555C17.91 11.2427 17.3025 11.4077 16.77 11.6927C15.5025 12.3827 14.67 13.7852 14.82 15.3602Z" fill="#FF9300"/>
<path d="M21.645 13.4027C21.24 12.9977 20.6775 12.7427 20.055 12.7427H18.555C17.31 12.7427 16.305 13.7477 16.305 14.9927C16.305 15.6152 16.56 16.1777 16.965 16.5827C17.37 16.9877 17.9325 17.2427 18.555 17.2427H20.055C21.3 17.2427 22.305 16.2377 22.305 14.9927C22.305 14.3702 22.05 13.8077 21.645 13.4027ZM17.805 15.7427C17.3925 15.7427 17.055 15.4052 17.055 14.9927C17.055 14.5802 17.3925 14.2427 17.805 14.2427C18.2175 14.2427 18.555 14.5802 18.555 14.9927C18.555 15.4052 18.2175 15.7427 17.805 15.7427Z" fill="#FEC75E"/>
<path d="M19.305 6.7425H8.82751L12 3.5625L14.07 1.5L19.305 6.7425Z" fill="#FEC75E"/>
<path d="M10.35 3.5625L7.16999 6.7425H3.36749C3.25499 6.7425 3.13499 6.75 3.02249 6.765L8.28749 1.5L10.35 3.5625Z" fill="#FEC75E"/>
</svg>
