<svg width="24" height="24" viewBox="0 0 24 24" fill="none" xmlns="http://www.w3.org/2000/svg">
<path d="M21.0675 13.4998C20.6325 18.6448 16.2225 22.6648 10.92 22.4623C5.6175 22.2598 1.7025 18.0973 1.5 13.0498C1.305 7.74726 5.325 3.33726 10.47 2.90226C10.9125 2.86476 11.3025 3.20226 11.3025 3.65226V11.9173C11.3025 12.3298 11.64 12.6673 12.0525 12.6673H20.3175C20.76 12.6673 21.105 13.0573 21.0675 13.4998Z" fill="#BDBDBD"/>
<path d="M21.7125 11.2649H13.4475C13.035 11.2649 12.6975 10.9274 12.6975 10.5149V2.24986C12.6975 1.80736 13.0875 1.46236 13.53 1.49986C18.285 1.89736 22.0725 5.68486 22.47 10.4399C22.5075 10.8824 22.1625 11.2649 21.72 11.2649H21.7125Z" fill="#BDBDBD"/>
</svg>
