<svg width="85" height="15" viewBox="0 0 85 15" fill="none" xmlns="http://www.w3.org/2000/svg">
<path d="M74.3757 0L72.6885 0.4531C72.0443 0.623438 71.3864 1.1072 71.3864 1.76811V4.65364L73.0737 4.20054C73.7179 4.02679 74.3757 3.54644 74.3757 2.88553V0Z" fill="white"/>
<path d="M2.21218 7.43694H3.80059C4.65615 7.43694 5.32765 7.3177 5.81849 7.07922C6.30592 6.83053 6.55134 6.39106 6.55134 5.76081C6.55134 5.16803 6.29569 4.74559 5.7844 4.49349C5.28675 4.2448 4.62888 4.11875 3.82104 4.11875C3.47677 4.11875 3.16659 4.12556 2.8939 4.13578C2.63144 4.146 2.40648 4.16644 2.21559 4.19029V7.43694H2.21218ZM2.21218 9.20164V12.9661C2.46101 12.99 2.73029 13.007 3.01662 13.0206C3.30294 13.0308 3.56199 13.0377 3.80059 13.0377C4.26416 13.0377 4.69365 13.007 5.08564 12.9491C5.49127 12.8912 5.83553 12.789 6.12185 12.6459C6.4184 12.4926 6.65019 12.2882 6.81721 12.0395C6.99446 11.7908 7.08649 11.4671 7.08649 11.0754C7.08649 10.3736 6.83085 9.8864 6.31956 9.61386C5.80827 9.34132 5.09927 9.20164 4.19599 9.20164H2.21218ZM3.72901 14.908C3.07456 14.908 2.41329 14.8841 1.74862 14.8364C1.08394 14.8024 0.501065 14.7172 0 14.5877V2.5857C0.262463 2.53801 0.541965 2.49713 0.838514 2.45965C1.13506 2.41196 1.43843 2.37789 1.74862 2.35405C2.0588 2.3302 2.36216 2.31316 2.65871 2.29954C2.96889 2.28932 3.25862 2.2825 3.53131 2.2825C4.2812 2.2825 4.97656 2.34042 5.62079 2.45965C6.2616 2.56526 6.81721 2.74923 7.28078 3.01155C7.75798 3.27387 8.12611 3.61796 8.38857 4.04721C8.65104 4.47646 8.78057 5.0045 8.78057 5.63475C8.78057 6.21731 8.63741 6.71811 8.35108 7.13373C8.07839 7.54936 7.68982 7.88322 7.19216 8.13191C7.94205 8.38061 8.49424 8.74854 8.85215 9.23911C9.21005 9.72628 9.3873 10.3463 9.3873 11.0924C9.3873 12.3665 8.92373 13.3238 7.99658 13.9643C7.06944 14.5945 5.64806 14.908 3.73243 14.908H3.72901Z" fill="white"/>
<path d="M19.2552 14.4822C18.8394 14.5878 18.2974 14.6968 17.6327 14.8024C16.9681 14.9217 16.2352 14.9796 15.4376 14.9796C14.6877 14.9796 14.0571 14.874 13.5458 14.6593C13.0482 14.4447 12.6425 14.1483 12.3323 13.7668C12.0358 13.3852 11.8211 12.9355 11.6915 12.4109C11.562 11.876 11.4938 11.2935 11.4938 10.6632V5.43723H13.6515V10.3225C13.6515 11.3207 13.7946 12.0361 14.081 12.462C14.3775 12.8912 14.8888 13.1024 15.6148 13.1024C15.8773 13.1024 16.15 13.0922 16.4363 13.065C16.7329 13.0411 16.9544 13.0105 17.0976 12.9764V5.43042H19.2552V14.4822Z" fill="white"/>
<path d="M27.3404 7.38244C27.1632 7.32112 26.911 7.2632 26.5906 7.20529C26.2804 7.13375 25.9191 7.09968 25.5032 7.09968C25.2646 7.09968 25.009 7.12353 24.7363 7.17122C24.4738 7.21892 24.2897 7.2598 24.1841 7.29727V14.7717H22.0264V5.89028C22.4423 5.73697 22.9604 5.59389 23.5773 5.46103C24.2079 5.31794 24.9033 5.2464 25.6668 5.2464C25.81 5.2464 25.977 5.25662 26.1679 5.28387C26.3588 5.29409 26.5497 5.31794 26.7405 5.35542C26.9314 5.37927 27.1155 5.41333 27.2927 5.46103C27.47 5.49509 27.6131 5.53257 27.7222 5.56664L27.3473 7.38585H27.3404V7.38244Z" fill="white"/>
<path d="M31.5398 13.2149C32.1125 13.2149 32.5283 13.1502 32.7874 13.0173C33.0499 12.8742 33.1794 12.6357 33.1794 12.3053C33.1794 11.9953 33.0362 11.7398 32.7499 11.5388C32.4772 11.3378 32.017 11.1163 31.3762 10.8778C30.9842 10.7348 30.6195 10.5883 30.2889 10.4316C29.9685 10.2646 29.689 10.0738 29.4504 9.85922C29.2118 9.6446 29.0209 9.38909 28.8777 9.0927C28.7482 8.78269 28.68 8.40794 28.68 7.96847C28.68 7.11337 28.997 6.43883 29.6276 5.95167C30.2582 5.45087 31.1138 5.20218 32.1977 5.20218C32.7431 5.20218 33.268 5.25669 33.7691 5.3623C34.2701 5.45769 34.6451 5.55307 34.8939 5.64846L34.5019 7.39613C34.2633 7.29052 33.9599 7.19513 33.5918 7.10996C33.2237 7.01457 32.7942 6.96688 32.3068 6.96688C31.8671 6.96688 31.5092 7.04524 31.2365 7.19854C30.9638 7.34163 30.8274 7.56647 30.8274 7.87648C30.8274 8.02979 30.8513 8.16606 30.899 8.2853C30.957 8.40453 31.0524 8.51696 31.1853 8.62257C31.3149 8.71796 31.4887 8.82016 31.7035 8.92577C31.9182 9.02116 32.1807 9.12336 32.4874 9.22897C32.9987 9.41975 33.4316 9.61053 33.7895 9.80131C34.1474 9.97846 34.4372 10.1863 34.6621 10.4247C34.9007 10.6496 35.0712 10.9119 35.1802 11.2083C35.2859 11.5047 35.3404 11.8624 35.3404 12.278C35.3404 13.1706 35.0064 13.8485 34.3417 14.3119C33.6873 14.765 32.7465 14.9898 31.5228 14.9898C30.7013 14.9898 30.0401 14.9183 29.5424 14.7752C29.0413 14.6457 28.6902 14.5367 28.4891 14.4549L28.8641 12.6528C29.1845 12.7822 29.5663 12.9083 30.006 13.0275C30.4593 13.1467 30.9706 13.2047 31.5398 13.2047V13.2149Z" fill="white"/>
<path d="M40.4636 5.2056C41.176 5.2056 41.7793 5.29417 42.2667 5.47473C42.7541 5.65188 43.1393 5.90399 43.4256 6.22422C43.7222 6.54446 43.9301 6.93623 44.0494 7.40296C44.1789 7.85606 44.2471 8.35345 44.2471 8.90194V14.5572C43.9131 14.6287 43.4086 14.7105 42.7303 14.8059C42.0656 14.9115 41.3089 14.966 40.4636 14.966C39.9045 14.966 39.3933 14.9115 38.9297 14.8059C38.4661 14.7002 38.0673 14.5265 37.7333 14.288C37.4129 14.0496 37.1572 13.7429 36.9663 13.3614C36.7891 12.9798 36.6971 12.5097 36.6971 11.9544C36.6971 11.3991 36.7993 10.9664 37.0004 10.5985C37.2152 10.2306 37.5015 9.93419 37.856 9.70593C38.2139 9.46746 38.6229 9.30053 39.0865 9.20514C39.5637 9.09953 40.0545 9.04502 40.5692 9.04502C40.8078 9.04502 41.0567 9.06205 41.3191 9.09952C41.5816 9.12337 41.8611 9.17107 42.1576 9.24261V8.8849C42.1576 8.63621 42.127 8.39774 42.069 8.17289C42.0111 7.94804 41.902 7.75045 41.7486 7.58352C41.6054 7.40636 41.4112 7.26669 41.1589 7.17471C40.9203 7.07932 40.6169 7.03162 40.2488 7.03162C39.7477 7.03162 39.291 7.0691 38.8751 7.13723C38.4593 7.20877 38.1184 7.29053 37.8594 7.38592L37.5935 5.63826C37.8662 5.54287 38.265 5.44747 38.7899 5.35209C39.3149 5.2567 39.8739 5.209 40.467 5.209H40.4636V5.2056ZM40.6408 13.249C41.3055 13.249 41.8134 13.2149 42.1576 13.1434V10.7552C42.0383 10.7177 41.8679 10.6837 41.6395 10.6496C41.4146 10.6121 41.1623 10.5951 40.8896 10.5951C40.651 10.5951 40.409 10.6121 40.1568 10.6496C39.9182 10.6837 39.7 10.7518 39.4955 10.8472C39.3046 10.9426 39.1512 11.0789 39.0319 11.256C38.9126 11.4229 38.8547 11.6376 38.8547 11.8999C38.8547 12.4109 39.0149 12.7686 39.3353 12.9696C39.6557 13.1604 40.092 13.2558 40.6374 13.2558V13.249H40.6408Z" fill="white"/>
<path d="M49.0328 9.07904C49.3055 8.79287 49.5986 8.48967 49.9054 8.16944C50.2156 7.83557 50.5189 7.50852 50.8155 7.18829C51.112 6.85442 51.3916 6.541 51.654 6.24462C51.9267 5.9346 52.1585 5.66887 52.3494 5.44062H54.9024C54.3059 6.10494 53.6753 6.79651 53.0106 7.50852C52.3562 8.22054 51.6949 8.91893 51.0302 9.59346C51.3881 9.88985 51.7631 10.2544 52.1551 10.6802C52.5471 11.0958 52.9288 11.5421 53.297 12.0191C53.6651 12.496 54.0094 12.9696 54.3332 13.4465C54.6536 13.9235 54.9229 14.3629 55.1376 14.7649H52.6391C52.4244 14.397 52.1755 14.0086 51.8892 13.6066C51.6165 13.2012 51.3166 12.8094 50.9962 12.4279C50.6757 12.0463 50.3485 11.692 50.0145 11.3582C49.6804 11.0141 49.3532 10.7211 49.0328 10.486V14.7649H46.8752V1.28096L49.0328 0.923248V9.07904Z" fill="white"/>
<path d="M64.3545 14.4822C63.9387 14.5878 63.3967 14.6968 62.732 14.8024C62.0673 14.9217 61.3345 14.9796 60.5369 14.9796C59.787 14.9796 59.1564 14.874 58.6451 14.6593C58.144 14.4447 57.7418 14.1483 57.4316 13.7668C57.1351 13.3852 56.9203 12.9355 56.7908 12.4109C56.6613 11.876 56.5931 11.2935 56.5931 10.6632V5.43723H58.7508V10.3225C58.7508 11.3207 58.8939 12.0361 59.1802 12.462C59.4768 12.8912 59.9881 13.1024 60.7141 13.1024C60.9766 13.1024 61.2493 13.0922 61.5356 13.065C61.8321 13.0411 62.0537 13.0105 62.1969 12.9764V5.43042H64.3545V14.4822Z" fill="white"/>
<path d="M69.5492 13.5896C69.5492 14.0052 69.4061 14.3459 69.1197 14.6048C68.8471 14.8671 68.513 14.9966 68.121 14.9966C67.729 14.9966 67.378 14.8671 67.1053 14.6048C66.8326 14.3425 66.6962 14.0052 66.6962 13.5896C66.6962 13.1739 66.8326 12.8333 67.1053 12.5743C67.378 12.3018 67.7188 12.1655 68.121 12.1655C68.5232 12.1655 68.8471 12.3018 69.1197 12.5743C69.4061 12.8367 69.5492 13.1739 69.5492 13.5896Z" fill="white"/>
<path d="M74.0383 5.44064H71.8806V14.7684H74.0383V5.44064Z" fill="white"/>
<path d="M84.6629 14.4822C84.2335 14.6116 83.6949 14.7309 83.0405 14.8399C82.3996 14.9455 81.7213 15 81.0055 15C80.2897 15 79.608 14.8876 79.0251 14.6627C78.4422 14.4379 77.9412 14.1142 77.5253 13.6986C77.1197 13.2694 76.8061 12.7584 76.5812 12.1656C76.3664 11.5592 76.2607 10.8812 76.2607 10.1317C76.2607 9.38225 76.3494 8.72816 76.53 8.13538C76.7209 7.52897 76.9936 7.01114 77.3515 6.58189C77.7094 6.15264 78.1423 5.82559 78.6536 5.60075C79.1649 5.36227 79.7546 5.24303 80.4192 5.24303C80.8726 5.24303 81.2714 5.29754 81.6156 5.40315C81.9599 5.50876 82.2565 5.628 82.5087 5.76086V1.28438L84.6664 0.926666V14.4822H84.6629ZM78.4695 10.0772C78.4695 11.0277 78.6945 11.7772 79.1478 12.3257C79.6012 12.8606 80.2249 13.1297 81.0226 13.1297C81.3668 13.1297 81.66 13.1195 81.8952 13.0956C82.144 13.0582 82.3485 13.0241 82.5019 12.99V7.63799C82.311 7.50853 82.0554 7.38929 81.735 7.28028C81.4248 7.16104 81.0941 7.10312 80.7362 7.10312C79.9523 7.10312 79.3728 7.36885 79.0047 7.90712C78.6468 8.44198 78.4695 9.16762 78.4695 10.084V10.0772Z" fill="white"/>
</svg>
