<svg width="20" height="20" viewBox="0 0 20 20" fill="none" xmlns="http://www.w3.org/2000/svg">
<path d="M18.169 7.25625L18.1002 6.60625C18.0065 5.69375 17.2002 5 16.2377 5H12.9315L12.594 3.9875C12.4252 3.475 11.9377 3.125 11.394 3.125H8.21895C7.6752 3.125 7.1877 3.475 7.01895 3.9875L6.68145 5H5.43145V4.78125C5.43145 4.55625 5.2502 4.375 5.0252 4.375H3.9627C3.7377 4.375 3.55645 4.55625 3.55645 4.78125V5H3.3752C2.4127 5 1.60645 5.69375 1.5127 6.60625L1.44395 7.25625C1.1877 9.6875 1.1877 12.1375 1.4377 14.5625L1.5127 15.2688C1.60645 16.1813 2.4127 16.875 3.38145 16.875H16.2315C17.2002 16.875 18.0065 16.1813 18.1002 15.2688L18.1752 14.5625C18.4252 12.1375 18.4252 9.6875 18.169 7.25625ZM8.55645 4.7C8.55645 4.51875 8.7002 4.375 8.88145 4.375H10.7315C10.9127 4.375 11.0565 4.51875 11.0565 4.7V5.3C11.0565 5.48125 10.9127 5.625 10.7315 5.625H8.88145C8.7002 5.625 8.55645 5.48125 8.55645 5.3V4.7ZM9.80645 15C7.7377 15 6.05645 13.3188 6.05645 11.25C6.05645 9.18125 7.7377 7.5 9.80645 7.5C11.8752 7.5 13.5565 9.18125 13.5565 11.25C13.5565 13.3188 11.8752 15 9.80645 15ZM16.0565 7.5C15.7127 7.5 15.4315 7.21875 15.4315 6.875C15.4315 6.53125 15.7127 6.25 16.0565 6.25C16.4002 6.25 16.6815 6.53125 16.6815 6.875C16.6815 7.21875 16.4002 7.5 16.0565 7.5ZM9.80645 8.75C8.4252 8.75 7.30645 9.86875 7.30645 11.25C7.30645 12.6313 8.4252 13.75 9.80645 13.75C11.1877 13.75 12.3065 12.6313 12.3065 11.25C12.3065 9.86875 11.1877 8.75 9.80645 8.75Z" fill="white"/>
</svg>
