<svg width="24" height="24" viewBox="0 0 24 24" fill="none" xmlns="http://www.w3.org/2000/svg">
<path d="M11.9914 13.6992C15.3539 13.6992 18.0797 10.9683 18.0797 7.59959C18.0797 4.23088 15.3539 1.5 11.9914 1.5C8.62895 1.5 5.90314 4.23088 5.90314 7.59959C5.90314 10.9683 8.62895 13.6992 11.9914 13.6992Z" fill="#BDBDBD"/>
<path d="M21.7324 20.67C21.7324 21.1928 21.4715 21.6285 21.1236 21.9771C20.7757 22.3256 20.3408 22.4999 19.819 22.4999H4.16345C3.20673 22.4999 2.33698 21.7157 2.25 20.7572C2.25 20.4958 2.25 20.2343 2.25 20.0601C2.25 17.6202 3.38068 15.3547 5.12018 13.9605C5.72901 13.4377 6.59876 13.4377 7.20759 13.9605C8.51222 15.0061 10.1647 15.6161 11.9912 15.6161C13.8177 15.6161 15.4702 15.0061 16.7749 13.9605C17.3837 13.4377 18.2534 13.4377 18.8623 13.9605C20.7757 15.4418 21.9064 17.8816 21.7324 20.67Z" fill="#BDBDBD"/>
</svg>
