<svg width="7" height="5" viewBox="0 0 7 5" fill="none" xmlns="http://www.w3.org/2000/svg">
<path d="M6.56142 0.0831796C5.92172 2.38313 2.90014 4.68923 0.118635 4.99999C-0.00772556 4.88307 0.0191236 4.73077 0.0175441 4.58616C0.0112261 3.94771 0.0143875 3.30926 0.000171948 2.67082C-0.00456656 2.46313 0.088619 2.36159 0.281318 2.30005C0.59248 2.20006 0.905225 2.1016 1.20375 1.97391C2.07564 1.60007 2.79273 1.02931 3.37873 0.301636C3.50509 0.144716 3.62039 -0.00451094 3.86047 0.000104343C4.74183 0.0154886 5.62478 0.0216425 6.50772 0.0339499C6.52509 0.0339499 6.54246 0.0662572 6.55984 0.0847183L6.56142 0.0831796Z" fill="#015596"/>
</svg>
