<svg width="24" height="24" viewBox="0 0 24 24" fill="none" xmlns="http://www.w3.org/2000/svg">
<path d="M14.8275 13.8675C15.015 15.8175 16.7625 17.25 18.72 17.25H20.055C20.31 17.25 20.565 17.2275 20.805 17.175V18.75C20.805 19.995 19.8 21 19.305 21H4.0725C2.925 21 1.965 20.1375 1.8375 18.9975C1.4025 15.4275 1.365 12 1.86 8.775C1.9725 7.6275 2.94 6.75 4.1025 6.75H18.57C19.815 6.75 20.82 7.755 20.82 9V9.825C20.58 9.7725 20.325 9.75 20.07 9.75H18.57C16.38 9.75 14.625 11.6325 14.835 13.8675H14.8275Z" fill="white"/>
<path d="M21.6525 11.91C21.2475 11.505 20.685 11.25 20.0625 11.25H18.5625C17.3175 11.25 16.3125 12.255 16.3125 13.5C16.3125 14.1225 16.5675 14.685 16.9725 15.09C17.3775 15.495 17.94 15.75 18.5625 15.75H20.0625C21.3075 15.75 22.3125 14.745 22.3125 13.5C22.3125 12.8775 22.0575 12.315 21.6525 11.91ZM17.8125 14.25C17.4 14.25 17.0625 13.9125 17.0625 13.5C17.0625 13.0875 17.4 12.75 17.8125 12.75C18.225 12.75 18.5625 13.0875 18.5625 13.5C18.5625 13.9125 18.225 14.25 17.8125 14.25Z" fill="white"/>
<path d="M17.0625 5.25H3.9375C3.24 5.25 2.58 5.5275 2.0625 6.0075V5.25C2.0625 4.005 2.9025 3 3.9375 3H15.1875C16.2225 3 17.0625 4.005 17.0625 5.25Z" fill="white"/>
</svg>
