<svg width="14" height="16" viewBox="0 0 14 16" fill="none" xmlns="http://www.w3.org/2000/svg">
<path d="M13.6541 0.520032C13.726 1.03582 13.7494 14.9506 13.6805 15.9894C13.4428 16.0494 13.3607 15.8408 13.2404 15.7279C10.3418 13.0004 7.44608 10.2671 4.55185 7.53531C3.99589 7.01095 3.44139 6.48516 2.88543 5.96366C2.80182 5.88508 2.7138 5.80935 2.61698 5.74934C2.5495 5.70791 2.47176 5.75506 2.46442 5.82364C2.44682 5.98223 2.44829 6.14226 2.44976 6.30228C2.45562 7.46673 2.46442 8.62975 2.47029 9.7942C2.47029 9.95422 2.47616 10.1142 2.47029 10.2728C2.46296 10.52 2.42188 10.5715 2.19745 10.5715C1.54173 10.5715 0.884552 10.5629 0.228839 10.5557C0.0938824 10.5557 0.0117366 10.4872 0.00586893 10.3514C1.2536e-06 10.2371 0 10.1228 0 10.0099V0.494314C0 0.357152 2.14872e-06 0.219989 0.020539 0.0856848C0.0308074 0.0185324 0.118821 -0.0286171 0.178964 0.0199612C0.340325 0.151408 0.491418 0.294286 0.642511 0.438592C3.96361 3.62761 7.28472 6.81664 10.6058 10.0071C10.7056 10.1028 10.8039 10.2014 10.9065 10.2957C10.9902 10.3714 11.0694 10.5057 11.1853 10.47C11.3584 10.4143 11.285 10.2385 11.285 10.1157C11.2762 7.42244 11.2586 4.73063 11.2557 2.03739C11.2557 1.54018 11.1779 1.04011 11.3026 0.54575C11.8248 0.368582 12.3647 0.494314 12.8957 0.468596C13.148 0.457166 13.4106 0.414303 13.6555 0.524318V0.520032H13.6541Z" fill="#015596"/>
</svg>
