<svg width="24" height="24" viewBox="0 0 24 24" fill="none" xmlns="http://www.w3.org/2000/svg">
<path d="M12 1.5C6.2025 1.5 1.5 6.2025 1.5 12C1.5 17.7975 6.2025 22.5 12 22.5C17.7975 22.5 22.5 17.7975 22.5 12C22.5 6.2025 17.7975 1.5 12 1.5ZM15.5325 14.6775C15.825 14.97 15.825 15.45 15.5325 15.7425C15.3825 15.885 15.195 15.96 15 15.96C14.805 15.96 14.6175 15.885 14.4675 15.7425L11.7675 13.0425L9.06 15.7425C8.91 15.885 8.715 15.96 8.5275 15.96C8.34 15.96 8.145 15.885 7.995 15.7425C7.7025 15.45 7.7025 14.97 7.995 14.6775L10.7025 11.9775L7.995 9.27C7.7025 8.9775 7.7025 8.4975 7.995 8.205C8.2875 7.9125 8.7675 7.9125 9.06 8.205L11.7675 10.9125L14.4675 8.205C14.76 7.9125 15.24 7.9125 15.5325 8.205C15.825 8.4975 15.825 8.9775 15.5325 9.27L12.8325 11.9775L15.5325 14.6775Z" fill="#C17F00"/>
</svg>
