<svg width="32" height="32" viewBox="0 0 32 32" fill="none" xmlns="http://www.w3.org/2000/svg">
<path d="M29.48 5.06V6.09C28.62 5.44 27.57 5.06 26.42 5.06H8.06999C6.92999 5.06 5.85999 5.44 5.00999 6.09V5.06C5.00999 3.37 6.37999 2 8.06999 2H26.42C28.11 2 29.48 3.37 29.48 5.06Z" fill="#015596"/>
<path d="M25.4 20.3501H29.76C29.69 21.0401 29.47 22.7201 29.44 22.8801C29.33 23.5301 29.02 24.1101 28.58 24.5501C28.03 25.1001 27.27 25.4501 26.42 25.4501H18.53C18.84 24.5201 19 23.5301 19 22.5001C19 17.2601 14.74 13.0001 9.5 13.0001C7.69 13.0001 5.99 13.5101 4.55 14.3801C4.68 12.0301 5.01 10.0201 5.02 9.9701C5.11 8.3701 6.44 7.1001 8.07 7.1001H26.42C28 7.1001 29.29 8.2801 29.46 9.8101C29.47 9.9201 29.7 11.6401 29.77 12.2001H25.4C23.15 12.2001 21.32 14.0201 21.32 16.2701C21.32 18.5201 23.15 20.3501 25.4 20.3501Z" fill="#015596"/>
<path d="M29.94 14.2402H25.4C24.28 14.2402 23.36 15.1602 23.36 16.2802C23.36 17.4002 24.28 18.3202 25.4 18.3202H29.94C30.02 16.9602 30.02 15.6002 29.94 14.2402ZM25.4 17.3002C24.84 17.3002 24.38 16.8402 24.38 16.2802C24.38 15.7202 24.84 15.2602 25.4 15.2602C25.96 15.2602 26.42 15.7202 26.42 16.2802C26.42 16.8402 25.96 17.3002 25.4 17.3002Z" fill="#015596"/>
<path d="M9.5 15C5.36 15 2 18.36 2 22.5C2 26.64 5.36 30 9.5 30C13.64 30 17 26.64 17 22.5C17 18.36 13.64 15 9.5 15ZM13.79 22.6C13.6 22.88 13.29 23.02 12.98 23.02C12.78 23.02 12.57 22.96 12.4 22.83L10.5 21.48V26C10.5 26.55 10.05 27 9.5 27C8.95 27 8.5 26.55 8.5 26V21.45L6.58 22.81C6.13 23.14 5.51 23.03 5.19 22.58C4.87 22.13 4.97 21.51 5.42 21.19L8.9 18.71C9.25 18.46 9.71 18.46 10.06 18.71L13.56 21.21C14.01 21.53 14.11 22.15 13.79 22.6Z" fill="#015596"/>
</svg>
