<svg width="14" height="16" viewBox="0 0 14 16" fill="none" xmlns="http://www.w3.org/2000/svg">
<path d="M0.0277151 15.9921C-0.0320293 15.8248 0.0172586 15.7186 0.0590797 15.6124C0.88654 13.5263 6.61753 0.52498 6.93566 0.00562637C7.06113 -0.0249238 7.09996 0.0754554 7.13282 0.149649C8.20523 2.60676 9.27317 5.06532 10.3411 7.52388C10.3486 7.54279 10.3396 7.56753 10.3381 7.59662C10.2754 7.73337 10.141 7.69409 10.0304 7.69555C9.38519 7.70282 8.74144 7.69991 8.0962 7.713C7.86917 7.71737 7.74222 7.6199 7.66455 7.42641C7.47337 6.9507 7.27621 6.4779 7.08354 6.00219C7.03126 5.87417 6.9984 5.73597 6.87742 5.65159C6.72357 5.67341 6.69669 5.79561 6.65636 5.89163C6.10223 7.20092 5.55258 8.51167 5.00443 9.82387C4.96858 9.90825 4.94319 9.99699 4.92377 10.0857C4.90585 10.1687 4.97605 10.2312 5.03579 10.237C5.22548 10.2559 5.41666 10.2559 5.60785 10.2574C7.39869 10.2618 9.18953 10.2763 10.9804 10.2574C11.3941 10.253 11.6151 10.3592 11.7794 10.7535C12.4426 12.345 13.1461 13.922 13.8347 15.5033C13.8899 15.6299 13.9721 15.7506 13.9497 15.9019C13.878 16.0314 13.748 15.9892 13.639 15.9906C12.9937 15.995 12.35 15.9936 11.7048 15.9906C11.0252 15.9906 11.1521 16.0168 10.9311 15.4931C10.5875 14.677 10.2679 13.8521 9.93484 13.0302C9.6406 12.3028 9.78548 12.3726 8.98789 12.3712C7.48382 12.3683 5.97975 12.3886 4.47569 12.3595C4.03806 12.3508 3.84688 12.5094 3.7005 12.8847C3.35399 13.775 2.94623 14.6421 2.60718 15.5338C2.4638 15.9121 2.25021 16.0168 1.86336 15.9979C1.2465 15.9688 0.626653 15.9906 0.0277151 15.9906V15.9921Z" fill="#015596"/>
</svg>
