<svg width="300" height="200" viewBox="0 0 300 200" fill="none" xmlns="http://www.w3.org/2000/svg">
<path d="M60.43 84.16H245.6C253.98 84.16 260.79 90.97 260.79 99.35V162.5C260.79 170.88 253.98 177.69 245.6 177.69H45.24V99.35C45.24 90.97 52.05 84.16 60.43 84.16Z" fill="#F4EADC"/>
<path d="M234.56 72.73H248.32C252.54 72.73 255.97 76.16 255.97 80.38V166.33C255.97 172.59 250.89 177.67 244.63 177.67H234.55V72.73H234.56Z" fill="#005499"/>
<path d="M245.36 177.66L205.59 177.74C201.3 177.74 197.81 174.26 197.8 169.99L197.74 142.12V136.34L197.63 79.83C197.63 75.97 200.75 72.84 204.6 72.81L245.94 72.73C249.8 72.73 252.93 75.85 252.95 79.71L253.05 127.65V129.38L253.07 155.46C252.33 156.34 251.64 157.31 251.05 158.37L250.93 80.48C250.93 77.46 248.47 75.01 245.46 75.02H238.97V74.08L211.76 74.13V75.08L205.28 75.09C202.26 75.09 199.82 77.55 199.83 80.57L200 168.6C200 171.78 202.59 174.35 205.76 174.34L245.38 174.27C248.56 174.26 251.13 171.68 251.12 168.5L251.09 153.29C251.09 153.29 251.13 153.37 251.16 153.41C251.19 153.46 251.86 154.28 253.11 154.7L253.13 162.7V163.63V169.86C253.13 174.17 249.66 177.66 245.36 177.66Z" fill="#DBBC7A"/>
<path d="M245.38 174.27L205.76 174.34C202.59 174.34 200.01 171.78 200 168.6L199.83 80.57C199.83 77.55 202.26 75.1 205.28 75.09H211.77L238.98 75.02H245.47C248.48 75 250.93 77.45 250.94 80.47L251.06 141.8L251.09 153.29L251.12 168.5C251.12 171.67 248.56 174.25 245.38 174.27Z" fill="white"/>
<path d="M236.54 79.07L214.23 79.11C212.87 79.11 211.77 78.02 211.77 76.66V75.07V74.12L238.98 74.07V75.02V76.61C238.98 77.97 237.89 79.07 236.53 79.07H236.54Z" fill="#DBBC7A"/>
<path d="M230.049 76.0242L217.629 76.0481C217.452 76.0484 217.309 76.192 217.31 76.3687L217.311 76.8487C217.311 77.0254 217.455 77.1684 217.631 77.1681L230.051 77.1442C230.228 77.1439 230.371 77.0004 230.371 76.8236L230.37 76.3436C230.369 76.1669 230.226 76.0239 230.049 76.0242Z" fill="white"/>
<path d="M232.22 77.27C232.601 77.27 232.91 76.961 232.91 76.58C232.91 76.1989 232.601 75.89 232.22 75.89C231.839 75.89 231.53 76.1989 231.53 76.58C231.53 76.961 231.839 77.27 232.22 77.27Z" fill="white"/>
<path d="M254.33 89.17H254.35C254.81 89.17 255.19 89.55 255.19 90.01V103.23C255.19 103.69 254.82 104.07 254.35 104.07H254.33C253.95 104.07 253.65 103.76 253.65 103.39V89.85C253.65 89.47 253.96 89.17 254.33 89.17Z" fill="#AA8555"/>
<path d="M254.6 89.17H254.59C254.264 89.17 254 89.4341 254 89.76V103.48C254 103.806 254.264 104.07 254.59 104.07H254.6C254.926 104.07 255.19 103.806 255.19 103.48V89.76C255.19 89.4341 254.926 89.17 254.6 89.17Z" fill="#DBBC7A"/>
<path d="M243.14 92.59H207.82C204.672 92.59 202.12 95.1419 202.12 98.29V112.54C202.12 115.688 204.672 118.24 207.82 118.24H243.14C246.288 118.24 248.84 115.688 248.84 112.54V98.29C248.84 95.1419 246.288 92.59 243.14 92.59Z" fill="#2E4882"/>
<path d="M222.7 97.48H208.08C207.246 97.48 206.57 98.156 206.57 98.99C206.57 99.8239 207.246 100.5 208.08 100.5H222.7C223.534 100.5 224.21 99.8239 224.21 98.99C224.21 98.156 223.534 97.48 222.7 97.48Z" fill="white"/>
<path d="M228.98 103H208.75C207.546 103 206.57 103.976 206.57 105.18V106.38C206.57 107.584 207.546 108.56 208.75 108.56H228.98C230.184 108.56 231.16 107.584 231.16 106.38V105.18C231.16 103.976 230.184 103 228.98 103Z" fill="white"/>
<path d="M213.23 112.99H210.16C208.106 112.99 206.44 114.655 206.44 116.71V119.78C206.44 121.834 208.106 123.5 210.16 123.5H213.23C215.284 123.5 216.95 121.834 216.95 119.78V116.71C216.95 114.655 215.284 112.99 213.23 112.99Z" fill="#E1EAFF"/>
<path d="M226.92 112.99H223.85C221.796 112.99 220.13 114.655 220.13 116.71V119.78C220.13 121.834 221.796 123.5 223.85 123.5H226.92C228.974 123.5 230.64 121.834 230.64 119.78V116.71C230.64 114.655 228.974 112.99 226.92 112.99Z" fill="#E1EAFF"/>
<path d="M240.61 112.99H237.54C235.485 112.99 233.82 114.655 233.82 116.71V119.78C233.82 121.834 235.485 123.5 237.54 123.5H240.61C242.665 123.5 244.33 121.834 244.33 119.78V116.71C244.33 114.655 242.665 112.99 240.61 112.99Z" fill="#E1EAFF"/>
<path d="M254.31 178.17C254.31 179 248.21 179.68 240.68 179.68C233.15 179.68 227.05 179 227.05 178.17C227.05 178.15 227.05 178.14 227.05 178.12V174.05H254.29V178.11C254.29 178.11 254.29 178.15 254.29 178.16L254.31 178.17Z" fill="#F49B51"/>
<path d="M240.68 175.59C248.208 175.59 254.31 174.914 254.31 174.08C254.31 173.246 248.208 172.57 240.68 172.57C233.152 172.57 227.05 173.246 227.05 174.08C227.05 174.914 233.152 175.59 240.68 175.59Z" fill="#FCC659"/>
<path d="M257.53 173.25C257.53 174.08 251.43 174.76 243.9 174.76C236.37 174.76 230.27 174.08 230.27 173.25C230.27 173.23 230.27 173.22 230.27 173.2V169.13H257.51V173.19C257.51 173.19 257.51 173.23 257.51 173.24L257.53 173.25Z" fill="#F49B51"/>
<path d="M243.9 170.68C251.428 170.68 257.53 170.004 257.53 169.17C257.53 168.336 251.428 167.66 243.9 167.66C236.372 167.66 230.27 168.336 230.27 169.17C230.27 170.004 236.372 170.68 243.9 170.68Z" fill="#FCC659"/>
<path d="M254.31 168.34C254.31 169.17 248.21 169.85 240.68 169.85C233.15 169.85 227.05 169.17 227.05 168.34C227.05 168.32 227.05 168.31 227.05 168.29V164.22H254.29V168.28C254.29 168.28 254.29 168.32 254.29 168.33L254.31 168.34Z" fill="#F49B51"/>
<path d="M240.68 165.76C248.208 165.76 254.31 165.084 254.31 164.25C254.31 163.416 248.208 162.74 240.68 162.74C233.152 162.74 227.05 163.416 227.05 164.25C227.05 165.084 233.152 165.76 240.68 165.76Z" fill="#FCC659"/>
<path d="M259.14 163.42C259.14 164.25 253.04 164.93 245.51 164.93C237.98 164.93 231.88 164.25 231.88 163.42C231.88 163.4 231.88 163.39 231.88 163.37V159.3H259.12V163.36C259.12 163.36 259.12 163.4 259.12 163.41L259.14 163.42Z" fill="#F49B51"/>
<path d="M245.51 160.85C253.038 160.85 259.14 160.174 259.14 159.34C259.14 158.506 253.038 157.83 245.51 157.83C237.982 157.83 231.88 158.506 231.88 159.34C231.88 160.174 237.982 160.85 245.51 160.85Z" fill="#FCC659"/>
<path d="M256.61 159.34C256.61 159.9 251.64 160.35 245.51 160.35C239.38 160.35 234.41 159.9 234.41 159.34C234.41 158.78 239.38 158.33 245.51 158.33C251.64 158.33 256.61 158.78 256.61 159.34Z" fill="#F49B51"/>
<path d="M210.15 152.08C202.55 151.87 196.22 157.87 196.02 165.47C195.81 173.07 201.81 179.4 209.41 179.6C217.01 179.81 223.34 173.81 223.54 166.21C223.75 158.61 217.75 152.28 210.15 152.08ZM220.85 166.14C220.77 169.1 219.54 171.85 217.39 173.88C215.24 175.92 212.43 176.99 209.47 176.91C203.36 176.74 198.53 171.64 198.7 165.53C198.78 162.57 200.01 159.82 202.16 157.79C204.23 155.83 206.93 154.75 209.77 154.75C209.87 154.75 209.97 154.75 210.08 154.75C216.09 154.91 220.86 159.85 220.86 165.82C220.86 165.92 220.86 166.02 220.86 166.12L220.85 166.14Z" fill="#FCC659"/>
<path d="M220.85 165.84C220.85 165.94 220.85 166.04 220.85 166.14C220.77 169.1 219.54 171.85 217.39 173.88C215.24 175.92 212.43 176.99 209.47 176.91C203.36 176.74 198.53 171.64 198.7 165.53C198.78 162.57 200.01 159.82 202.16 157.79C204.23 155.83 206.93 154.75 209.77 154.75C209.87 154.75 209.97 154.75 210.08 154.75C216.09 154.91 220.86 159.85 220.86 165.82L220.85 165.84Z" fill="#F49B51"/>
<path d="M207.85 167.17C208.33 166.96 208.7 166.65 208.97 166.25C209.23 165.85 209.36 165.37 209.36 164.82C209.36 164.27 209.23 163.78 208.97 163.37C208.71 162.97 208.33 162.66 207.85 162.44C207.37 162.22 206.79 162.12 206.13 162.12H202.91V169.57H204.63V167.5H206.13C206.13 167.5 206.18 167.5 206.21 167.5L207.64 169.58H209.5L207.84 167.19C207.84 167.19 207.85 167.19 207.86 167.19L207.85 167.17ZM207.22 163.86C207.48 164.09 207.61 164.41 207.61 164.82C207.61 165.23 207.48 165.54 207.22 165.77C206.96 166 206.56 166.12 206.03 166.12H204.63V163.52H206.03C206.56 163.52 206.96 163.63 207.22 163.86Z" fill="#FCC659"/>
<path d="M216.78 163.37C216.52 162.97 216.14 162.66 215.66 162.44C215.18 162.22 214.6 162.12 213.94 162.12H210.72V169.57H212.44V167.52H213.94C214.61 167.52 215.18 167.41 215.66 167.2C216.14 166.99 216.51 166.67 216.78 166.27C217.04 165.87 217.17 165.39 217.17 164.83C217.17 164.27 217.04 163.79 216.78 163.38V163.37ZM215.04 165.76C214.78 165.99 214.38 166.1 213.85 166.1H212.45V163.52H213.85C214.38 163.52 214.78 163.63 215.04 163.86C215.3 164.09 215.43 164.41 215.43 164.82C215.43 165.23 215.3 165.54 215.04 165.77V165.76Z" fill="#FCC659"/>
<path d="M55.06 118.19H117.79C121.98 118.19 125.38 121.59 125.38 125.78V169.95C125.38 172.83 123.04 175.16 120.17 175.16H55.06C49.66 175.16 45.27 170.77 45.27 165.37V127.97C45.27 122.57 49.66 118.18 55.06 118.18V118.19Z" fill="#C6B59B"/>
<path d="M122.64 175.95H50.4C47.13 175.95 44.47 173.29 44.47 170.02V123.32C44.47 120.05 47.13 117.39 50.4 117.39H121.39C124.02 117.39 126.16 119.53 126.16 122.16V172.41C126.16 174.35 124.58 175.93 122.64 175.93V175.95ZM50.4 118.98C48 118.98 46.05 120.93 46.05 123.33V170.03C46.05 172.43 48 174.38 50.4 174.38H122.64C123.71 174.38 124.59 173.51 124.59 172.43V122.18C124.59 120.42 123.16 118.98 121.39 118.98H50.4Z" fill="#DBBC7A"/>
<path d="M93.9615 90.095L49.2016 158.132L81.1064 179.121L125.866 111.085L93.9615 90.095Z" fill="#DBBC7A"/>
<path d="M95.2666 93.97L53.2767 157.796L79.7847 175.235L121.775 111.409L95.2666 93.97Z" fill="#EDDDC0"/>
<path d="M55.2299 161.24C57.6324 161.24 59.5799 159.292 59.5799 156.89C59.5799 154.488 57.6324 152.54 55.2299 152.54C52.8275 152.54 50.8799 154.488 50.8799 156.89C50.8799 159.292 52.8275 161.24 55.2299 161.24Z" fill="#DBBC7A"/>
<path d="M87.53 145C93.2682 145 97.92 140.348 97.92 134.61C97.92 128.872 93.2682 124.22 87.53 124.22C81.7917 124.22 77.14 128.872 77.14 134.61C77.14 140.348 81.7917 145 87.53 145Z" fill="#DBBC7A"/>
<path d="M100.13 117.76C101.4 117.76 102.43 116.73 102.43 115.46C102.43 114.19 101.4 113.16 100.13 113.16C98.8597 113.16 97.83 114.19 97.83 115.46C97.83 116.73 98.8597 117.76 100.13 117.76Z" fill="#DBBC7A"/>
<path d="M74.16 157.23C75.4302 157.23 76.46 156.2 76.46 154.93C76.46 153.66 75.4302 152.63 74.16 152.63C72.8897 152.63 71.86 153.66 71.86 154.93C71.86 156.2 72.8897 157.23 74.16 157.23Z" fill="#DBBC7A"/>
<path d="M95.2 100.48C97.6024 100.48 99.55 98.5324 99.55 96.13C99.55 93.7275 97.6024 91.78 95.2 91.78C92.7975 91.78 90.85 93.7275 90.85 96.13C90.85 98.5324 92.7975 100.48 95.2 100.48Z" fill="#DBBC7A"/>
<path d="M79.85 177.44C82.2524 177.44 84.2 175.492 84.2 173.09C84.2 170.688 82.2524 168.74 79.85 168.74C77.4476 168.74 75.5 170.688 75.5 173.09C75.5 175.492 77.4476 177.44 79.85 177.44Z" fill="#DBBC7A"/>
<path d="M119.83 116.68C122.232 116.68 124.18 114.732 124.18 112.33C124.18 109.928 122.232 107.98 119.83 107.98C117.428 107.98 115.48 109.928 115.48 112.33C115.48 114.732 117.428 116.68 119.83 116.68Z" fill="#DBBC7A"/>
<path d="M87.63 136.39C87.7 135.98 87.66 135.59 87.51 135.24C87.36 134.89 87.1 134.59 86.73 134.35C86.36 134.11 85.98 133.98 85.6 133.98C85.22 133.98 84.85 134.09 84.49 134.32C84.13 134.55 83.81 134.88 83.52 135.32L82.11 137.46L87.06 140.72L87.81 139.57L86.43 138.66L87.09 137.66C87.09 137.66 87.11 137.62 87.12 137.61L89.13 137.57L89.94 136.33L87.62 136.39C87.62 136.39 87.62 136.39 87.62 136.38L87.63 136.39ZM85.15 135.36C85.42 135.29 85.69 135.34 85.96 135.52C86.23 135.7 86.38 135.92 86.42 136.2C86.46 136.48 86.36 136.79 86.13 137.14L85.52 138.07L83.79 136.93L84.4 136C84.63 135.65 84.88 135.43 85.15 135.36Z" fill="white"/>
<path d="M89.01 128.78C88.63 128.78 88.26 128.89 87.9 129.12C87.54 129.35 87.22 129.68 86.93 130.12L85.52 132.26L90.47 135.52L91.22 134.37L89.85 133.47L90.51 132.47C90.8 132.03 90.98 131.6 91.05 131.18C91.12 130.76 91.07 130.38 90.92 130.03C90.77 129.68 90.5 129.38 90.14 129.14C89.78 128.9 89.39 128.77 89.01 128.77V128.78ZM89.84 130.99C89.88 131.26 89.78 131.58 89.54 131.93L88.93 132.86L87.21 131.73L87.82 130.8C88.05 130.45 88.3 130.23 88.57 130.16C88.84 130.09 89.11 130.14 89.38 130.32C89.65 130.5 89.8 130.72 89.84 131V130.99Z" fill="white"/>
<path d="M69.0329 90.3244L53.2145 170.213L90.6772 177.631L106.496 97.7423L69.0329 90.3244Z" fill="#DBBC7A"/>
<path d="M71.7119 93.4239L56.8724 168.369L87.9981 174.532L102.838 99.5869L71.7119 93.4239Z" fill="#EDDDC0"/>
<path d="M58.33 171.14C60.7324 171.14 62.68 169.192 62.68 166.79C62.68 164.388 60.7324 162.44 58.33 162.44C55.9275 162.44 53.98 164.388 53.98 166.79C53.98 169.192 55.9275 171.14 58.33 171.14Z" fill="#DBBC7A"/>
<path d="M79.85 144.37C85.5882 144.37 90.24 139.718 90.24 133.98C90.24 128.242 85.5882 123.59 79.85 123.59C74.1117 123.59 69.46 128.242 69.46 133.98C69.46 139.718 74.1117 144.37 79.85 144.37Z" fill="#DBBC7A"/>
<path d="M84.31 113.8C85.5803 113.8 86.61 112.77 86.61 111.5C86.61 110.23 85.5803 109.2 84.31 109.2C83.0398 109.2 82.01 110.23 82.01 111.5C82.01 112.77 83.0398 113.8 84.31 113.8Z" fill="#DBBC7A"/>
<path d="M75.13 160.14C76.4002 160.14 77.43 159.11 77.43 157.84C77.43 156.57 76.4002 155.54 75.13 155.54C73.8597 155.54 72.83 156.57 72.83 157.84C72.83 159.11 73.8597 160.14 75.13 160.14Z" fill="#DBBC7A"/>
<path d="M72.46 99.8C74.8624 99.8 76.81 97.8524 76.81 95.45C76.81 93.0475 74.8624 91.1 72.46 91.1C70.0575 91.1 68.11 93.0475 68.11 95.45C68.11 97.8524 70.0575 99.8 72.46 99.8Z" fill="#DBBC7A"/>
<path d="M87.25 176.87C89.6524 176.87 91.6 174.922 91.6 172.52C91.6 170.118 89.6524 168.17 87.25 168.17C84.8475 168.17 82.9 170.118 82.9 172.52C82.9 174.922 84.8475 176.87 87.25 176.87Z" fill="#DBBC7A"/>
<path d="M101.38 105.52C103.782 105.52 105.73 103.572 105.73 101.17C105.73 98.7676 103.782 96.82 101.38 96.82C98.9775 96.82 97.03 98.7676 97.03 101.17C97.03 103.572 98.9775 105.52 101.38 105.52Z" fill="#DBBC7A"/>
<path d="M80.62 135.59C80.53 135.18 80.35 134.84 80.07 134.57C79.8 134.3 79.45 134.13 79.01 134.04C78.57 133.95 78.18 133.98 77.82 134.12C77.46 134.26 77.16 134.51 76.92 134.85C76.68 135.19 76.5 135.63 76.4 136.15L75.9 138.67L81.72 139.82L81.99 138.47L80.37 138.15L80.6 136.98C80.6 136.98 80.6 136.94 80.6 136.92L82.45 136.12L82.74 134.67L80.62 135.6C80.62 135.6 80.62 135.6 80.62 135.59ZM77.94 135.57C78.16 135.4 78.43 135.35 78.75 135.41C79.07 135.47 79.29 135.62 79.43 135.86C79.57 136.1 79.6 136.43 79.52 136.84L79.3 137.94L77.27 137.54L77.49 136.44C77.57 136.02 77.72 135.73 77.94 135.56V135.57Z" fill="white"/>
<path d="M79.03 128.02C78.67 128.16 78.37 128.41 78.13 128.75C77.89 129.09 77.71 129.53 77.61 130.05L77.11 132.57L82.93 133.72L83.2 132.37L81.6 132.05L81.83 130.88C81.93 130.36 81.94 129.89 81.84 129.48C81.74 129.07 81.56 128.73 81.29 128.46C81.01 128.19 80.66 128.02 80.23 127.93C79.8 127.84 79.4 127.87 79.04 128.01L79.03 128.02ZM80.63 129.75C80.77 129.99 80.79 130.32 80.71 130.73L80.49 131.83L78.47 131.43L78.69 130.33C78.77 129.91 78.92 129.62 79.14 129.45C79.36 129.28 79.63 129.23 79.95 129.29C80.27 129.35 80.49 129.5 80.63 129.74V129.75Z" fill="white"/>
<path d="M45.27 122.69H118.68C121.07 122.69 123.01 124.63 123.01 127.02V173.29C123.01 175.68 121.07 177.62 118.68 177.62H49.6C47.21 177.62 45.27 175.68 45.27 173.29V122.69Z" fill="#EDDDC0"/>
<path d="M120.73 178.41H47.54C45.85 178.41 44.48 177.04 44.48 175.35V121.9H120.74C122.43 121.9 123.8 123.27 123.8 124.96V175.34C123.8 177.03 122.43 178.4 120.74 178.4L120.73 178.41ZM46.05 123.48V175.35C46.05 176.17 46.72 176.84 47.54 176.84H120.73C121.55 176.84 122.22 176.17 122.22 175.35V124.97C122.22 124.15 121.55 123.48 120.73 123.48H46.05Z" fill="#DBBC7A"/>
<path d="M126.17 139.48C127.23 139.48 128.1 140.34 128.1 141.41V142.05H126.17V139.48Z" fill="#C6AC91"/>
<path d="M116.95 174.66H115.34C115.19 174.66 115.08 174.54 115.08 174.4C115.08 174.26 115.2 174.14 115.34 174.14H116.93C117.08 174.14 117.2 174.26 117.2 174.4C117.2 174.54 117.09 174.66 116.95 174.66ZM112.16 174.66H110.57C110.42 174.66 110.31 174.54 110.31 174.4C110.31 174.26 110.43 174.14 110.57 174.14H112.16C112.31 174.14 112.42 174.26 112.42 174.4C112.42 174.54 112.3 174.66 112.16 174.66ZM107.39 174.66H105.8C105.65 174.66 105.54 174.54 105.54 174.4C105.54 174.26 105.66 174.14 105.8 174.14H107.39C107.54 174.14 107.65 174.26 107.65 174.4C107.65 174.54 107.53 174.66 107.39 174.66ZM102.62 174.66H101.03C100.88 174.66 100.77 174.54 100.77 174.4C100.77 174.26 100.89 174.14 101.03 174.14H102.62C102.77 174.14 102.88 174.26 102.88 174.4C102.88 174.54 102.76 174.66 102.62 174.66ZM97.85 174.66H96.26C96.11 174.66 96 174.54 96 174.4C96 174.26 96.12 174.14 96.26 174.14H97.85C98 174.14 98.11 174.26 98.11 174.4C98.11 174.54 97.99 174.66 97.85 174.66ZM93.08 174.66H91.49C91.34 174.66 91.23 174.54 91.23 174.4C91.23 174.26 91.35 174.14 91.49 174.14H93.08C93.23 174.14 93.34 174.26 93.34 174.4C93.34 174.54 93.22 174.66 93.08 174.66ZM88.31 174.66H86.72C86.57 174.66 86.46 174.54 86.46 174.4C86.46 174.26 86.58 174.14 86.72 174.14H88.31C88.46 174.14 88.57 174.26 88.57 174.4C88.57 174.54 88.45 174.66 88.31 174.66ZM83.54 174.66H81.95C81.8 174.66 81.69 174.54 81.69 174.4C81.69 174.26 81.81 174.14 81.95 174.14H83.54C83.69 174.14 83.8 174.26 83.8 174.4C83.8 174.54 83.68 174.66 83.54 174.66ZM78.77 174.66H77.18C77.03 174.66 76.92 174.54 76.92 174.4C76.92 174.26 77.04 174.14 77.18 174.14H78.77C78.92 174.14 79.03 174.26 79.03 174.4C79.03 174.54 78.91 174.66 78.77 174.66ZM74 174.66H72.41C72.26 174.66 72.15 174.54 72.15 174.4C72.15 174.26 72.27 174.14 72.41 174.14H74C74.15 174.14 74.26 174.26 74.26 174.4C74.26 174.54 74.14 174.66 74 174.66ZM69.23 174.66H67.64C67.49 174.66 67.38 174.54 67.38 174.4C67.38 174.26 67.5 174.14 67.64 174.14H69.23C69.38 174.14 69.49 174.26 69.49 174.4C69.49 174.54 69.37 174.66 69.23 174.66ZM64.47 174.62C64.47 174.62 64.43 174.62 64.42 174.62C63.83 174.5 63.31 174.15 62.97 173.64C62.89 173.52 62.92 173.36 63.04 173.28C63.16 173.2 63.32 173.23 63.4 173.35C63.66 173.74 64.06 174.01 64.52 174.11C64.66 174.14 64.75 174.28 64.72 174.42C64.69 174.54 64.59 174.63 64.46 174.63L64.47 174.62ZM118.95 172.62C118.8 172.62 118.69 172.51 118.69 172.36V170.77C118.69 170.62 118.81 170.51 118.95 170.51C119.09 170.51 119.21 170.63 119.21 170.77V172.35C119.21 172.5 119.09 172.62 118.95 172.62ZM62.85 170.64C62.7 170.64 62.59 170.52 62.59 170.38V168.79C62.59 168.64 62.71 168.53 62.85 168.53C62.99 168.53 63.11 168.65 63.11 168.79V170.38C63.11 170.53 62.99 170.64 62.85 170.64ZM118.95 167.86C118.8 167.86 118.69 167.74 118.69 167.6V166.01C118.69 165.86 118.81 165.75 118.95 165.75C119.09 165.75 119.21 165.87 119.21 166.01V167.6C119.21 167.75 119.09 167.86 118.95 167.86ZM62.85 165.87C62.7 165.87 62.59 165.75 62.59 165.61V164.02C62.59 163.87 62.71 163.76 62.85 163.76C62.99 163.76 63.11 163.88 63.11 164.02V165.61C63.11 165.76 62.99 165.87 62.85 165.87ZM118.95 163.09C118.8 163.09 118.69 162.97 118.69 162.83V161.24C118.69 161.09 118.81 160.98 118.95 160.98C119.09 160.98 119.21 161.1 119.21 161.24V162.83C119.21 162.98 119.09 163.09 118.95 163.09ZM62.85 161.1C62.7 161.1 62.59 160.98 62.59 160.84V159.25C62.59 159.1 62.71 158.99 62.85 158.99C62.99 158.99 63.11 159.11 63.11 159.25V160.84C63.11 160.99 62.99 161.1 62.85 161.1ZM118.95 158.32C118.8 158.32 118.69 158.2 118.69 158.06V156.47C118.69 156.32 118.81 156.21 118.95 156.21C119.09 156.21 119.21 156.33 119.21 156.47V158.06C119.21 158.21 119.09 158.32 118.95 158.32ZM62.85 156.33C62.7 156.33 62.59 156.21 62.59 156.07V154.48C62.59 154.33 62.71 154.22 62.85 154.22C62.99 154.22 63.11 154.34 63.11 154.48V156.07C63.11 156.22 62.99 156.33 62.85 156.33ZM118.95 153.55C118.8 153.55 118.69 153.43 118.69 153.29V151.7C118.69 151.55 118.81 151.44 118.95 151.44C119.09 151.44 119.21 151.56 119.21 151.7V153.29C119.21 153.44 119.09 153.55 118.95 153.55ZM62.85 151.56C62.7 151.56 62.59 151.44 62.59 151.3V149.71C62.59 149.56 62.71 149.45 62.85 149.45C62.99 149.45 63.11 149.57 63.11 149.71V151.3C63.11 151.45 62.99 151.56 62.85 151.56ZM118.95 148.78C118.8 148.78 118.69 148.66 118.69 148.52V146.93C118.69 146.78 118.81 146.67 118.95 146.67C119.09 146.67 119.21 146.79 119.21 146.93V148.52C119.21 148.67 119.09 148.78 118.95 148.78ZM62.85 146.79C62.7 146.79 62.59 146.67 62.59 146.53V144.94C62.59 144.79 62.71 144.68 62.85 144.68C62.99 144.68 63.11 144.8 63.11 144.94V146.53C63.11 146.68 62.99 146.79 62.85 146.79ZM118.95 144.01C118.8 144.01 118.69 143.89 118.69 143.75V142.16C118.69 142.01 118.81 141.9 118.95 141.9C119.09 141.9 119.21 142.02 119.21 142.16V143.75C119.21 143.9 119.09 144.01 118.95 144.01ZM62.85 142.02C62.7 142.02 62.59 141.9 62.59 141.76V140.17C62.59 140.02 62.71 139.91 62.85 139.91C62.99 139.91 63.11 140.03 63.11 140.17V141.76C63.11 141.91 62.99 142.02 62.85 142.02ZM118.95 139.24C118.8 139.24 118.69 139.12 118.69 138.98V137.39C118.69 137.24 118.81 137.13 118.95 137.13C119.09 137.13 119.21 137.25 119.21 137.39V138.98C119.21 139.13 119.09 139.24 118.95 139.24ZM62.85 137.25C62.7 137.25 62.59 137.13 62.59 136.99V135.4C62.59 135.25 62.71 135.14 62.85 135.14C62.99 135.14 63.11 135.26 63.11 135.4V136.99C63.11 137.14 62.99 137.25 62.85 137.25ZM118.95 134.47C118.8 134.47 118.69 134.35 118.69 134.21V132.62C118.69 132.47 118.81 132.36 118.95 132.36C119.09 132.36 119.21 132.48 119.21 132.62V134.21C119.21 134.36 119.09 134.47 118.95 134.47ZM62.85 132.48C62.7 132.48 62.59 132.36 62.59 132.22V130.63C62.59 130.48 62.71 130.37 62.85 130.37C62.99 130.37 63.11 130.49 63.11 130.63V132.22C63.11 132.37 62.99 132.48 62.85 132.48ZM118.95 129.7C118.8 129.7 118.69 129.58 118.69 129.44V128.27C118.69 128.15 118.68 128.03 118.65 127.91C118.62 127.77 118.71 127.63 118.85 127.6C118.99 127.57 119.13 127.66 119.16 127.8C119.19 127.95 119.21 128.11 119.21 128.27V129.44C119.21 129.59 119.09 129.7 118.95 129.7ZM63.01 127.73C63.01 127.73 62.94 127.73 62.91 127.71C62.78 127.65 62.71 127.5 62.77 127.37C63 126.82 63.46 126.37 64.01 126.14C64.14 126.08 64.3 126.14 64.35 126.28C64.41 126.41 64.35 126.57 64.21 126.62C63.78 126.8 63.43 127.15 63.25 127.57C63.21 127.67 63.11 127.73 63.01 127.73ZM116.52 126.48H114.93C114.78 126.48 114.67 126.36 114.67 126.22C114.67 126.08 114.79 125.96 114.93 125.96H116.52C116.67 125.96 116.78 126.08 116.78 126.22C116.78 126.36 116.66 126.48 116.52 126.48ZM111.75 126.48H110.16C110.01 126.48 109.9 126.36 109.9 126.22C109.9 126.08 110.02 125.96 110.16 125.96H111.75C111.9 125.96 112.01 126.08 112.01 126.22C112.01 126.36 111.89 126.48 111.75 126.48ZM106.98 126.48H105.39C105.24 126.48 105.13 126.36 105.13 126.22C105.13 126.08 105.25 125.96 105.39 125.96H106.98C107.13 125.96 107.24 126.08 107.24 126.22C107.24 126.36 107.12 126.48 106.98 126.48ZM102.21 126.48H100.62C100.47 126.48 100.36 126.36 100.36 126.22C100.36 126.08 100.48 125.96 100.62 125.96H102.21C102.36 125.96 102.47 126.08 102.47 126.22C102.47 126.36 102.35 126.48 102.21 126.48ZM97.44 126.48H95.85C95.7 126.48 95.59 126.36 95.59 126.22C95.59 126.08 95.71 125.96 95.85 125.96H97.44C97.59 125.96 97.7 126.08 97.7 126.22C97.7 126.36 97.58 126.48 97.44 126.48ZM92.67 126.48H91.08C90.93 126.48 90.82 126.36 90.82 126.22C90.82 126.08 90.94 125.96 91.08 125.96H92.67C92.82 125.96 92.93 126.08 92.93 126.22C92.93 126.36 92.81 126.48 92.67 126.48ZM87.9 126.48H86.31C86.16 126.48 86.05 126.36 86.05 126.22C86.05 126.08 86.17 125.96 86.31 125.96H87.9C88.05 125.96 88.16 126.08 88.16 126.22C88.16 126.36 88.04 126.48 87.9 126.48ZM83.13 126.48H81.54C81.39 126.48 81.28 126.36 81.28 126.22C81.28 126.08 81.4 125.96 81.54 125.96H83.13C83.28 125.96 83.39 126.08 83.39 126.22C83.39 126.36 83.27 126.48 83.13 126.48ZM78.36 126.48H76.77C76.62 126.48 76.51 126.36 76.51 126.22C76.51 126.08 76.63 125.96 76.77 125.96H78.36C78.51 125.96 78.62 126.08 78.62 126.22C78.62 126.36 78.5 126.48 78.36 126.48ZM73.59 126.48H72C71.85 126.48 71.74 126.36 71.74 126.22C71.74 126.08 71.86 125.96 72 125.96H73.59C73.74 125.96 73.85 126.08 73.85 126.22C73.85 126.36 73.73 126.48 73.59 126.48ZM68.82 126.48H67.23C67.08 126.48 66.97 126.36 66.97 126.22C66.97 126.08 67.09 125.96 67.23 125.96H68.82C68.97 125.96 69.08 126.08 69.08 126.22C69.08 126.36 68.96 126.48 68.82 126.48Z" fill="white"/>
<path d="M59.03 178.41C58.6 178.41 58.24 177.64 58.24 176.68V124.41C58.24 123.46 58.59 122.68 59.03 122.68C59.47 122.68 59.82 123.45 59.82 124.41V176.68C59.82 177.63 59.47 178.41 59.03 178.41Z" fill="#DBBC7A"/>
<path d="M109.32 140.96H127.25C127.72 140.96 128.09 141.34 128.09 141.8V156.24C128.09 156.71 127.71 157.08 127.25 157.08H109.32C104.87 157.08 101.26 153.47 101.26 149.02C101.26 144.57 104.87 140.96 109.32 140.96Z" fill="#005499"/>
<path d="M109.46 153.02C111.664 153.02 113.45 151.234 113.45 149.03C113.45 146.826 111.664 145.04 109.46 145.04C107.256 145.04 105.47 146.826 105.47 149.03C105.47 151.234 107.256 153.02 109.46 153.02Z" fill="white"/>
<path d="M149.93 86.91C150.1 88.62 150.35 90.35 150.95 91.96C151.55 93.57 152.54 95.08 153.95 96.07C154.8 96.66 155.78 97.04 156.8 97.22C156.8 97.22 156.81 97.22 156.82 97.22C156.92 97.24 157.01 97.25 157.11 97.26C157.11 97.26 157.11 97.26 157.12 97.26C157.63 97.32 158.16 97.34 158.68 97.3C159.14 97.27 159.6 97.2 160.04 97.08C162.1 96.56 163.92 95.25 165.22 93.58C165.22 93.58 163.99 98.9 158.32 100.81C158.8 101.81 159.98 102.38 161.11 102.55C163.31 102.87 165.58 102.03 167.3 100.61C167.45 99.68 167.56 98.76 167.67 97.82C167.67 97.8 167.67 97.77 167.67 97.75C167.9 95.74 168.09 93.72 168.32 91.7C168.22 91.68 168.18 91.61 168.12 91.51C167.94 91.2 167.85 90.84 167.86 90.49C168.51 90.41 169.12 90.11 169.58 89.65C170.12 89.1 170.43 88.33 170.42 87.56C170.4 86.6 169.77 85.59 168.82 85.47C167.86 85.35 167.03 86.12 166.44 86.89C166.34 87.02 166.24 87.15 166.08 87.18C165.82 87.24 165.61 86.99 165.47 86.77C165.03 86.06 164.66 85.3 164.39 84.51C164.25 84.11 164.13 83.71 164.04 83.3C163.95 82.91 163.91 82.51 163.69 82.16C163.51 81.86 163.19 81.62 162.96 81.35C162.46 80.77 162.03 80.14 161.66 79.47C161.02 78.31 160.58 77.03 160.39 75.71C159.89 76.51 159.35 77.28 158.72 77.98C157.71 79.12 156.45 80.08 154.98 80.49C154.38 80.66 153.7 80.72 153.18 80.38C153.02 80.28 152.89 80.14 152.79 79.98C152.74 79.9 152.71 79.79 152.64 79.71C152.54 79.61 152.45 79.69 152.35 79.76C152.03 79.99 151.71 80.2 151.34 80.33C150.92 80.48 150.45 80.51 150.03 80.4V80.42C149.73 82.57 149.72 84.74 149.93 86.9V86.91ZM156.66 85.91C156.66 85.43 157.05 85.04 157.53 85.04C158.01 85.04 158.4 85.43 158.4 85.91C158.4 86.39 158.01 86.78 157.53 86.78C157.05 86.78 156.66 86.39 156.66 85.91ZM156.49 82.25C157.48 82.12 158.53 82.28 159.43 82.7C159.59 82.77 159.66 82.96 159.58 83.12C159.53 83.24 159.41 83.3 159.29 83.3C159.25 83.3 159.2 83.3 159.16 83.27C158.36 82.9 157.44 82.76 156.56 82.88C156.39 82.9 156.23 82.78 156.21 82.61C156.19 82.44 156.31 82.28 156.48 82.26L156.49 82.25ZM150.51 85.91C150.51 85.43 150.9 85.04 151.38 85.04C151.86 85.04 152.25 85.43 152.25 85.91C152.25 86.39 151.86 86.78 151.38 86.78C150.9 86.78 150.51 86.39 150.51 85.91Z" fill="#FCB9B9"/>
<path d="M168.33 91.72C168.33 91.72 168.37 91.72 168.4 91.72C168.58 91.72 168.73 91.62 168.86 91.51C169.78 90.75 170.51 89.78 171.12 88.76C171.62 87.93 172.05 87.06 172.4 86.16C172.56 85.76 172.65 85.23 172.88 84.86C173.06 84.57 173.35 84.36 173.54 84.07C173.74 83.76 173.89 83.43 174 83.08C174.26 82.28 174.32 81.42 174.35 80.58C174.43 78.45 173.9 76.13 172.67 74.4C172.3 73.88 171.8 73.49 171.37 73.02C168.8 70.26 164.64 69.66 162.99 69.27C162.5 69.15 162.01 69.05 161.52 68.97C159.52 68.64 157.43 68.65 155.51 69.28C151.74 70.51 148.93 74.26 148.8 78.22C148.78 78.8 148.83 79.43 149.2 79.89C149.41 80.16 149.71 80.33 150.04 80.41C150.46 80.52 150.94 80.49 151.35 80.34C151.72 80.21 152.05 80 152.36 79.77C152.46 79.7 152.54 79.61 152.65 79.72C152.72 79.79 152.75 79.9 152.8 79.99C152.9 80.15 153.03 80.28 153.19 80.39C153.71 80.73 154.39 80.67 154.99 80.5C156.45 80.09 157.71 79.12 158.73 77.99C159.36 77.29 159.9 76.51 160.4 75.71C160.59 77.03 161.03 78.31 161.67 79.47C162.04 80.14 162.47 80.77 162.97 81.35C163.2 81.62 163.52 81.87 163.7 82.16C163.92 82.51 163.96 82.91 164.05 83.3C164.14 83.71 164.26 84.11 164.4 84.51C164.68 85.3 165.04 86.06 165.48 86.77C165.62 86.99 165.83 87.24 166.09 87.18C166.24 87.15 166.35 87.01 166.45 86.89C167.04 86.12 167.87 85.35 168.83 85.47C169.78 85.59 170.42 86.6 170.43 87.56C170.44 88.33 170.13 89.1 169.59 89.65C169.13 90.11 168.52 90.41 167.87 90.49C167.87 90.85 167.96 91.2 168.13 91.51C168.19 91.62 168.23 91.69 168.33 91.7V91.72Z" fill="#015596"/>
<path d="M156.49 82.25C156.32 82.27 156.2 82.43 156.22 82.6C156.24 82.77 156.4 82.89 156.57 82.87C157.44 82.75 158.37 82.89 159.17 83.26C159.21 83.28 159.26 83.29 159.3 83.29C159.42 83.29 159.53 83.22 159.59 83.11C159.66 82.95 159.59 82.76 159.44 82.69C158.53 82.27 157.49 82.11 156.5 82.24L156.49 82.25Z" fill="#3D2217"/>
<path d="M151.38 86.78C151.86 86.78 152.25 86.3905 152.25 85.91C152.25 85.4295 151.86 85.04 151.38 85.04C150.9 85.04 150.51 85.4295 150.51 85.91C150.51 86.3905 150.9 86.78 151.38 86.78Z" fill="#3D2217"/>
<path d="M151.18 86.37C151.34 86.37 151.47 86.2401 151.47 86.08C151.47 85.9198 151.34 85.79 151.18 85.79C151.02 85.79 150.89 85.9198 150.89 86.08C150.89 86.2401 151.02 86.37 151.18 86.37Z" fill="white"/>
<path d="M157.53 86.78C158.011 86.78 158.4 86.3905 158.4 85.91C158.4 85.4295 158.011 85.04 157.53 85.04C157.05 85.04 156.66 85.4295 156.66 85.91C156.66 86.3905 157.05 86.78 157.53 86.78Z" fill="#3D2217"/>
<path opacity="0.25" d="M165.23 93.59C165.23 93.59 164 98.91 158.33 100.82C158.33 100.8 158.31 100.79 158.3 100.77C158.33 100.57 158.36 100.36 158.38 100.16C158.47 99.44 158.57 98.72 158.63 98C158.63 97.94 158.63 97.89 158.64 97.83C158.65 97.67 158.66 97.51 158.68 97.35V97.31C159.14 97.28 159.59 97.2 160.04 97.09C162.1 96.57 163.92 95.26 165.22 93.59H165.23Z" fill="black"/>
<path d="M150.18 82.42C150.55 82.19 151 82.05 151.5 82.04C151.89 82.04 152.3 82.09 152.79 82.22C152.96 82.27 153.06 82.44 153.01 82.61C152.97 82.78 152.79 82.88 152.62 82.83C152.19 82.71 151.84 82.66 151.51 82.67C151.13 82.67 150.79 82.77 150.52 82.95C150.47 82.98 150.41 83 150.35 83C150.25 83 150.14 82.95 150.08 82.85C149.99 82.7 150.03 82.51 150.17 82.42H150.18Z" fill="#4D2B1D"/>
<g opacity="0.2">
<path d="M167.89 89.2C167.85 89.12 167.87 89.03 167.95 88.98C168.09 88.9 168.22 88.81 168.23 88.7C168.23 88.66 168.23 88.61 168.19 88.54C168.13 88.4 168.03 88.27 167.9 88.18C167.86 88.15 167.81 88.11 167.77 88.04C167.75 87.99 167.75 87.94 167.75 87.9C167.75 87.67 167.87 87.44 168.09 87.22C168.27 87.03 168.46 86.92 168.65 86.87C168.91 86.81 169.19 86.89 169.34 87.08C169.39 87.15 169.38 87.25 169.31 87.31C169.24 87.36 169.14 87.35 169.08 87.28C169.01 87.19 168.86 87.15 168.72 87.18C168.59 87.21 168.45 87.3 168.31 87.44C168.15 87.61 168.07 87.76 168.06 87.91C168.06 87.91 168.07 87.92 168.08 87.93C168.25 88.06 168.38 88.22 168.47 88.42C168.53 88.54 168.55 88.65 168.53 88.75C168.5 89.03 168.22 89.19 168.09 89.27C168.06 89.28 168.04 89.29 168.01 89.29C167.95 89.29 167.9 89.26 167.87 89.21L167.89 89.2Z" fill="black"/>
</g>
<g opacity="0.2">
<path d="M154.69 91.42C154.8 91.42 154.91 91.42 155.02 91.39C155.6 91.28 156.14 90.91 156.5 90.36C156.55 90.29 156.53 90.19 156.45 90.14C156.38 90.09 156.28 90.11 156.23 90.19C155.92 90.67 155.46 90.99 154.96 91.08C154.43 91.18 153.87 90.98 153.57 90.59C153.52 90.52 153.41 90.51 153.34 90.56C153.27 90.61 153.26 90.72 153.31 90.79C153.62 91.19 154.15 91.42 154.68 91.42H154.69Z" fill="black"/>
</g>
<g opacity="0.2">
<path d="M153.45 89.2C153.51 89.2 153.57 89.17 153.59 89.11C153.63 89.03 153.59 88.93 153.52 88.9C153.27 88.78 153.08 88.54 152.98 88.25C152.89 87.96 152.91 87.65 153.04 87.41C153.13 87.24 153.27 87.09 153.42 86.93C153.52 86.82 153.63 86.71 153.73 86.58C154.07 86.13 154.21 85.53 154.1 84.98C154.08 84.89 154 84.84 153.91 84.85C153.82 84.87 153.77 84.95 153.78 85.04C153.87 85.5 153.75 86.01 153.47 86.39C153.39 86.5 153.29 86.6 153.19 86.71C153.03 86.87 152.87 87.04 152.76 87.25C152.59 87.57 152.55 87.97 152.67 88.34C152.79 88.72 153.04 89.02 153.37 89.19C153.39 89.2 153.42 89.21 153.44 89.21L153.45 89.2Z" fill="black"/>
</g>
<path d="M157.32 86.37C157.48 86.37 157.61 86.2401 157.61 86.08C157.61 85.9198 157.48 85.79 157.32 85.79C157.16 85.79 157.03 85.9198 157.03 86.08C157.03 86.2401 157.16 86.37 157.32 86.37Z" fill="white"/>
<path d="M171.53 138.52L171.47 140.69L171.45 141.1L171.4 142.94L171.39 143.23V143.75V143.76L171.33 145.55L171.24 148.52L171.22 149.27L171.16 151.15V151.27L171.03 155.76C170.85 156.58 170.69 157.39 170.54 158.21C169.82 161.97 169.3 165.75 168.95 169.5C168.76 171.57 168.61 173.62 168.51 175.66C168.48 176.31 168.45 176.96 168.43 177.61V177.74H145.73C145.76 170.57 146.14 163.87 146.65 158.11C146.74 157.08 146.83 156.07 146.93 155.1C147.24 151.99 147.57 149.22 147.89 146.87C147.89 146.76 147.92 146.65 147.93 146.54C148.15 144.94 148.35 143.55 148.53 142.39C148.55 142.32 148.56 142.25 148.57 142.19C148.57 142.14 148.58 142.1 148.59 142.05C148.6 142 148.6 141.96 148.61 141.91C148.96 139.73 149.19 138.52 149.19 138.52H171.54H171.53Z" fill="#08153A"/>
<path d="M168.5 175.66C168.47 176.31 168.44 176.96 168.42 177.61V177.74H163.95C164.06 176.13 164.21 174.49 164.42 172.85C164.42 172.7 164.45 172.55 164.47 172.41L164.76 172.65L168.49 175.66H168.5Z" fill="#08153A"/>
<path d="M194.81 177.74H166.58C165.79 175.95 165.09 174.17 164.47 172.41C162.93 168.03 161.87 163.78 161.17 159.86C160.88 158.29 160.65 156.77 160.47 155.31C160.16 152.83 159.98 150.55 159.89 148.51C159.83 147.36 159.81 146.29 159.8 145.31V144.69C159.8 140.83 160.1 138.52 160.1 138.52H179.71C179.75 139.22 179.8 139.91 179.87 140.61C179.87 140.69 179.88 140.77 179.89 140.85C179.89 140.92 179.9 141 179.91 141.07C180.61 143.1 181.3 145.09 181.99 147.03C182.6 148.78 183.22 150.49 183.82 152.17C187.42 162.05 190.91 170.65 194.81 177.74Z" fill="#0B1A51"/>
<path d="M184.74 70.19C182.46 68.53 180.88 67.61 180.49 67.34C180.01 66.99 179.89 66.13 179.32 65.26C178.02 63.26 175.31 59.73 172.51 58.75C172.15 58.62 171.87 59 172.26 59.42C172.94 60.18 174.24 61.26 174.04 61.44C173.61 61.8 170.58 58.15 169.72 59C169.08 59.64 173.47 62.89 173.3 63.1C172.96 63.51 169.65 59.78 168.85 60.62C168.09 61.42 172.05 63.51 171.88 63.86C171.7 64.22 168.95 61.94 168.41 62.46C167.59 63.24 172.55 66.32 172.41 66.77C172.23 67.51 169.67 65.97 169.29 66.84C168.92 67.66 172.51 69.2 173.18 69.54C174.75 70.33 175.89 69.99 177.14 71.94C177.83 73.01 178.51 74.08 179.18 75.16L184.72 70.19H184.74Z" fill="#FCB9B9"/>
<path d="M152.07 67.35C152.52 68.11 149.15 70 148.52 70.41C147.06 71.35 145.9 71.14 144.88 73.19C144.68 73.59 144.4 74.02 144.09 74.45C143.56 75.22 142.96 76 142.61 76.73L139.06 74.1L137.23 72.75C138.07 71.99 138.8 71.28 139.41 70.69C139.49 70.61 139.57 70.53 139.65 70.45C140.41 69.71 140.92 69.19 141.11 69.02C141.55 68.63 141.57 67.76 142.03 66.85C143.1 64.75 145.39 60.99 148.04 59.73C148.38 59.56 148.7 59.91 148.36 60.35C147.77 61.17 146.61 62.37 146.82 62.53C147.28 62.84 149.88 58.93 150.81 59.67C151.51 60.23 147.54 63.9 147.73 64.08C148.11 64.45 150.96 60.43 151.84 61.18C152.68 61.88 149 64.36 149.21 64.69C149.42 65.02 151.88 62.49 152.47 62.94C153.36 63.63 148.81 67.18 148.99 67.61C149.24 68.32 151.6 66.53 152.07 67.35Z" fill="#FCB9B9"/>
<path d="M179.91 141.07C178.16 142.18 175.1 143.99 171.32 145.55C167.94 146.94 163.98 148.15 159.88 148.51C155.9 148.86 151.78 148.4 147.92 146.54C148.17 144.71 148.4 143.15 148.6 141.91C152.14 143.79 155.99 144.58 159.8 144.68C163.83 144.8 167.82 144.15 171.39 143.22C174.65 142.37 177.57 141.28 179.83 140.31C179.85 140.56 179.87 140.82 179.9 141.07H179.91Z" fill="#385087"/>
<path d="M197.77 98.58C196.53 104.18 192.44 110.28 185.16 114.19C184.81 114.37 184.45 114.56 184.08 114.74L184.4 151.8C184.4 151.8 184.2 151.93 183.82 152.17C182.13 153.22 176.9 156.28 170.53 158.21C167.58 159.11 164.38 159.76 161.17 159.86C156.69 160.01 152.18 159.08 148.3 156.22C147.83 155.88 147.37 155.51 146.92 155.1C146.51 154.74 146.11 154.35 145.72 153.94L144.24 114.03C144.24 114.03 128.2 104.14 126.25 98.17C125.5 95.88 125.11 95.1 126.24 91.62C129.3 82.19 138.93 70.31 138.93 70.31L139.41 70.69L140.7 71.73L144.09 74.45L144.33 74.64C144.33 74.64 135.7 85.79 136.62 92.76C137.06 96.12 143.14 96.33 147.96 98.28C147.96 98.28 153.49 98.1 156.79 99.29C157.58 99.58 158.24 99.94 158.67 100.4C158.67 100.4 163.54 104.3 168.67 97.84C168.67 97.84 168.84 97.77 169.14 97.68C170.51 97.22 174.69 96.01 178.35 97C180.62 97.61 187.73 97.4 187.35 91.16C187.11 87.34 181.3 79.34 177.97 73.49L178.08 73.39L182.99 68.96L183.46 68.54C183.46 68.54 193.55 78.67 197.59 91C198.31 93.2 198.39 95.83 197.77 98.58Z" fill="#005499"/>
<path d="M184.07 114.74L184.17 145.86C184.17 145.86 177.82 149.55 171 151.31C172.18 150.42 176.56 135.54 177.39 131.71C178.88 124.84 179.06 120.88 179.26 113.56C186.59 111.66 194.95 105.19 197.83 94.41C198.48 101.76 195.36 109.25 184.07 114.74Z" fill="#034D7F"/>
<path d="M148.3 156.22C147.83 155.88 147.37 155.51 146.92 155.1C146.51 154.74 146.11 154.35 145.72 153.94L144.24 114.03C144.24 114.03 128.2 104.14 126.25 98.17C125.5 95.88 125.11 95.1 126.24 91.62C129.3 82.19 138.93 70.31 138.93 70.31L139.41 70.69C139.49 70.61 139.57 70.53 139.65 70.45L140.7 71.73C140.7 71.73 140.06 72.64 139.06 74.1C135.74 78.98 128.22 91.74 127.96 94.65C127.62 98.44 146.3 112.33 146.3 112.33L147.88 146.87L148.3 156.22Z" fill="white"/>
<path d="M160.26 160.37C155.5 160.37 151.38 159.11 148 156.62C147.49 156.25 147.03 155.87 146.58 155.47C146.19 155.13 145.77 154.73 145.35 154.29L145.22 154.15V153.96L143.74 114.32C141.69 113.04 127.64 104.08 125.76 98.33L125.64 97.97C124.97 95.94 124.63 94.92 125.75 91.47C128.8 82.06 138.43 70.12 138.53 70L138.84 69.62L145.02 74.56L144.72 74.95C144.64 75.06 136.23 86.02 137.11 92.7C137.37 94.7 140.2 95.46 143.48 96.35C145 96.76 146.56 97.19 148.05 97.78C148.86 97.76 153.82 97.69 156.96 98.82C157.9 99.17 158.58 99.57 159.04 100.06C159.17 100.16 163.54 103.5 168.28 97.53L168.36 97.43L168.48 97.38C168.48 97.38 168.67 97.3 169 97.2C170.6 96.66 174.76 95.51 178.48 96.52C179.86 96.89 183.28 96.91 185.27 95.29C186.43 94.34 186.96 92.97 186.85 91.19C186.68 88.56 183.65 83.69 180.72 78.99C179.56 77.13 178.46 75.37 177.53 73.74L177.33 73.39L183.47 67.85L183.8 68.19C183.9 68.29 194.02 78.55 198.05 90.85C198.81 93.17 198.88 95.88 198.24 98.7C196.8 105.22 192.11 111.03 185.38 114.64L185.09 114.79C184.92 114.88 184.74 114.97 184.57 115.06L184.89 152.08L184.08 152.6C182.58 153.53 177.19 156.72 170.67 158.7C167.34 159.72 164.14 160.28 161.18 160.37C160.87 160.37 160.56 160.39 160.25 160.39L160.26 160.37ZM146.21 153.73C146.56 154.1 146.91 154.43 147.25 154.72C147.68 155.11 148.11 155.46 148.59 155.81C152.01 158.33 156.22 159.53 161.15 159.35C164.03 159.26 167.13 158.71 170.38 157.72C176.78 155.78 182.08 152.65 183.55 151.73L183.89 151.51L183.57 114.41L183.85 114.27C184.12 114.14 184.38 114 184.64 113.87L184.92 113.72C191.38 110.25 195.89 104.68 197.27 98.45C197.86 95.81 197.81 93.28 197.1 91.13C193.55 80.3 185.18 71.07 183.42 69.21L178.59 73.57C179.47 75.09 180.48 76.72 181.56 78.44C184.56 83.25 187.66 88.22 187.84 91.11C187.97 93.22 187.31 94.88 185.89 96.04C183.46 98.02 179.67 97.85 178.21 97.46C174.65 96.5 170.48 97.73 169.29 98.13C169.15 98.17 169.04 98.21 168.97 98.24C167.14 100.5 165.14 101.77 163.01 102.01C160.3 102.31 158.43 100.84 158.35 100.77C157.95 100.35 157.39 100.02 156.61 99.74C153.44 98.6 148.02 98.76 147.97 98.76H147.86L147.76 98.72C146.3 98.13 144.73 97.7 143.21 97.29C139.74 96.35 136.46 95.46 136.11 92.8C135.26 86.37 142.07 76.79 143.62 74.7L138.99 70.98C137.33 73.1 129.38 83.45 126.7 91.74C125.68 94.87 125.93 95.62 126.59 97.62L126.71 97.99C128.58 103.72 144.33 113.48 144.49 113.58L144.72 113.72L146.2 153.71L146.21 153.73Z" fill="#DBBC7A"/>
<path d="M210.93 19H108.68V66.94H210.93V19Z" fill="#DBBC7A"/>
<path d="M207.76 23.05H111.84V62.89H207.76V23.05Z" fill="#EDDDC0"/>
<path d="M114.14 29.92C117.155 29.92 119.6 27.4755 119.6 24.46C119.6 21.4445 117.155 19 114.14 19C111.125 19 108.68 21.4445 108.68 24.46C108.68 27.4755 111.125 29.92 114.14 29.92Z" fill="#DBBC7A"/>
<path d="M159.8 56.01C167.002 56.01 172.84 50.1718 172.84 42.97C172.84 35.7682 167.002 29.93 159.8 29.93C152.598 29.93 146.76 35.7682 146.76 42.97C146.76 50.1718 152.598 56.01 159.8 56.01Z" fill="#DBBC7A"/>
<path d="M188.58 45.86C190.176 45.86 191.47 44.5661 191.47 42.97C191.47 41.3739 190.176 40.08 188.58 40.08C186.984 40.08 185.69 41.3739 185.69 42.97C185.69 44.5661 186.984 45.86 188.58 45.86Z" fill="#DBBC7A"/>
<path d="M129.26 45.86C130.856 45.86 132.15 44.5661 132.15 42.97C132.15 41.3739 130.856 40.08 129.26 40.08C127.664 40.08 126.37 41.3739 126.37 42.97C126.37 44.5661 127.664 45.86 129.26 45.86Z" fill="#DBBC7A"/>
<path d="M205.46 29.92C208.475 29.92 210.92 27.4755 210.92 24.46C210.92 21.4445 208.475 19 205.46 19C202.445 19 200 21.4445 200 24.46C200 27.4755 202.445 29.92 205.46 29.92Z" fill="#DBBC7A"/>
<path d="M114.14 66.94C117.155 66.94 119.6 64.4955 119.6 61.48C119.6 58.4645 117.155 56.02 114.14 56.02C111.125 56.02 108.68 58.4645 108.68 61.48C108.68 64.4955 111.125 66.94 114.14 66.94Z" fill="#DBBC7A"/>
<path d="M205.46 66.94C208.475 66.94 210.92 64.4955 210.92 61.48C210.92 58.4645 208.475 56.02 205.46 56.02C202.445 56.02 200 58.4645 200 61.48C200 64.4955 202.445 66.94 205.46 66.94Z" fill="#DBBC7A"/>
<path d="M158 44.3C158.48 44.09 158.85 43.78 159.12 43.38C159.38 42.98 159.51 42.5 159.51 41.95C159.51 41.4 159.38 40.91 159.12 40.5C158.86 40.1 158.48 39.79 158 39.57C157.52 39.35 156.94 39.25 156.28 39.25H153.06V46.7H154.78V44.63H156.28C156.28 44.63 156.33 44.63 156.36 44.63L157.79 46.71H159.65L157.99 44.32C157.99 44.32 158 44.32 158.01 44.32L158 44.3ZM157.37 40.99C157.63 41.22 157.76 41.54 157.76 41.95C157.76 42.36 157.63 42.67 157.37 42.9C157.11 43.13 156.71 43.25 156.18 43.25H154.78V40.65H156.18C156.71 40.65 157.11 40.76 157.37 40.99Z" fill="white"/>
<path d="M166.94 40.5C166.68 40.1 166.3 39.79 165.82 39.57C165.34 39.35 164.76 39.25 164.1 39.25H160.88V46.7H162.6V44.65H164.1C164.77 44.65 165.34 44.54 165.82 44.33C166.3 44.12 166.67 43.8 166.94 43.4C167.2 43 167.33 42.52 167.33 41.96C167.33 41.4 167.2 40.92 166.94 40.51V40.5ZM165.2 42.89C164.94 43.12 164.54 43.23 164.01 43.23H162.61V40.65H164.01C164.54 40.65 164.94 40.76 165.2 40.99C165.46 41.22 165.59 41.54 165.59 41.95C165.59 42.36 165.46 42.67 165.2 42.9V42.89Z" fill="white"/>
<path d="M29.61 171.37C32.7083 171.37 35.22 168.858 35.22 165.76C35.22 162.662 32.7083 160.15 29.61 160.15C26.5117 160.15 24 162.662 24 165.76C24 168.858 26.5117 171.37 29.61 171.37Z" fill="#015596"/>
<path d="M276.321 82.1707L269.579 80.076L267.484 86.8181L274.226 88.9128L276.321 82.1707Z" fill="#DBBC7A"/>
<path d="M146.22 178.41H145.22C145.25 172.55 146.41 155.23 146.42 155.06L147.42 155.13C147.41 155.3 146.25 172.59 146.22 178.42V178.41Z" fill="#DBBC7A"/>
<path d="M194.44 178.07C191.4 174.76 183.68 153.24 183.35 152.33L184.29 151.99C184.37 152.21 192.27 174.23 195.18 177.39L194.44 178.07Z" fill="#DBBC7A"/>
</svg>
