<svg width="215" height="28" viewBox="0 0 215 28" fill="none" xmlns="http://www.w3.org/2000/svg">
<path d="M12.7679 13.5651C12.907 13.8256 13.1952 13.8752 13.4262 14.0042C14.0149 14.3367 14.5713 14.7164 15.078 15.1655C16.5685 16.4881 17.264 18.1357 17.1746 20.1282C17.0305 23.3117 15.4333 25.4977 12.4326 26.5647C11.2278 26.994 9.9833 27.252 8.70403 27.262C6.04364 27.2843 3.38324 27.2719 0.722852 27.2744C0.643363 27.2744 0.563874 27.2694 0.484385 27.2694C0.206174 27.2694 0.0347764 27.1478 0.0149042 26.86C0.00248403 26.6615 0 26.4655 0 26.267V13.1879C0 12.9894 0 12.7909 0.0149042 12.5949C0.0347764 12.3641 0.17885 12.2475 0.404896 12.2351C0.683107 12.2227 0.961318 12.2177 1.23705 12.2177C3.30127 12.2078 5.3655 12.2028 7.42973 12.183C7.90417 12.178 8.38111 12.1433 8.85307 12.0787C9.77465 11.9497 10.4702 11.4584 10.9421 10.6619C11.6103 9.53786 11.7147 8.34435 11.3098 7.11361C11.0465 6.30966 10.4453 5.80595 9.68771 5.47097C8.94498 5.14344 8.15755 5.07644 7.35769 5.07148C5.37295 5.05411 3.38821 5.03922 1.40348 5.02185C1.08552 5.01937 0.767564 5.02185 0.449609 5.01193C0.16643 5.00696 0.00496805 4.86057 0.00496805 4.57521C0 3.54546 0.00496805 2.51323 0.00496805 1.48348C0.00496805 1.20806 0.126685 1.03684 0.417317 1.01451C0.457061 1.01203 0.496805 1.00955 0.53655 1.00955C3.31618 1.03933 6.0958 0.915259 8.87294 1.08895C10.0702 1.16339 11.2228 1.45371 12.3208 1.94501C14.6632 2.99461 15.8208 4.81838 15.8829 7.3667C15.9425 9.79592 15.0905 11.776 13.0734 13.2053C13.0089 13.2499 12.9393 13.2921 12.8896 13.3517C12.8399 13.4087 12.8126 13.4857 12.7729 13.5601L12.7679 13.5651ZM6.7491 16.2523C6.07345 16.2523 5.40028 16.2424 4.72462 16.2573C4.36195 16.2647 4.23775 16.3962 4.23527 16.7709C4.22533 17.9595 4.22781 19.148 4.22781 20.3366C4.22781 21.1678 4.22285 22.0016 4.23278 22.8328C4.23775 23.2397 4.34456 23.3737 4.69481 23.3737C6.00389 23.3737 7.31546 23.3936 8.62206 23.339C9.58089 23.2993 10.5 23.0512 11.3346 22.5425C12.0848 22.0859 12.5841 21.4482 12.758 20.5847C13.1281 18.7386 12.3854 17.4012 10.6192 16.7213C10.3236 16.6072 10.0156 16.5228 9.71006 16.4484C8.73632 16.2151 7.74023 16.2474 6.7491 16.2523Z" fill="white"/>
<path d="M136.897 1.11626C137.019 2.01202 137.059 26.1776 136.942 27.9816C136.539 28.0858 136.4 27.7235 136.197 27.5275C131.288 22.7906 126.385 18.0439 121.484 13.2996C120.542 12.3889 119.603 11.4758 118.662 10.5701C118.52 10.4336 118.371 10.3021 118.207 10.1979C118.093 10.126 117.961 10.2078 117.949 10.3269C117.919 10.6024 117.922 10.8803 117.924 11.1582C117.934 13.1805 117.949 15.2003 117.959 17.2225C117.959 17.5005 117.969 17.7784 117.959 18.0538C117.947 18.4831 117.877 18.5724 117.497 18.5724C116.387 18.5724 115.274 18.5575 114.163 18.5451C113.935 18.5451 113.796 18.426 113.786 18.1903C113.776 17.9918 113.776 17.7932 113.776 17.5972V1.0716C113.776 0.833394 113.776 0.595187 113.811 0.361942C113.828 0.24532 113.977 0.163436 114.079 0.247801C114.352 0.476083 114.608 0.724215 114.864 0.974829C120.488 6.51315 126.112 12.0515 131.735 17.5923C131.904 17.7585 132.071 17.9297 132.245 18.0935C132.386 18.225 132.52 18.4582 132.717 18.3962C133.01 18.2994 132.886 17.9942 132.886 17.7808C132.871 13.1035 132.841 8.42873 132.836 3.75143C132.836 2.88793 132.704 2.01947 132.915 1.16093C133.8 0.853244 134.714 1.0716 135.613 1.02694C136.04 1.00709 136.485 0.932647 136.9 1.12371V1.11626H136.897Z" fill="white"/>
<path d="M36.7114 1.12876C36.9226 0.982365 37.166 1.00966 37.402 1.00966C39.7047 1.00966 42.0099 0.999734 44.3126 1.0171C45.7906 1.02703 47.2387 1.23546 48.6248 1.78631C51.8317 3.06171 53.5134 5.44379 53.7419 8.85809C53.8487 10.466 53.5308 12.0094 52.9147 13.4982C52.3832 14.781 51.551 15.8132 50.4009 16.5899C50.1401 16.7661 49.8793 16.9472 49.6259 17.1209C49.6681 17.5651 49.9513 17.8579 50.1575 18.1879C51.8019 20.8057 53.4538 23.4185 55.1056 26.0338C55.2746 26.3018 55.4484 26.5673 55.6074 26.8427C55.7341 27.0636 55.6472 27.2646 55.4186 27.2646C54.0698 27.272 52.7185 27.2646 51.3697 27.2745C51.0989 27.2745 50.9226 27.1504 50.7834 26.942C50.6294 26.7112 50.4804 26.478 50.3289 26.2447C48.8161 23.9172 47.3108 21.5873 45.793 19.2648C44.9659 17.9993 45.3012 18.1755 43.8331 18.1655C41.8881 18.1531 39.9407 18.1556 37.9957 18.1506C37.7572 18.1506 37.5187 18.1507 37.2803 18.1432C36.6742 18.1159 36.6121 18.0712 36.622 17.4335C36.6369 16.3715 36.5375 15.3046 36.6841 14.2649C37.1114 14.0962 37.5138 14.1582 37.9063 14.1557C40.0102 14.1334 42.1167 14.1309 44.2206 14.1011C44.8143 14.0937 45.4155 14.0614 45.9967 13.9597C47.435 13.7041 48.4286 12.8654 48.9999 11.528C49.924 9.35932 49.0645 7.12364 47.9616 6.14352C47.4101 5.65222 46.7966 5.29243 46.0762 5.19317C44.4566 4.97233 42.8271 5.08151 41.2001 5.10384C40.9517 5.10633 40.8796 5.29987 40.8771 5.51326C40.8697 6.18818 40.8697 6.86062 40.8672 7.53554C40.8672 8.13106 40.8622 8.7241 40.8573 9.31962C40.8573 9.55038 40.7331 9.67196 40.5021 9.69926C39.9133 9.76873 37.248 9.74144 36.7139 9.65459C36.5798 8.69432 36.5798 2.09648 36.7139 1.13869V1.12876H36.7114Z" fill="white"/>
<path d="M72.1362 27.2769C72.0368 26.9915 72.1188 26.8104 72.1883 26.6292C73.5645 23.071 83.0957 0.895429 83.6248 0.0095966C83.8334 -0.0425112 83.898 0.1287 83.9527 0.255248C85.7362 4.44621 87.5123 8.63964 89.2884 12.8331C89.3008 12.8653 89.2859 12.9075 89.2834 12.9571C89.1791 13.1904 88.9555 13.1234 88.7717 13.1259C87.6986 13.1383 86.628 13.1333 85.5549 13.1557C85.1773 13.1631 84.9662 12.9969 84.837 12.6668C84.519 11.8554 84.1911 11.049 83.8707 10.2376C83.7838 10.0193 83.7291 9.78353 83.5279 9.63962C83.272 9.67684 83.2273 9.88527 83.1603 10.049C82.2387 12.2822 81.3246 14.5179 80.4129 16.7561C80.3533 16.9 80.3111 17.0513 80.2788 17.2027C80.249 17.3441 80.3657 17.4508 80.4651 17.4608C80.7806 17.493 81.0985 17.493 81.4165 17.4955C84.3948 17.5029 87.3732 17.5277 90.3515 17.4955C91.0396 17.488 91.4072 17.6692 91.6805 18.3416C92.7834 21.0562 93.9534 23.7459 95.0985 26.4431C95.1904 26.659 95.327 26.865 95.2898 27.123C95.1705 27.3439 94.9544 27.2719 94.7731 27.2744C93.7 27.2818 92.6294 27.2794 91.5563 27.2744C90.426 27.2744 90.6372 27.3191 90.2695 26.4258C89.6982 25.0338 89.1666 23.6268 88.6127 22.2249C88.1234 20.9842 88.3643 21.1033 87.0378 21.1009C84.5364 21.0959 82.035 21.1306 79.5336 21.081C78.8058 21.0661 78.4878 21.3366 78.2444 21.9768C77.6681 23.4953 76.9899 24.9742 76.4261 26.4953C76.1876 27.1404 75.8324 27.3191 75.189 27.2868C74.1631 27.2372 73.1322 27.2744 72.1362 27.2744V27.2769Z" fill="white"/>
<path d="M206.05 27.277H198.427C198.109 27.277 197.791 27.277 197.473 27.2695C197.177 27.2621 197.058 27.0859 197.055 26.8105C197.053 26.612 197.05 26.4135 197.05 26.215V13.1359C197.05 12.054 197.05 12.0888 198.091 12.0863C202.736 12.0739 207.381 12.0615 212.029 12.0491C212.268 12.0491 212.506 12.054 212.742 12.0739C212.921 12.0888 213.028 12.2128 213.03 12.3865C213.038 13.4957 213.043 14.6048 213.038 15.714C213.038 15.9398 212.901 16.0763 212.667 16.0837C212.35 16.0936 212.032 16.0961 211.716 16.0986H202.662C202.344 16.0986 202.026 16.0986 201.71 16.1085C201.484 16.1135 201.345 16.2251 201.323 16.4584C201.313 16.5775 201.306 16.6966 201.306 16.8132C201.306 18.7164 201.298 20.6171 201.306 22.5203C201.308 23.2001 201.335 23.225 202.073 23.2274C205.926 23.2324 209.776 23.2274 213.629 23.2274C213.947 23.2274 214.265 23.2324 214.583 23.2324C214.901 23.2324 214.998 23.4111 215 23.6815C215 24.751 215 25.8204 214.993 26.8924C214.993 27.1231 214.861 27.2571 214.63 27.2646C214.312 27.2745 213.994 27.2745 213.676 27.2745H206.05V27.277Z" fill="white"/>
<path d="M166.303 3.78117V4.01938C166.288 4.57271 166.422 5.19056 166.219 5.66202C166 6.15828 165.275 6.14339 164.795 6.40145C161.325 8.26493 159.482 11.1507 159.646 15.0911C159.805 18.9297 161.824 21.6145 165.312 23.2075C165.632 23.3539 166.047 23.4134 166.258 23.6516C166.519 23.9469 166.365 24.4109 166.373 24.803C166.388 25.7136 166.388 26.6267 166.38 27.5399C166.38 27.7731 166.234 27.9096 165.99 27.8426C165.379 27.6763 164.758 27.5324 164.162 27.3165C158.623 25.3116 154.859 19.8205 155.376 13.6147C155.885 7.4982 160.155 3.08392 165.317 1.69934C165.508 1.64723 165.702 1.60505 165.898 1.57279C166.132 1.53557 166.286 1.6249 166.288 1.878C166.293 2.51321 166.288 3.14595 166.288 3.78117H166.303Z" fill="white"/>
<path d="M205.732 5.00693H198.121C197.883 5.00693 197.647 4.99949 197.408 4.98212C197.175 4.96723 197.06 4.82331 197.058 4.59751C197.05 4.2402 197.05 3.88537 197.05 3.52806C197.05 2.89532 197.043 2.26259 197.055 1.62737C197.065 1.09636 197.13 1.04426 197.694 1.02192C197.892 1.01448 198.091 1.01944 198.287 1.01944H213.276C213.554 1.01944 213.83 1.02441 214.108 1.03433C214.337 1.04426 214.478 1.16584 214.478 1.39909C214.483 2.50576 214.486 3.61491 214.471 4.72158C214.468 4.94738 214.282 5.04911 214.059 5.05408C213.741 5.06152 213.425 5.06648 213.107 5.06648H205.732V5.00445V5.00693Z" fill="white"/>
<path d="M181.098 19.9992C180.092 23.7087 175.34 27.4282 170.966 27.9295C170.767 27.7409 170.809 27.4952 170.807 27.262C170.797 26.2322 170.802 25.2025 170.779 24.1727C170.772 23.8378 170.918 23.674 171.221 23.5747C171.711 23.4135 172.203 23.2546 172.672 23.0487C174.043 22.4457 175.171 21.5252 176.093 20.3515C176.291 20.0984 176.473 19.8577 176.85 19.8652C178.236 19.89 179.625 19.8999 181.014 19.9197C181.041 19.9197 181.068 19.9719 181.095 20.0016L181.098 19.9992Z" fill="white"/>
<path d="M178.763 9.41891H178.286C177.692 9.40899 177.071 9.5008 176.512 9.35936C175.971 9.22289 175.757 8.58767 175.36 8.20803C174.195 7.08647 172.861 6.28004 171.296 5.84829C170.69 5.68204 170.677 5.6473 170.67 5.03193C170.658 3.96248 170.655 2.89551 170.663 1.82606C170.665 1.45386 170.824 1.33228 171.197 1.4092C175.631 2.32232 178.905 4.76891 180.969 8.80354C181.004 8.87302 181.033 8.94746 181.061 9.0219C181.14 9.24026 181.033 9.40154 180.785 9.40403C180.112 9.41147 179.436 9.40403 178.763 9.40403V9.41643V9.41891Z" fill="white"/>
<path d="M113.913 27.2695C113.858 27.0958 113.793 26.9866 113.793 26.875C113.783 25.7261 113.776 24.5798 113.783 23.4309C113.783 23.0041 113.865 22.9148 114.248 22.9148C115.358 22.9148 116.469 22.9297 117.579 22.9396C117.877 22.9396 117.999 23.1108 118.001 23.3887C118.011 24.5376 118.024 25.684 118.029 26.8328C118.029 27.1132 117.872 27.267 117.586 27.267H113.913V27.2695Z" fill="white"/>
</svg>
