<svg width="24" height="24" viewBox="0 0 24 24" fill="none" xmlns="http://www.w3.org/2000/svg">
<path d="M21.7879 7.89L21.6154 5.8725C21.5554 5.1 20.9029 4.5 20.1229 4.5H20.0029C20.0029 6.1575 18.6604 7.5 17.0029 7.5C15.3454 7.5 14.0029 6.1575 14.0029 4.5H9.50294C9.50294 6.1575 8.16045 7.5 6.50294 7.5C4.84545 7.5 3.50295 6.1575 3.50295 4.5H3.38295C2.60295 4.5 1.95045 5.1 1.89045 5.8725L1.71795 7.89C1.41045 11.625 1.42545 15.375 1.76295 19.1025L1.87545 20.385C1.95045 21.1575 2.59545 21.75 3.37545 21.75H20.1304C20.9104 21.75 21.5554 21.1575 21.6304 20.385L21.7429 19.1025C22.0804 15.375 22.0954 11.625 21.7879 7.89ZM7.25294 18C7.25294 18.4125 6.91545 18.75 6.50294 18.75H5.00295C4.59045 18.75 4.25295 18.4125 4.25295 18V16.5C4.25295 16.0875 4.59045 15.75 5.00295 15.75H6.50294C6.91545 15.75 7.25294 16.0875 7.25294 16.5V18ZM7.25294 12.75C7.25294 13.1625 6.91545 13.5 6.50294 13.5H5.00295C4.59045 13.5 4.25295 13.1625 4.25295 12.75V11.25C4.25295 10.8375 4.59045 10.5 5.00295 10.5H6.50294C6.91545 10.5 7.25294 10.8375 7.25294 11.25V12.75ZM13.2529 18C13.2529 18.4125 12.9154 18.75 12.5029 18.75H11.0029C10.5904 18.75 10.2529 18.4125 10.2529 18V16.5C10.2529 16.0875 10.5904 15.75 11.0029 15.75H12.5029C12.9154 15.75 13.2529 16.0875 13.2529 16.5V18ZM13.2529 12.75C13.2529 13.1625 12.9154 13.5 12.5029 13.5H11.0029C10.5904 13.5 10.2529 13.1625 10.2529 12.75V11.25C10.2529 10.8375 10.5904 10.5 11.0029 10.5H12.5029C12.9154 10.5 13.2529 10.8375 13.2529 11.25V12.75ZM19.2529 12.75C19.2529 13.1625 18.9154 13.5 18.5029 13.5H17.0029C16.5904 13.5 16.2529 13.1625 16.2529 12.75V11.25C16.2529 10.8375 16.5904 10.5 17.0029 10.5H18.5029C18.9154 10.5 19.2529 10.8375 19.2529 11.25V12.75Z" fill="#9E9E9E"/>
<path d="M8.00293 3.75C8.00293 2.92157 7.33136 2.25 6.50293 2.25C5.6745 2.25 5.00293 2.92157 5.00293 3.75V4.5C5.00293 5.32843 5.6745 6 6.50293 6C7.33136 6 8.00293 5.32843 8.00293 4.5V3.75Z" fill="#9E9E9E"/>
<path d="M18.5029 3.75C18.5029 2.92157 17.8314 2.25 17.0029 2.25C16.1745 2.25 15.5029 2.92157 15.5029 3.75V4.5C15.5029 5.32843 16.1745 6 17.0029 6C17.8314 6 18.5029 5.32843 18.5029 4.5V3.75Z" fill="#9E9E9E"/>
</svg>
