<svg width="262" height="179" viewBox="0 0 262 179" fill="none" xmlns="http://www.w3.org/2000/svg">
<g clip-path="url(#clip0_0_248)">
<path d="M174.097 61.9023C174.297 63.9024 174.587 65.9225 175.297 67.8026C176.007 69.6926 177.157 71.4527 178.807 72.6128C179.797 73.3028 180.947 73.7528 182.147 73.9528C182.147 73.9528 182.157 73.9528 182.167 73.9528C182.277 73.9728 182.397 73.9928 182.507 74.0028C182.507 74.0028 182.507 74.0028 182.517 74.0028C183.117 74.0828 183.727 74.0928 184.337 74.0528C184.877 74.0128 185.407 73.9328 185.927 73.8028C188.337 73.1928 190.457 71.6727 191.987 69.7126C191.987 69.7126 190.547 75.9329 183.917 78.163C184.487 79.333 185.857 80.003 187.177 80.193C189.747 80.5731 192.407 79.583 194.407 77.923C194.577 76.8429 194.717 75.7529 194.837 74.6628C194.837 74.6328 194.837 74.6128 194.837 74.5828C195.107 72.2327 195.327 69.8726 195.597 67.5126C195.477 67.4926 195.427 67.4126 195.357 67.2825C195.147 66.9225 195.037 66.5025 195.047 66.0825C195.797 65.9925 196.517 65.6325 197.058 65.0925C197.688 64.4524 198.048 63.5524 198.038 62.6424C198.018 61.5223 197.278 60.3423 196.167 60.2023C195.047 60.0623 194.077 60.9623 193.387 61.8623C193.277 62.0123 193.147 62.1624 192.967 62.2024C192.667 62.2724 192.417 61.9823 192.257 61.7223C191.737 60.8923 191.317 60.0023 190.987 59.0822C190.827 58.6222 190.687 58.1522 190.577 57.6722C190.467 57.2122 190.417 56.7421 190.167 56.3321C189.957 55.9821 189.587 55.6921 189.317 55.3821C188.737 54.7021 188.227 53.962 187.797 53.182C187.047 51.822 186.537 50.3219 186.317 48.7918C185.727 49.7219 185.097 50.6219 184.367 51.4519C183.187 52.782 181.707 53.902 179.997 54.3921C179.297 54.5921 178.497 54.6621 177.897 54.262C177.717 54.142 177.557 53.982 177.437 53.792C177.377 53.692 177.347 53.562 177.257 53.482C177.137 53.362 177.037 53.462 176.917 53.542C176.547 53.812 176.167 54.052 175.737 54.212C175.247 54.3821 174.697 54.4221 174.197 54.2921V54.3121C173.847 56.8221 173.827 59.3622 174.087 61.8823L174.097 61.9023ZM181.967 60.7323C181.967 60.1723 182.417 59.7223 182.977 59.7223C183.537 59.7223 183.987 60.1723 183.987 60.7323C183.987 61.2923 183.537 61.7423 182.977 61.7423C182.417 61.7423 181.967 61.2923 181.967 60.7323ZM181.767 56.4521C182.927 56.3021 184.147 56.4821 185.207 56.9722C185.387 57.0522 185.477 57.2722 185.387 57.4622C185.327 57.5922 185.187 57.6722 185.057 57.6722C185.007 57.6722 184.957 57.6622 184.907 57.6422C183.967 57.2122 182.897 57.0422 181.867 57.1822C181.667 57.2122 181.477 57.0622 181.457 56.8622C181.427 56.6621 181.577 56.4721 181.777 56.4521H181.767ZM174.777 60.7323C174.777 60.1723 175.227 59.7223 175.787 59.7223C176.347 59.7223 176.797 60.1723 176.797 60.7323C176.797 61.2923 176.347 61.7423 175.787 61.7423C175.227 61.7423 174.777 61.2923 174.777 60.7323Z" fill="#FCB9B9"/>
<path d="M195.597 67.5126C195.597 67.5126 195.647 67.5126 195.677 67.5126C195.887 67.5126 196.058 67.4026 196.218 67.2726C197.298 66.3925 198.148 65.2525 198.858 64.0525C199.438 63.0824 199.938 62.0624 200.358 61.0123C200.548 60.5423 200.648 59.9223 200.918 59.4923C201.128 59.1623 201.468 58.9123 201.688 58.5623C201.918 58.2022 202.098 57.8122 202.228 57.4022C202.528 56.4622 202.598 55.4621 202.638 54.4821C202.738 51.992 202.118 49.2819 200.668 47.2518C200.238 46.6518 199.648 46.1818 199.148 45.6418C196.147 42.4116 191.277 41.7216 189.347 41.2516C188.777 41.1116 188.207 40.9916 187.627 40.9016C185.287 40.5216 182.847 40.5316 180.597 41.2716C176.187 42.7116 172.897 47.0918 172.757 51.732C172.737 52.412 172.797 53.152 173.217 53.6821C173.467 53.9921 173.817 54.1921 174.197 54.2921C174.697 54.4221 175.247 54.3821 175.737 54.2121C176.167 54.0621 176.557 53.8121 176.917 53.5421C177.037 53.4521 177.127 53.352 177.257 53.4821C177.337 53.5621 177.367 53.6921 177.437 53.7921C177.557 53.9721 177.707 54.1321 177.897 54.2621C178.497 54.6621 179.307 54.5921 179.997 54.3921C181.707 53.9021 183.177 52.782 184.367 51.452C185.097 50.6319 185.727 49.7219 186.317 48.7919C186.537 50.3319 187.047 51.822 187.797 53.192C188.227 53.9721 188.737 54.7121 189.317 55.3921C189.587 55.7021 189.957 55.9922 190.167 56.3422C190.417 56.7522 190.467 57.2222 190.577 57.6822C190.687 58.1622 190.827 58.6323 190.987 59.0923C191.307 60.0123 191.737 60.9023 192.257 61.7324C192.417 61.9924 192.667 62.2824 192.967 62.2124C193.147 62.1724 193.277 62.0124 193.387 61.8724C194.077 60.9723 195.047 60.0723 196.168 60.2123C197.278 60.3523 198.018 61.5424 198.038 62.6524C198.048 63.5524 197.688 64.4625 197.058 65.1025C196.528 65.6425 195.807 65.9925 195.047 66.0925C195.047 66.5125 195.147 66.9326 195.357 67.2926C195.427 67.4126 195.477 67.5026 195.597 67.5226V67.5126Z" fill="#015596"/>
<path d="M181.767 56.4421C181.567 56.4721 181.427 56.6522 181.447 56.8522C181.477 57.0522 181.657 57.1922 181.857 57.1722C182.877 57.0322 183.957 57.2022 184.897 57.6322C184.947 57.6522 184.997 57.6622 185.047 57.6622C185.187 57.6622 185.317 57.5822 185.377 57.4522C185.467 57.2722 185.377 57.0522 185.197 56.9622C184.137 56.4721 182.917 56.2821 181.757 56.4421H181.767Z" fill="#3D2217"/>
<path d="M175.787 61.7423C176.345 61.7423 176.797 61.2901 176.797 60.7323C176.797 60.1745 176.345 59.7223 175.787 59.7223C175.229 59.7223 174.777 60.1745 174.777 60.7323C174.777 61.2901 175.229 61.7423 175.787 61.7423Z" fill="#3D2217"/>
<path d="M175.557 61.2624C175.745 61.2624 175.897 61.1101 175.897 60.9223C175.897 60.7346 175.745 60.5823 175.557 60.5823C175.369 60.5823 175.217 60.7346 175.217 60.9223C175.217 61.1101 175.369 61.2624 175.557 61.2624Z" fill="white"/>
<path d="M182.977 61.7423C183.535 61.7423 183.987 61.2901 183.987 60.7323C183.987 60.1745 183.535 59.7223 182.977 59.7223C182.419 59.7223 181.967 60.1745 181.967 60.7323C181.967 61.2901 182.419 61.7423 182.977 61.7423Z" fill="#3D2217"/>
<path opacity="0.25" d="M191.977 69.7027C191.977 69.7027 190.537 75.9229 183.907 78.153C183.907 78.133 183.887 78.113 183.877 78.093C183.907 77.853 183.947 77.613 183.977 77.373C184.087 76.5329 184.207 75.6929 184.277 74.8529C184.277 74.7829 184.287 74.7229 184.297 74.6529C184.307 74.4629 184.327 74.2828 184.337 74.0928V74.0428C184.867 74.0028 185.407 73.9228 185.927 73.7928C188.337 73.1828 190.457 71.6628 191.987 69.7027H191.977Z" fill="black"/>
<path d="M174.387 56.6421C174.817 56.3721 175.347 56.2121 175.927 56.2021C176.377 56.1921 176.857 56.2621 177.437 56.4121C177.637 56.4621 177.747 56.6721 177.697 56.8621C177.647 57.0622 177.447 57.1722 177.247 57.1222C176.747 56.9821 176.337 56.9221 175.957 56.9321C175.517 56.9421 175.117 57.0522 174.797 57.2522C174.737 57.2922 174.667 57.3122 174.597 57.3122C174.477 57.3122 174.357 57.2522 174.287 57.1422C174.177 56.9721 174.227 56.7421 174.397 56.6321L174.387 56.6421Z" fill="#4D2B1D"/>
<g opacity="0.2">
<path d="M195.087 64.5725C195.037 64.4825 195.067 64.3724 195.157 64.3124C195.317 64.2224 195.477 64.1124 195.487 63.9924C195.487 63.9424 195.487 63.8824 195.447 63.8024C195.377 63.6324 195.257 63.4924 195.107 63.3724C195.067 63.3424 194.997 63.2924 194.957 63.2024C194.927 63.1424 194.927 63.0824 194.927 63.0324C194.927 62.7624 195.067 62.4924 195.327 62.2324C195.547 62.0124 195.757 61.8724 195.987 61.8223C196.297 61.7523 196.617 61.8524 196.797 62.0724C196.857 62.1524 196.847 62.2724 196.767 62.3324C196.687 62.3924 196.567 62.3824 196.507 62.3024C196.427 62.1924 196.247 62.1524 196.077 62.1824C195.927 62.2224 195.767 62.3224 195.607 62.4924C195.417 62.6824 195.317 62.8724 195.317 63.0424C195.317 63.0424 195.337 63.0524 195.337 63.0624C195.537 63.2124 195.687 63.4024 195.787 63.6324C195.847 63.7724 195.877 63.9024 195.857 64.0124C195.817 64.3424 195.497 64.5325 195.337 64.6225C195.307 64.6425 195.277 64.6425 195.247 64.6425C195.177 64.6425 195.117 64.6125 195.087 64.5525V64.5725Z" fill="black"/>
</g>
<g opacity="0.2">
<path d="M179.657 67.1626C179.787 67.1626 179.917 67.1526 180.037 67.1326C180.717 67.0026 181.347 66.5625 181.767 65.9225C181.827 65.8325 181.797 65.7225 181.707 65.6625C181.617 65.6025 181.507 65.6325 181.447 65.7225C181.087 66.2825 180.547 66.6625 179.967 66.7625C179.347 66.8726 178.697 66.6525 178.337 66.1925C178.277 66.1125 178.157 66.0925 178.077 66.1625C177.997 66.2225 177.977 66.3425 178.047 66.4225C178.417 66.8926 179.027 67.1626 179.657 67.1626Z" fill="black"/>
</g>
<g opacity="0.2">
<path d="M178.207 64.5725C178.277 64.5725 178.347 64.5324 178.377 64.4724C178.427 64.3824 178.377 64.2624 178.287 64.2224C177.997 64.0824 177.767 63.8024 177.657 63.4624C177.547 63.1224 177.577 62.7624 177.727 62.4724C177.837 62.2724 177.997 62.1024 178.177 61.9123C178.297 61.7823 178.427 61.6523 178.537 61.5023C178.927 60.9723 179.097 60.2823 178.967 59.6323C178.947 59.5323 178.847 59.4623 178.747 59.4823C178.647 59.5023 178.577 59.6023 178.597 59.7023C178.707 60.2423 178.567 60.8323 178.237 61.2723C178.137 61.4023 178.027 61.5223 177.907 61.6423C177.727 61.8323 177.537 62.0324 177.397 62.2824C177.197 62.6524 177.157 63.1224 177.297 63.5624C177.437 64.0024 177.737 64.3624 178.117 64.5525C178.147 64.5625 178.167 64.5725 178.197 64.5725H178.207Z" fill="black"/>
</g>
<path d="M39.8915 84.3132H225.069C233.449 84.3132 240.259 91.1235 240.259 99.5038V162.656C240.259 171.037 233.449 177.847 225.069 177.847H24.7009V99.5038C24.7009 91.1235 31.5112 84.3132 39.8915 84.3132Z" fill="#F4EADC"/>
<path d="M108.514 104.074V105.144C108.514 105.684 108.924 106.124 109.454 106.164C112.534 106.404 122.185 107.144 123.135 106.944C124.275 106.704 125.855 105.204 126.545 105.684C127.235 106.164 128.935 107.514 130.565 107.464C132.195 107.414 135.965 105.004 136.895 105.764C137.825 106.524 136.085 108.434 134.665 108.964C133.245 109.494 128.865 112.614 127.445 112.454C126.025 112.294 103.914 111.684 103.914 111.684L103.794 106.524L108.514 104.064V104.074Z" fill="#EFACAC"/>
<path d="M103.794 106.534L109.404 103.614C109.404 103.614 109.224 84.2132 103.314 81.0031L103.794 106.534Z" fill="#EDDDC0"/>
<path d="M103.734 104.304L104.224 125.495H71.5327V109.334L65.1025 89.5234C65.0425 87.2333 65.9525 85.1833 67.3626 83.3932C71.7727 77.843 81.0331 74.8129 81.0331 74.8129L82.5132 75.2229L103.314 81.0031C103.314 81.7531 103.504 84.3732 103.794 87.3733C104.074 90.2134 104.434 93.3936 104.794 95.6137C105.444 99.6338 104.114 103.344 103.794 104.144C103.754 104.244 103.734 104.304 103.734 104.304Z" fill="#EDDDC0"/>
<path d="M80.6031 105.684C80.6031 105.684 77.0129 109.474 73.0328 109.514C72.5428 109.514 72.0328 109.464 71.5327 109.334L65.1025 89.5234C65.0425 87.2333 65.9625 85.1832 67.3726 83.3932H67.3926C67.3926 83.3932 69.4927 82.3831 71.1127 84.4132C72.7328 86.4433 80.6131 105.684 80.6131 105.684H80.6031Z" fill="#EDDDC0"/>
<path d="M119.125 108.274C119.165 108.924 113.844 111.484 109.144 113.064C104.434 114.644 75.9829 115.174 75.9829 115.174L73.0428 109.504C77.023 109.464 80.6131 105.674 80.6131 105.674L80.8531 106.524L92.3835 109.504C92.3835 109.504 102.244 110.624 103.864 109.204C105.474 107.784 107.404 107.864 108.784 108.064C110.164 108.264 119.095 107.614 119.135 108.264L119.125 108.274Z" fill="#FCB9B9"/>
<path d="M136.215 125.485H25.321V137.335H136.215V125.485Z" fill="#FCF2E3"/>
<path d="M132.485 137.335H25.321V177.847H132.485V137.335Z" fill="#EDDDC0"/>
<path d="M61.9724 108.264H29.4611V115.784H61.9724V108.264Z" fill="#6978DF"/>
<path d="M61.9724 81.0031H29.4611V104.074H61.9724V81.0031Z" fill="#5760C5"/>
<path d="M80.5031 105.444C80.5031 105.444 76.0129 91.0235 74.5228 88.6734L73.4728 89.0134L80.5031 105.444Z" fill="#DBBC7A"/>
<path d="M49.9219 92.5336H40.4815V109.274H49.9219V92.5336Z" fill="#4754B2"/>
<path d="M89.4534 91.1835H79.183V93.9436H89.4534V91.1835Z" fill="#2B3289"/>
<path d="M153.536 93.8336C153.666 93.8236 153.796 93.8036 153.936 93.7936C154.406 93.7436 154.856 93.6236 155.136 93.2036C155.326 92.9136 155.366 92.5535 155.326 92.2135C155.296 91.9235 155.166 91.6535 155.126 91.3735C155.096 91.1635 155.106 90.9635 155.066 90.7535C154.946 90.1635 154.816 89.5734 154.676 88.9834C154.426 87.8934 154.166 86.8033 153.876 85.7233C153.776 85.6333 153.666 85.5433 153.566 85.4633C152.936 84.9333 152.346 84.3532 151.826 83.7132C151.596 83.4332 151.366 83.1232 151.296 82.7632C151.226 82.4032 151.376 81.9731 151.716 81.8331C152.126 81.6531 152.576 81.9531 152.926 82.2431C153.086 82.3732 153.256 82.5132 153.416 82.6532C153.956 83.1032 154.486 83.5632 155.016 84.0332C155.736 84.6732 156.446 85.3233 156.986 86.1133C158.396 88.1334 158.566 90.7535 159.456 93.0536C159.826 93.9936 159.986 94.2836 160.246 94.6036C158.626 96.8437 159.476 95.6737 158.276 97.2637C157.636 98.1138 156.966 98.9438 156.306 99.7838C155.426 98.5738 154.276 97.5237 153.076 96.6537C152.216 96.0337 150.476 94.9436 149.646 94.2936C150.726 93.9636 151.896 94.0936 153.546 93.8336H153.536Z" fill="#FCB9B9"/>
<path d="M153.746 86.8433C153.186 86.3333 152.676 85.7833 152.216 85.1932C151.896 84.7832 151.596 84.3532 151.456 83.8532C151.376 83.5932 151.346 83.3132 151.386 83.0432C151.486 83.2832 151.656 83.4932 151.826 83.7032C152.306 84.2832 152.836 84.8332 153.416 85.3232L153.526 85.9333C153.606 86.2333 153.686 86.5433 153.756 86.8433H153.746Z" fill="#E3E3E3"/>
<path d="M151.456 83.8532C151.606 84.3532 151.896 84.7833 152.216 85.1933C152.676 85.7833 153.186 86.3433 153.746 86.8433C153.936 87.5934 154.116 88.3334 154.276 89.0634C154.416 89.6634 154.546 90.2635 154.656 90.8235C154.676 90.9135 154.676 91.0035 154.686 91.1035C154.686 91.2035 154.696 91.3135 154.716 91.4235C154.746 91.5835 154.786 91.7235 154.826 91.8535C154.866 91.9935 154.906 92.1235 154.916 92.2435C154.946 92.5336 154.896 92.7836 154.786 92.9736C154.626 93.2136 154.366 93.3336 153.886 93.3836C153.656 93.4036 153.416 93.4336 153.186 93.4636C152.996 93.4836 152.806 93.5036 152.606 93.5236C151.616 93.6236 151.006 93.6936 150.016 93.8236L149.776 93.8536C149.446 93.8936 149.206 93.9236 148.876 93.9936C148.676 94.0336 148.386 94.0536 148.186 93.9236C148.066 93.8436 147.956 93.6936 147.896 93.5036C147.816 93.2836 147.766 93.0136 147.716 92.7636L147.696 92.6336C147.646 92.3935 147.606 92.1635 147.566 91.9235C147.546 91.7835 147.516 91.6535 147.496 91.5235C147.396 90.9535 147.286 90.3835 147.186 89.8135C147.076 89.2234 146.966 88.6434 146.856 88.0534L146.756 87.5034C146.666 87.0133 146.576 86.5233 146.476 86.0433V85.9733C146.376 85.5333 146.296 85.0933 146.216 84.6533L146.106 84.0832C146.076 83.9132 146.036 83.7332 146.006 83.5632C145.886 82.9132 145.756 82.2632 145.626 81.6131L145.606 81.5231C145.566 81.3331 145.536 81.1331 145.496 80.9431C145.456 80.7531 145.416 80.5531 145.376 80.3531C145.286 79.9531 145.196 79.5431 145.146 79.143C145.146 79.063 145.126 78.993 145.116 78.923C145.056 78.503 145.026 78.253 145.176 77.983C145.436 77.513 146.036 77.463 146.846 77.433C146.966 77.433 147.086 77.433 147.206 77.423C148.076 77.373 148.486 77.393 149.486 77.353C149.606 77.353 149.736 77.343 149.866 77.333C150.396 77.293 150.986 77.253 151.336 77.473C151.566 77.613 151.766 77.853 151.916 78.173C152.176 78.713 152.306 79.3531 152.426 79.9731C152.466 80.1631 152.506 80.3631 152.546 80.5431L152.786 81.6231L152.886 82.1932C152.546 81.9232 152.126 81.6531 151.726 81.8231C151.386 81.9632 151.246 82.3932 151.306 82.7532C151.326 82.8532 151.356 82.9532 151.396 83.0432C151.366 83.3132 151.396 83.5932 151.466 83.8532H151.456Z" fill="white"/>
<path d="M153.516 85.9333L153.406 85.3233C153.456 85.3633 153.506 85.4133 153.556 85.4533C153.656 85.5433 153.766 85.6233 153.866 85.7133C154.006 86.2433 154.136 86.7733 154.266 87.2933C154.086 87.1433 153.906 86.9933 153.736 86.8433C153.656 86.5433 153.586 86.2333 153.506 85.9333H153.516Z" fill="#292710"/>
<path d="M144.315 77.853C144.766 77.0329 145.866 77.1329 146.666 77.0829C147.596 77.0329 148.526 76.9829 149.456 76.9529C150.096 76.9329 150.976 76.7829 151.536 77.1329C151.856 77.3329 152.096 77.653 152.256 77.993C152.626 78.753 152.736 79.633 152.916 80.4531C153.076 81.1831 153.236 81.9031 153.396 82.6331C153.236 82.4931 153.076 82.3631 152.906 82.2231C152.886 82.2131 152.876 82.1931 152.856 82.1831L152.756 81.6131L152.516 80.5331C152.476 80.3431 152.436 80.153 152.396 79.963C152.276 79.343 152.146 78.703 151.886 78.163C151.736 77.853 151.536 77.613 151.306 77.4629C150.956 77.2429 150.356 77.2829 149.836 77.3229C149.706 77.3229 149.576 77.3429 149.456 77.3429C148.456 77.3829 148.046 77.3629 147.176 77.4129C147.066 77.4129 146.946 77.4129 146.816 77.4229C146.006 77.4429 145.416 77.5029 145.146 77.973C144.996 78.243 145.026 78.493 145.086 78.913C145.096 78.983 145.106 79.063 145.116 79.133C145.166 79.533 145.256 79.943 145.346 80.3431C145.386 80.5431 145.426 80.7331 145.466 80.9331C145.506 81.1231 145.546 81.3231 145.576 81.5131L145.596 81.6031C145.726 82.2531 145.846 82.9032 145.976 83.5532C146.006 83.7232 146.046 83.9032 146.076 84.0732L146.186 84.6432C146.266 85.0832 146.356 85.5233 146.436 85.9633V86.0333C146.546 86.5233 146.636 87.0133 146.726 87.4933L146.826 88.0434C146.936 88.6234 147.046 89.2034 147.156 89.7934C147.266 90.3734 147.366 90.9435 147.466 91.5135C147.486 91.6435 147.516 91.7835 147.536 91.9135C147.576 92.1435 147.616 92.3835 147.666 92.6235L147.686 92.7535C147.736 93.0135 147.786 93.2735 147.866 93.4936C147.936 93.6836 148.036 93.8336 148.156 93.9136C148.356 94.0436 148.646 94.0236 148.846 93.9836C149.176 93.9136 149.416 93.8836 149.746 93.8436L149.986 93.8136C150.976 93.6836 151.586 93.6136 152.576 93.5136C152.766 93.4936 152.956 93.4736 153.156 93.4536C153.386 93.4236 153.626 93.4036 153.856 93.3736C154.336 93.3236 154.596 93.2035 154.756 92.9635C154.876 92.7835 154.916 92.5235 154.886 92.2335C154.876 92.1135 154.836 91.9835 154.796 91.8435C154.756 91.7035 154.716 91.5635 154.686 91.4135C154.666 91.3035 154.666 91.1935 154.656 91.0935C154.656 90.9935 154.646 90.9035 154.626 90.8135C154.506 90.2434 154.376 89.6534 154.246 89.0534C154.086 88.3234 153.906 87.5833 153.716 86.8333C153.886 86.9933 154.066 87.1433 154.246 87.2833C154.386 87.8433 154.516 88.4034 154.646 88.9534C154.776 89.5434 154.906 90.1334 155.036 90.7235C155.076 90.9335 155.066 91.1335 155.096 91.3435C155.146 91.6335 155.266 91.8935 155.296 92.1835C155.336 92.5235 155.296 92.8835 155.106 93.1735C154.836 93.5936 154.376 93.7136 153.906 93.7636C153.486 93.8036 153.056 93.8636 152.626 93.9036C151.626 94.0036 150.636 94.1236 149.646 94.2536H149.616C149.226 94.3136 148.826 94.3536 148.436 94.4336C148.106 94.5036 147.736 94.4936 147.446 94.3036C147.226 94.1636 147.086 93.9336 146.996 93.6836C146.886 93.3836 146.836 93.0535 146.776 92.7435C146.706 92.3735 146.646 92.0035 146.576 91.6335C146.476 91.0635 146.366 90.4934 146.256 89.9134C146.146 89.3334 146.036 88.7534 145.926 88.1634C145.906 88.0534 145.886 87.9433 145.866 87.8333C145.756 87.2733 145.656 86.7133 145.546 86.1533C145.456 85.6933 145.376 85.2232 145.286 84.7632C145.246 84.5732 145.216 84.3832 145.176 84.1932C145.146 84.0232 145.106 83.8432 145.076 83.6732C144.956 83.0232 144.826 82.3731 144.696 81.7231C144.656 81.5031 144.606 81.2831 144.566 81.0531C144.446 80.4531 144.286 79.843 144.216 79.233C144.156 78.733 144.025 78.293 144.295 77.823L144.315 77.853Z" fill="#292710"/>
<g opacity="0.25">
<path d="M156.206 91.1235C156.206 91.1235 156.266 91.1035 156.296 91.0835C156.356 91.0235 156.356 90.9335 156.296 90.8735C155.366 89.9534 154.766 88.6834 154.646 87.3833C154.646 87.3133 154.636 87.2433 154.626 87.1733C154.596 86.8133 154.576 86.4433 154.396 86.1133C154.306 85.9433 154.166 85.7833 153.966 85.6033C153.906 85.5533 153.816 85.5533 153.756 85.6133C153.706 85.6733 153.706 85.7633 153.766 85.8233C153.946 85.9833 154.056 86.1133 154.136 86.2633C154.286 86.5433 154.306 86.8633 154.336 87.2033C154.336 87.2733 154.346 87.3433 154.356 87.4133C154.476 88.7834 155.116 90.1234 156.096 91.0835C156.126 91.1135 156.176 91.1335 156.216 91.1235H156.206Z" fill="black"/>
</g>
<path d="M184.207 75.8429C184.207 75.8429 167.876 78.163 170.847 103.324H184.207V75.8429Z" fill="#6D54B0"/>
<path d="M209.108 133.995C209.108 133.995 211.118 137.115 210.168 140.075C209.218 143.025 207.788 144.136 207.788 144.136C207.788 144.136 196.328 142.815 192.197 143.666C188.707 144.376 179.287 146.266 174.977 144.016C174.187 143.605 173.567 143.065 173.187 142.345V90.1034C173.187 87.6434 173.787 84.8332 175.367 82.9532L184.207 75.5129C184.287 76.2229 184.437 76.8329 184.637 77.363C185.967 80.9131 189.647 80.6431 192.337 78.863C193.307 78.223 193.827 77.593 194.737 75.5129C194.737 75.5129 211.328 77.463 211.958 90.6735C212.578 103.534 206.088 117.494 208.858 132.755C208.938 133.165 209.018 133.585 209.108 133.995Z" fill="#6D54B0"/>
<path d="M209.028 82.2931L206.098 90.7734C204.818 125.815 195.997 124.845 190.667 140.515C190.837 140.005 197.678 108.734 195.927 96.0236C194.087 82.7331 202.268 77.8429 202.268 77.8429C204.898 79.053 207.488 80.6131 209.028 82.2931Z" fill="#3D2A82"/>
<path d="M207.788 144.136C207.788 144.136 209.008 149.626 206.788 154.596C204.568 159.566 204.148 153.016 203.728 163.476C203.308 173.937 203.728 177.847 203.728 177.847H184.077L180.367 145.076C180.367 145.076 196.537 137.375 202.138 140.125C207.738 142.875 207.788 144.136 207.788 144.136Z" fill="#181469"/>
<path d="M174.917 143.985L167.776 177.847H184.397L180.357 145.076L174.917 143.985Z" fill="#0B1A51"/>
<path d="M204.698 79.023C204.698 79.023 197.098 79.5031 198.048 96.7837C198.998 114.054 196.477 123.745 196.477 123.745L186.867 151.476L198.758 152.906L209.218 125.095C209.218 125.095 219.138 83.2332 204.698 79.023Z" fill="#6D54B0"/>
<path d="M173.187 101.934V120.375L154.616 100.154C154.616 100.154 155.516 94.3436 159.396 93.2335L170.577 100.284H170.587L173.187 101.934Z" fill="#6D54B0"/>
<path d="M34.6513 125.485H25.321V137.335H34.6513V125.485Z" fill="white"/>
<path d="M31.4412 137.335H25.321V177.847H31.4412V137.335Z" fill="white"/>
<path opacity="0.1" d="M132.485 137.335H25.321V141.155H132.485V137.335Z" fill="#D6AE6E"/>
<path d="M132.485 136.335H25.321V138.335H132.485V136.335Z" fill="#DBBC7A"/>
<path d="M103.794 106.534V104.144C104.114 103.344 105.444 99.6338 104.794 95.6137C104.434 93.3936 104.074 90.2134 103.794 87.3733V86.0633C103.794 86.0633 105.734 95.6937 106.024 99.5438C106.314 103.384 103.794 106.534 103.794 106.534Z" fill="#DBBC7A"/>
<path d="M67.9026 87.5033C66.3125 93.2636 75.2729 109.124 75.2729 109.124L74.3428 112.024L71.5327 112.224V109.334L65.1025 89.5234C65.0425 87.2333 65.9525 85.1833 67.3626 83.3932C71.7727 77.843 81.0331 74.8129 81.0331 74.8129L81.4531 75.9729L82.0631 77.433C82.0631 77.433 69.4927 81.7331 67.9026 87.5033Z" fill="white"/>
<path d="M88.7934 166.376V169.646H81.3431C80.5031 169.646 79.783 169.076 79.573 168.276L78.163 162.756C77.953 161.946 77.2229 161.386 76.3929 161.386H69.0226V158.116C69.0226 155.896 70.8227 154.096 73.0428 154.096H76.3929C77.2329 154.096 77.953 154.666 78.163 155.466L79.573 160.986C79.783 161.796 80.5131 162.356 81.3431 162.356H84.7732C86.9933 162.356 88.7934 164.156 88.7934 166.376ZM82.4431 153.826C81.6031 153.826 80.8831 153.256 80.6731 152.456L79.263 146.936C79.053 146.126 78.323 145.566 77.493 145.566H70.1227V148.836C70.1227 151.056 71.9227 152.856 74.1428 152.856H77.493C78.333 152.856 79.053 153.426 79.263 154.226L80.6731 159.746C80.8831 160.556 81.6131 161.116 82.4431 161.116H85.8733C88.0934 161.116 89.8934 159.316 89.8934 157.096V153.826H82.4431Z" fill="#005499"/>
<path d="M71.2627 126.565C71.1327 126.565 71.0027 126.515 70.9127 126.415C70.8127 126.315 70.7627 126.185 70.7627 126.055L71.0327 109.404L64.6325 89.6735C64.5925 89.5134 64.1224 86.9034 67.7126 82.2232C71.2527 77.603 80.4931 74.4629 80.8831 74.3329C81.0131 74.2929 81.1531 74.3029 81.2631 74.3629C81.3831 74.4229 81.4731 74.5229 81.5131 74.6529C81.5131 74.6729 82.3431 77.143 83.7232 79.6831C83.8532 79.9231 83.7632 80.2331 83.5232 80.3631C83.2832 80.4931 82.9732 80.4031 82.8431 80.1631C81.7631 78.193 81.0331 76.3129 80.7231 75.4529C78.793 76.1529 71.4127 79.033 68.4926 82.8432C65.2225 87.1034 65.5825 89.4134 65.5825 89.4334L71.9927 109.184C72.0127 109.234 72.0227 109.294 72.0127 109.344L71.7527 125.555L103.694 125.005L103.434 113.894C103.434 113.614 103.644 113.384 103.924 113.384C104.204 113.404 104.434 113.594 104.434 113.874L104.704 125.485C104.704 125.615 104.654 125.745 104.564 125.845C104.474 125.945 104.344 125.995 104.214 125.995L71.2527 126.565H71.2627Z" fill="#DBBC7A"/>
<path d="M94.5036 78.573L94.4936 78.553" stroke="#DBBC7A" stroke-linecap="round" stroke-linejoin="round"/>
<path d="M95.3636 78.803C97.3637 79.363 102.244 80.7031 103.314 81.0031C104.674 81.3831 105.704 83.5932 107.394 87.8433C109.084 92.0935 109.404 103.614 109.404 103.614L104.334 106.254" stroke="#DBBC7A" stroke-linecap="round" stroke-linejoin="round"/>
<path d="M81.6531 96.3237H65.5025V102.754H81.6531V96.3237Z" fill="#5B65D4"/>
<path d="M83.8932 121.875H25.321V125.485H83.8932V121.875Z" fill="#6D7CE3"/>
<path d="M82.0631 115.784H25.321V121.875H82.0631V115.784Z" fill="#6978DF"/>
<path d="M81.0531 97.0537H66.1025V102.034H81.0531V97.0537Z" fill="#3639A0"/>
<path d="M29.4611 115.784H25.321V126.055H29.4611V115.784Z" fill="white"/>
<path d="M133.475 178.847H24.3209V124.485H137.215V138.335H133.485V178.847H133.475ZM26.311 176.847H131.475V136.335H135.205V126.485H26.321V176.847H26.311Z" fill="#DBBC7A"/>
<path d="M75.2729 102.754H71.8828V115.784H75.2729V102.754Z" fill="#606CD2"/>
<path d="M69.1326 99.8538C69.1326 100.064 69.1126 100.254 69.0626 100.414C69.0126 100.574 68.9426 100.714 68.8526 100.824C68.7626 100.934 68.6426 101.014 68.5126 101.074C68.3826 101.134 68.2326 101.154 68.0626 101.154C67.8926 101.154 67.7526 101.124 67.6126 101.074C67.4826 101.014 67.3626 100.934 67.2726 100.824C67.1826 100.714 67.1026 100.574 67.0526 100.414C67.0026 100.254 66.9726 100.064 66.9726 99.8538V99.0638C66.9726 98.8538 66.9926 98.6638 67.0526 98.5038C67.1026 98.3438 67.1726 98.2038 67.2626 98.0938C67.3526 97.9837 67.4726 97.9037 67.6026 97.8437C67.7326 97.7837 67.8826 97.7637 68.0526 97.7637C68.2226 97.7637 68.3726 97.7937 68.5026 97.8437C68.6326 97.9037 68.7526 97.9837 68.8426 98.0938C68.9326 98.2038 69.0026 98.3438 69.0526 98.5038C69.1026 98.6638 69.1226 98.8538 69.1226 99.0638V99.8538H69.1326ZM67.6126 99.5838L68.4926 98.9238C68.4926 98.7038 68.4526 98.5338 68.3726 98.4238C68.3026 98.3138 68.1926 98.2638 68.0426 98.2638C67.8926 98.2638 67.7826 98.3238 67.7126 98.4338C67.6426 98.5438 67.6026 98.7238 67.6026 98.9538V99.5738L67.6126 99.5838ZM68.4926 99.3538L67.6126 100.004C67.6126 100.224 67.6626 100.384 67.7326 100.484C67.8026 100.584 67.9126 100.644 68.0526 100.644C68.1926 100.644 68.3126 100.584 68.3826 100.474C68.4526 100.364 68.4926 100.184 68.4926 99.9438V99.3438V99.3538Z" fill="white"/>
<path d="M71.9228 99.8538C71.9228 100.064 71.9028 100.254 71.8528 100.414C71.8027 100.574 71.7327 100.714 71.6427 100.824C71.5527 100.934 71.4327 101.014 71.3027 101.074C71.1727 101.134 71.0227 101.154 70.8527 101.154C70.6827 101.154 70.5427 101.124 70.4027 101.074C70.2727 101.014 70.1527 100.934 70.0627 100.824C69.9727 100.714 69.8927 100.574 69.8427 100.414C69.7927 100.254 69.7627 100.064 69.7627 99.8538V99.0638C69.7627 98.8538 69.7827 98.6638 69.8427 98.5038C69.8927 98.3438 69.9627 98.2038 70.0527 98.0938C70.1427 97.9837 70.2627 97.9037 70.3927 97.8437C70.5227 97.7837 70.6727 97.7637 70.8427 97.7637C71.0127 97.7637 71.1627 97.7937 71.2927 97.8437C71.4227 97.9037 71.5427 97.9837 71.6327 98.0938C71.7227 98.2038 71.7927 98.3438 71.8427 98.5038C71.8928 98.6638 71.9128 98.8538 71.9128 99.0638V99.8538H71.9228ZM70.4027 99.5838L71.2827 98.9238C71.2827 98.7038 71.2427 98.5338 71.1627 98.4238C71.0927 98.3138 70.9827 98.2638 70.8327 98.2638C70.6827 98.2638 70.5727 98.3238 70.5027 98.4338C70.4327 98.5438 70.3927 98.7238 70.3927 98.9538V99.5738L70.4027 99.5838ZM71.2827 99.3538L70.4027 100.004C70.4027 100.224 70.4527 100.384 70.5227 100.484C70.5927 100.584 70.7027 100.644 70.8427 100.644C70.9827 100.644 71.1027 100.584 71.1727 100.474C71.2427 100.364 71.2827 100.184 71.2827 99.9438V99.3438V99.3538Z" fill="white"/>
<path d="M74.7129 99.8538C74.7129 100.064 74.6929 100.254 74.6429 100.414C74.5928 100.574 74.5228 100.714 74.4328 100.824C74.3428 100.934 74.2228 101.014 74.0928 101.074C73.9628 101.134 73.8128 101.154 73.6428 101.154C73.4728 101.154 73.3328 101.124 73.1928 101.074C73.0628 101.014 72.9428 100.934 72.8528 100.824C72.7628 100.714 72.6828 100.574 72.6328 100.414C72.5828 100.254 72.5528 100.064 72.5528 99.8538V99.0638C72.5528 98.8538 72.5728 98.6638 72.6328 98.5038C72.6828 98.3438 72.7528 98.2038 72.8428 98.0938C72.9328 97.9837 73.0528 97.9037 73.1828 97.8437C73.3128 97.7837 73.4628 97.7637 73.6328 97.7637C73.8028 97.7637 73.9528 97.7937 74.0828 97.8437C74.2128 97.9037 74.3328 97.9837 74.4228 98.0938C74.5128 98.2038 74.5828 98.3438 74.6328 98.5038C74.6829 98.6638 74.7029 98.8538 74.7029 99.0638V99.8538H74.7129ZM73.1928 99.5838L74.0728 98.9238C74.0728 98.7038 74.0328 98.5338 73.9528 98.4238C73.8828 98.3138 73.7728 98.2638 73.6228 98.2638C73.4728 98.2638 73.3628 98.3238 73.2928 98.4338C73.2228 98.5438 73.1828 98.7238 73.1828 98.9538V99.5738L73.1928 99.5838ZM74.0728 99.3538L73.1928 100.004C73.1928 100.224 73.2428 100.384 73.3128 100.484C73.3828 100.584 73.4928 100.644 73.6328 100.644C73.7728 100.644 73.8928 100.584 73.9628 100.474C74.0328 100.364 74.0728 100.184 74.0728 99.9438V99.3438V99.3538Z" fill="white"/>
<path d="M77.503 99.8538C77.503 100.064 77.483 100.254 77.433 100.414C77.383 100.574 77.313 100.714 77.223 100.824C77.1329 100.934 77.0129 101.014 76.8829 101.074C76.7529 101.134 76.6029 101.154 76.4329 101.154C76.2629 101.154 76.1229 101.124 75.9829 101.074C75.8529 101.014 75.7329 100.934 75.6429 100.824C75.5529 100.714 75.4729 100.574 75.4229 100.414C75.3729 100.254 75.3429 100.064 75.3429 99.8538V99.0638C75.3429 98.8538 75.3629 98.6638 75.4229 98.5038C75.4729 98.3438 75.5429 98.2038 75.6329 98.0938C75.7229 97.9837 75.8429 97.9037 75.9729 97.8437C76.1029 97.7837 76.2529 97.7637 76.4229 97.7637C76.5929 97.7637 76.7429 97.7937 76.8729 97.8437C77.0029 97.9037 77.1229 97.9837 77.2129 98.0938C77.303 98.2038 77.373 98.3438 77.423 98.5038C77.473 98.6638 77.493 98.8538 77.493 99.0638V99.8538H77.503ZM75.9829 99.5838L76.8629 98.9238C76.8629 98.7038 76.8229 98.5338 76.7429 98.4238C76.6729 98.3138 76.5629 98.2638 76.4129 98.2638C76.2629 98.2638 76.1529 98.3238 76.0829 98.4338C76.0129 98.5438 75.9729 98.7238 75.9729 98.9538V99.5738L75.9829 99.5838ZM76.8629 99.3538L75.9829 100.004C75.9829 100.224 76.0329 100.384 76.1029 100.484C76.1729 100.584 76.2829 100.644 76.4229 100.644C76.5629 100.644 76.6829 100.584 76.7529 100.474C76.8229 100.364 76.8629 100.184 76.8629 99.9438V99.3438V99.3538Z" fill="white"/>
<path d="M80.2931 99.8538C80.2931 100.064 80.2731 100.254 80.2231 100.414C80.1731 100.574 80.1031 100.714 80.0131 100.824C79.9231 100.934 79.8031 101.014 79.673 101.074C79.543 101.134 79.393 101.154 79.223 101.154C79.053 101.154 78.913 101.124 78.773 101.074C78.643 101.014 78.523 100.934 78.433 100.824C78.343 100.714 78.263 100.574 78.213 100.414C78.163 100.254 78.133 100.064 78.133 99.8538V99.0638C78.133 98.8538 78.153 98.6638 78.213 98.5038C78.263 98.3438 78.333 98.2038 78.423 98.0938C78.513 97.9837 78.633 97.9037 78.763 97.8437C78.893 97.7837 79.043 97.7637 79.213 97.7637C79.383 97.7637 79.533 97.7937 79.6631 97.8437C79.7931 97.9037 79.9131 97.9837 80.0031 98.0938C80.0931 98.2038 80.1631 98.3438 80.2131 98.5038C80.2631 98.6638 80.2831 98.8538 80.2831 99.0638V99.8538H80.2931ZM78.773 99.5838L79.6531 98.9238C79.6531 98.7038 79.613 98.5338 79.533 98.4238C79.463 98.3138 79.353 98.2638 79.203 98.2638C79.053 98.2638 78.943 98.3238 78.873 98.4338C78.803 98.5438 78.763 98.7238 78.763 98.9538V99.5738L78.773 99.5838ZM79.6531 99.3538L78.773 100.004C78.773 100.224 78.823 100.384 78.893 100.484C78.963 100.584 79.073 100.644 79.213 100.644C79.353 100.644 79.473 100.584 79.543 100.474C79.6131 100.364 79.6531 100.184 79.6531 99.9438V99.3438V99.3538Z" fill="white"/>
<path d="M33.1813 81.0031H29.9811V104.074H33.1813V81.0031Z" fill="white"/>
<path d="M34.3513 108.264H29.4611V115.784H34.3513V108.264Z" fill="white"/>
<path d="M61.9724 114.784H27.201V116.784H61.9724V114.784Z" fill="#DBBC7A"/>
<path d="M82.0631 120.875H25.321V122.875H82.0631V120.875Z" fill="#DBBC7A"/>
<path d="M26.321 127.515H24.3209V114.784H28.4611V107.264H39.4815V105.074H28.4611V80.0031H62.9724V105.074H50.912V107.264H62.9724V114.784H83.0632V120.875H84.8933V125.485H82.8932V122.875H81.0631V116.784H60.9723V109.264H48.9119V103.074H60.9723V82.0031H30.4612V103.074H41.4816V109.264H30.4612V116.784H26.321V127.515Z" fill="#DBBC7A"/>
<path d="M187.207 151.526L185.877 156.126L185.687 160.766L186.487 165.396C186.947 165.816 187.307 165.816 187.527 165.196C187.827 165.436 188.067 165.466 188.177 165.076C188.457 165.256 188.707 165.226 188.917 164.936C189.197 165.156 189.467 165.096 189.717 164.786L191.007 157.566C191.107 156.996 191.707 156.676 192.247 156.896C192.597 157.046 192.817 157.396 192.797 157.786L192.407 160.396C192.347 160.826 192.597 161.236 193.007 161.376C193.427 161.526 193.887 161.336 194.097 160.946L196.117 157.106L197.108 152.726L187.197 151.536L187.207 151.526Z" fill="#FCB9B9"/>
<path d="M93.1936 46.0017C95.6837 46.9818 97.5237 49.4319 97.7937 52.092C97.8537 52.662 97.8337 53.252 97.6337 53.782C97.4237 54.3121 97.0037 54.7821 96.4537 54.9321C95.8437 55.1021 95.2036 54.8621 94.6036 54.6621C93.8536 54.4221 93.0836 54.252 92.2935 54.252C91.5135 54.252 90.7135 54.4321 90.0535 54.8421C89.5234 55.1721 89.0734 55.6621 88.4634 55.7821C87.8634 55.9121 87.2233 55.6321 86.7833 55.2021C86.3433 54.7621 86.0733 54.192 85.8733 53.612C85.5133 52.602 85.3033 51.5119 85.3833 50.4419C85.4633 49.3719 85.8233 48.3018 86.5133 47.4718C87.1333 46.7318 87.9834 46.2017 88.9034 45.8717C89.8234 45.5417 90.7835 45.4117 91.7535 45.3517L93.2036 45.9917L93.1936 46.0017Z" fill="#453D3F"/>
<path d="M88.7534 71.2827C88.9734 71.2627 89.1834 71.2327 89.3934 71.2027C91.8235 70.8027 93.9436 69.3827 95.3436 67.3626C97.1437 64.7625 97.2837 61.5424 97.0637 58.5222C96.8637 55.6421 97.4237 52.802 96.1537 50.0719C95.6737 49.0219 94.6736 47.6218 93.3936 47.6018C92.6735 47.5818 91.9635 47.9318 91.4235 48.4218C90.8835 48.9119 90.4835 49.5319 90.1134 50.1619C89.4734 51.282 88.9234 52.452 88.4134 53.622C88.1734 54.1621 88.0134 54.8121 87.6733 55.3021C87.5733 55.4621 87.3833 55.5721 87.2933 55.7521C87.1833 55.9921 87.3833 56.1321 87.2733 56.3922C87.1833 56.6122 86.9833 56.6122 86.7933 56.5522C86.2433 57.3722 85.5633 58.0822 84.6632 58.6022C83.9532 59.0023 83.0032 59.2723 82.0531 59.3423C81.6631 59.7323 81.1531 60.0523 80.9031 60.4423C80.6131 60.8823 80.6231 61.4523 80.1831 61.7624C79.673 60.1823 77.2729 60.2423 76.7029 61.8424C76.4329 62.6224 76.7629 63.5524 77.343 64.1125C78.063 64.7925 79.503 65.5625 80.4431 65.1425H80.4631C80.3031 65.7525 80.6531 67.1826 80.8331 67.8626C81.0831 68.8526 81.2531 69.8727 81.5631 70.8427C81.8731 71.8227 82.2531 72.7728 82.5932 73.7428C82.9532 74.7229 83.3932 75.7629 83.5732 76.7929C83.7832 77.973 83.6932 79.193 82.9532 80.1131C84.5532 83.0432 86.9633 86.1433 89.8434 85.5433C95.0936 84.4432 93.6236 79.223 93.5136 78.843C93.5136 78.843 93.8236 78.923 94.3236 79.063C94.2636 79.023 94.2136 78.983 94.1636 78.953C92.2835 77.463 90.9435 75.4429 88.9534 74.0928C88.9334 73.8728 88.9234 73.6628 88.9034 73.4428C85.9033 73.2228 83.0632 71.3227 81.7331 68.6126L81.7831 68.5726C83.3232 70.6027 86.2633 71.5027 88.7734 71.3027L88.7534 71.2827ZM94.4836 60.7923C94.0336 60.8723 93.6136 60.5623 93.5336 60.1223C93.4536 59.6723 93.7636 59.2523 94.2136 59.1723C94.6536 59.0923 95.0836 59.4123 95.1536 59.8523C95.2336 60.3023 94.9236 60.7223 94.4836 60.7923ZM93.8236 55.1521C94.2136 54.9921 94.6436 54.9321 95.0536 54.9621C95.4136 54.9921 95.9037 55.0321 96.1237 55.3421C96.2137 55.4621 96.2637 55.6421 96.1937 55.7921C96.0837 56.0421 95.8337 56.0021 95.6337 55.9221C95.3436 55.8221 95.0436 55.7621 94.7436 55.7621C94.5336 55.7621 94.3336 55.7921 94.1336 55.8421C93.9536 55.8921 93.7336 56.0121 93.5636 55.9221C93.4536 55.8621 93.3736 55.7321 93.3836 55.6121C93.3836 55.3821 93.6236 55.2421 93.8236 55.1621V55.1521ZM86.3633 59.6623C86.8033 59.5823 87.2333 59.8923 87.3033 60.3323C87.3833 60.7823 87.0733 61.2023 86.6233 61.2823C86.1833 61.3623 85.7533 61.0523 85.6833 60.6023C85.6033 60.1623 85.9133 59.7323 86.3633 59.6623Z" fill="#FCB9B9"/>
<path d="M86.3633 59.6623C85.9133 59.7323 85.6133 60.1623 85.6933 60.6023C85.7733 61.0423 86.1933 61.3523 86.6433 61.2723C87.0933 61.1923 87.3933 60.7723 87.3133 60.3323C87.2333 59.8923 86.8133 59.5823 86.3733 59.6623H86.3633Z" fill="#211D1E"/>
<path d="M86.6433 60.4023C86.5033 60.4223 86.4033 60.5623 86.4333 60.7023C86.4633 60.8423 86.5933 60.9423 86.7333 60.9123C86.8733 60.8823 86.9633 60.7523 86.9433 60.6123C86.9233 60.4723 86.7833 60.3823 86.6433 60.4023Z" fill="white"/>
<path d="M86.8033 56.5521C86.9933 56.6021 87.1933 56.6121 87.2833 56.3921C87.3433 56.2421 87.3033 56.0621 87.2033 55.9321C87.2033 55.9321 87.2033 55.9321 87.1933 55.9221C87.0633 56.1321 86.9333 56.3421 86.7933 56.5521H86.8033Z" fill="#211D1E"/>
<path d="M84.4632 56.1921C84.4632 56.3221 84.5332 56.4421 84.6432 56.5021C84.8232 56.5922 85.0432 56.4721 85.2133 56.4321C85.4133 56.3821 85.6233 56.3621 85.8233 56.3621C86.1233 56.3621 86.4333 56.4121 86.7133 56.5221C86.7433 56.5221 86.7633 56.5421 86.7933 56.5521C86.9333 56.3521 87.0633 56.1421 87.1933 55.9221C86.9633 55.6321 86.4833 55.5921 86.1333 55.5621C85.7133 55.5321 85.2933 55.5921 84.9032 55.7421C84.6932 55.8221 84.4732 55.9721 84.4532 56.1921H84.4632Z" fill="#211D1E"/>
<path d="M93.5236 78.393C93.5236 78.393 95.2636 84.4032 89.8334 85.5233C84.4032 86.6433 80.4931 75.0029 80.4931 75.0029" stroke="#DBBC7A" stroke-linecap="round" stroke-linejoin="round"/>
<path d="M99.8638 76.1029C99.9038 74.8328 99.5638 73.5628 99.2938 72.3127C99.2338 72.0427 99.1838 71.7727 99.1338 71.5127C98.7038 69.2726 98.4738 67.0026 98.4538 64.7225C98.4538 63.5824 98.4838 62.4424 98.5838 61.3123C98.6238 60.8623 98.5838 60.3023 98.7838 59.9023C98.9538 59.5623 99.2238 59.3223 99.5238 59.0822C99.8638 58.8022 100.174 58.4922 100.454 58.1522C101.024 57.4822 101.474 56.7222 101.804 55.9021C102.454 54.2921 102.604 52.472 102.114 50.7919C101.624 49.1219 100.514 47.6718 99.1038 46.6718C97.6137 45.6117 96.0237 45.2317 94.2336 45.2017C93.9836 45.2017 93.6436 45.1517 93.4236 45.0117C89.8934 42.8116 85.2633 42.5116 81.4731 44.2317C77.693 45.9517 74.8729 49.6419 74.2128 53.752C73.6528 57.2022 74.5429 60.7823 73.9328 64.2224C73.6328 65.9025 72.9928 67.5026 72.4928 69.1226C71.9928 70.7527 71.6127 72.4728 71.8827 74.1528C72.1228 75.6629 72.9728 77.1529 74.2928 77.883C75.2529 77.4629 76.2529 77.1329 77.253 76.9429C77.303 78.293 77.933 79.873 79.103 80.5531C79.543 80.8031 80.0331 80.9731 80.5331 81.0331C81.3131 81.1231 82.1031 80.9331 82.6932 80.3731C83.6832 79.423 83.8232 78.063 83.5832 76.7529C83.4032 75.7329 82.9532 74.6828 82.6032 73.7028C82.2531 72.7328 81.8931 71.7827 81.5731 70.8027C81.2631 69.8327 81.0931 68.8126 80.8331 67.8226C80.6631 67.1526 80.3031 65.7125 80.4731 65.1125H80.4531C79.513 65.5325 78.053 64.7625 77.343 64.0824C76.7629 63.5224 76.4329 62.6024 76.7029 61.8124C77.273 60.2123 79.673 60.1523 80.1831 61.7323C80.6231 61.4323 80.6131 60.8623 80.9031 60.4123C81.1531 60.0323 81.6731 59.7023 82.0531 59.3123C83.0132 59.2423 83.9632 58.9722 84.6632 58.5722C85.5633 58.0622 86.2333 57.3422 86.7933 56.5221C86.7633 56.5221 86.7333 56.5021 86.7133 56.4921C86.4233 56.3921 86.1233 56.3321 85.8233 56.3321C85.6133 56.3321 85.4133 56.3521 85.2133 56.4021C85.0333 56.4421 84.8132 56.5722 84.6432 56.4721C84.5332 56.4121 84.4532 56.2821 84.4632 56.1621C84.4732 55.9421 84.7032 55.7921 84.9133 55.7121C85.3033 55.5621 85.7333 55.4921 86.1433 55.5321C86.4933 55.5621 86.9633 55.6021 87.2033 55.8921C87.4533 55.4621 87.6834 55.0121 87.8934 54.5621C88.7234 52.802 89.2334 50.9319 90.1534 49.2019C90.8435 47.9018 91.7735 46.5618 93.4136 47.2218C94.6036 47.7018 95.6437 48.8819 96.1737 50.0319C97.4437 52.762 96.8837 55.6021 97.0837 58.4822C97.2937 61.5023 97.1637 64.7325 95.3636 67.3226C93.9636 69.3426 91.8335 70.7627 89.4034 71.1627C89.1934 71.1927 88.9834 71.2227 88.7734 71.2427C88.8134 71.9527 88.8634 72.6728 88.9034 73.3828C88.9134 73.6028 88.9334 73.8128 88.9434 74.0328H88.9534C90.9535 75.3929 92.2835 77.4129 94.1636 78.893C94.5636 79.203 95.0136 79.483 95.4837 79.663C96.0837 79.893 96.7237 79.993 97.3437 79.843C98.7638 79.513 99.6638 78.043 99.8338 76.5929C99.8538 76.4129 99.8638 76.2429 99.8738 76.0629L99.8638 76.1029Z" fill="#015596"/>
<path opacity="0.25" d="M81.7731 68.5426L81.7231 68.5826C83.0432 71.2927 85.8833 73.2028 88.8934 73.4128C88.8534 72.7028 88.8034 71.9827 88.7634 71.2727C86.2433 71.4827 83.3132 70.5827 81.7731 68.5426Z" fill="black"/>
<path d="M94.2136 59.1723C93.7636 59.2423 93.4636 59.6723 93.5436 60.1123C93.6236 60.5523 94.0436 60.8623 94.4836 60.7823C94.9236 60.7023 95.2336 60.2823 95.1536 59.8423C95.0736 59.4023 94.6536 59.0923 94.2036 59.1723H94.2136Z" fill="#211D1E"/>
<path d="M93.3836 55.5921C93.3836 55.7221 93.4536 55.8422 93.5636 55.9022C93.7436 55.9922 93.9636 55.8722 94.1336 55.8322C94.3336 55.7821 94.5436 55.7621 94.7436 55.7621C95.0536 55.7621 95.3536 55.8121 95.6337 55.9222C95.8337 56.0022 96.0937 56.0422 96.1937 55.7921C96.2537 55.6421 96.2137 55.4621 96.1137 55.3321C95.8837 55.0321 95.3936 54.9921 95.0436 54.9621C94.6236 54.9321 94.2036 54.9921 93.8136 55.1421C93.6036 55.2221 93.3836 55.3721 93.3636 55.5921H93.3836Z" fill="#211D1E"/>
<g opacity="0.2">
<path d="M79.223 63.8524C79.293 63.8424 79.343 63.7924 79.353 63.7224C79.363 63.6324 79.303 63.5524 79.223 63.5424C79.053 63.5224 78.883 63.3124 78.883 63.1224C78.883 62.9924 78.923 62.9524 79.023 62.8624C79.093 62.8024 79.183 62.7224 79.243 62.6124C79.343 62.4124 79.303 62.2024 79.113 62.0224C78.833 61.7524 78.233 61.5724 77.893 61.7524C77.813 61.7924 77.793 61.8924 77.833 61.9624C77.873 62.0424 77.973 62.0624 78.043 62.0224C78.213 61.9324 78.673 62.0224 78.893 62.2324C79.013 62.3524 78.973 62.4224 78.963 62.4524C78.933 62.5124 78.883 62.5624 78.823 62.6124C78.713 62.7124 78.563 62.8424 78.573 63.1224C78.583 63.4224 78.843 63.7924 79.183 63.8424C79.203 63.8424 79.213 63.8424 79.233 63.8424L79.223 63.8524Z" fill="black"/>
</g>
<g opacity="0.2">
<path d="M91.7135 64.1324C91.7135 64.1324 91.7435 64.1324 91.7535 64.1224C92.1735 63.9424 92.5335 63.6124 92.7335 63.2224C92.9636 62.7824 92.7635 62.2924 92.6035 61.9623C92.5235 61.8023 92.4335 61.6623 92.3535 61.5123C92.2535 61.3523 92.1635 61.1923 92.0835 61.0323C91.8135 60.4623 91.7635 59.7823 91.9435 59.1822C91.9735 59.1022 91.9235 59.0122 91.8335 58.9822C91.7535 58.9522 91.6635 59.0022 91.6335 59.0922C91.4335 59.7723 91.4835 60.5323 91.7835 61.1723C91.8635 61.3523 91.9735 61.5223 92.0635 61.6823C92.1535 61.8223 92.2335 61.9623 92.3035 62.1123C92.5135 62.5424 92.5635 62.8524 92.4335 63.0924C92.2735 63.4124 91.9635 63.7024 91.6135 63.8524C91.5335 63.8824 91.4935 63.9824 91.5335 64.0624C91.5635 64.1324 91.6335 64.1624 91.7035 64.1524L91.7135 64.1324Z" fill="black"/>
</g>
<g opacity="0.2">
<path d="M91.6135 66.1925C91.6935 66.1825 91.7535 66.1025 91.7435 66.0225C91.7335 65.9325 91.6535 65.8725 91.5635 65.8825C90.6235 66.0025 89.6234 65.6125 89.0134 64.9025C88.9534 64.8325 88.8534 64.8325 88.7934 64.8825C88.7234 64.9425 88.7234 65.0425 88.7734 65.1025C89.4634 65.9025 90.5535 66.3225 91.6035 66.1925H91.6135Z" fill="black"/>
</g>
<path d="M173.957 104.074L173.187 103.504L159.396 93.2335L170.577 100.284L170.587 100.294L173.187 103.214L173.957 104.074Z" fill="#3D2A82"/>
<path d="M94.5136 59.8923C94.3736 59.9123 94.2736 60.0523 94.3036 60.1923C94.3336 60.3323 94.4636 60.4323 94.6036 60.4023C94.7436 60.3723 94.8336 60.2423 94.8136 60.1023C94.7936 59.9623 94.6536 59.8723 94.5136 59.8923Z" fill="white"/>
<path d="M184.637 77.363C181.927 79.7531 177.797 83.0832 175.937 86.0633C173.737 89.5834 175.297 143.986 175.297 143.986L174.977 144.016C174.187 143.605 173.567 143.065 173.187 142.345V90.1034C173.187 87.6434 173.787 84.8332 175.367 82.9532L184.207 75.5129C184.287 76.2229 184.437 76.8329 184.637 77.363Z" fill="white"/>
<path d="M204.258 178.347H167.166L174.437 144.186L172.697 142.565V120.575L154.116 100.344V100.144C154.276 95.0637 158.996 92.8736 159.196 92.7836L159.446 92.6736L169.996 99.3238C169.906 97.6438 169.966 93.9036 171.337 87.8834C173.277 79.3531 183.597 75.2229 184.027 75.0529L184.707 74.7829V75.5129C184.707 75.5129 184.747 77.993 186.187 79.1931C186.897 79.7831 187.867 79.9831 189.047 79.7831C193.517 79.013 194.227 75.5729 194.247 75.4229L194.327 74.9929L194.767 75.0129C196.477 75.1129 199.578 76.0629 202.478 77.383C204.638 78.373 207.588 79.9731 209.398 81.9532L209.698 82.3032C212.858 86.1333 212.948 94.8037 213.038 103.194V103.314C213.128 111.244 209.098 126.315 208.638 128.005C208.878 128.905 210.278 134.135 210.818 137.165C211.378 140.265 208.988 143.466 208.318 144.276C209.748 151.916 206.658 155.906 204.678 157.616C203.578 158.556 203.578 168.616 204.208 177.817L204.248 178.347H204.258ZM168.396 177.347H203.188C202.918 173.197 202.108 158.506 204.038 156.856C205.878 155.276 208.748 151.526 207.298 144.236L207.248 143.996L207.408 143.806C207.408 143.806 210.378 140.385 209.828 137.345C209.238 134.085 207.648 128.195 207.628 128.135L207.588 128.005L207.628 127.875C207.668 127.715 212.118 111.414 212.028 103.334V103.214C211.938 94.9937 211.848 86.5033 208.908 82.9432L208.628 82.6132C207.318 81.1931 204.978 79.6531 202.048 78.303C199.518 77.143 196.757 76.2629 195.097 76.0529C194.737 77.173 193.427 80.0431 189.197 80.7731C187.697 81.0331 186.467 80.7531 185.527 79.9631C184.277 78.913 183.877 77.223 183.757 76.2529C181.507 77.283 173.847 81.2631 172.297 88.1034C170.436 96.2437 171.057 100.164 171.067 100.204L171.247 101.304L159.366 93.8136C158.476 94.2936 155.346 96.2537 155.116 99.9739L173.677 120.185V142.135L175.517 143.846L175.457 144.126L168.386 177.357L168.396 177.347Z" fill="#DBBC79"/>
<path d="M256.39 163.206C259.488 163.206 262 160.694 262 157.596C262 154.498 259.488 151.986 256.39 151.986C253.291 151.986 250.78 154.498 250.78 157.596C250.78 160.694 253.291 163.206 256.39 163.206Z" fill="#015596"/>
<path d="M8.83657 99.707L2.09424 97.6122L-0.000597599 104.355L6.74174 106.449L8.83657 99.707Z" fill="#DBBC7A"/>
<g filter="url(#filter0_d_0_248)">
<path d="M58.0722 5.4902C63.6324 5.4902 68.1326 9.99037 68.1326 15.5506C68.1326 21.1108 63.6324 25.611 58.0722 25.611C52.512 25.611 48.0118 21.1108 48.0118 15.5506C48.0118 9.99037 52.512 5.4902 58.0722 5.4902Z" fill="#F9FAFB"/>
</g>
<path d="M59.4923 17.2406C59.5823 18.2207 60.4723 18.9407 61.4523 18.9407H62.1224C62.2524 18.9407 62.3824 18.9307 62.5024 18.9007V19.6907C62.5024 20.3207 61.9924 20.8208 61.7524 20.8208H54.0921C53.512 20.8208 53.032 20.3907 52.962 19.8107C52.842 18.7707 52.782 17.7606 52.802 16.7806C52.812 16.0606 52.872 15.3506 52.972 14.6705C52.972 14.6505 52.972 14.6405 52.972 14.6205C53.042 14.1205 53.432 13.7305 53.9321 13.6605C53.9821 13.6605 54.0421 13.6505 54.0921 13.6505H61.3723C62.0024 13.6505 62.5024 14.1605 62.5024 14.7805V15.1905C62.3824 15.1605 62.2524 15.1505 62.1324 15.1505H61.3723C61.0523 15.1505 60.7423 15.2305 60.4723 15.3806C59.8323 15.7306 59.4123 16.4306 59.4923 17.2206V17.2406Z" fill="#F6911E"/>
<path d="M62.9224 16.2506C62.7224 16.0506 62.4324 15.9206 62.1224 15.9206H61.3723C60.7423 15.9206 60.2423 16.4306 60.2423 17.0506C60.2423 17.3606 60.3723 17.6507 60.5723 17.8507C60.7723 18.0507 61.0623 18.1807 61.3723 18.1807H62.1224C62.7524 18.1807 63.2524 17.6707 63.2524 17.0506C63.2524 16.7406 63.1224 16.4506 62.9224 16.2506ZM60.9923 17.4306C60.7823 17.4306 60.6123 17.2606 60.6123 17.0506C60.6123 16.8406 60.7823 16.6706 60.9923 16.6706C61.2023 16.6706 61.3723 16.8406 61.3723 17.0506C61.3723 17.2606 61.2023 17.4306 60.9923 17.4306Z" fill="#FFC660"/>
<path d="M61.7524 12.9005H56.4822L58.0822 11.3004L59.1223 10.2604L61.7524 12.9005Z" fill="#FFC660"/>
<path d="M57.2422 11.3004L55.6421 12.9005H53.732C53.672 12.9005 53.612 12.9005 53.562 12.9105L56.2121 10.2604L57.2522 11.3004H57.2422Z" fill="#FFC660"/>
<g filter="url(#filter1_d_0_248)">
<path d="M38.4715 42.7117C44.0317 42.7117 48.5319 47.2118 48.5319 52.772C48.5319 58.3323 44.0317 62.8324 38.4715 62.8324C32.9113 62.8324 28.4111 58.3323 28.4111 52.772C28.4111 47.2118 32.9113 42.7117 38.4715 42.7117Z" fill="#F9FAFB"/>
</g>
<path fill-rule="evenodd" clip-rule="evenodd" d="M34.0413 52.612C34.1913 51.572 35.2313 51.292 35.3314 50.3419C34.8613 50.5519 34.3013 50.4819 33.8913 50.1419C33.4413 50.962 33.4113 51.772 34.0413 52.612Z" fill="#5E76B8"/>
<path fill-rule="evenodd" clip-rule="evenodd" d="M36.0514 49.6019C36.5814 49.5219 37.0414 49.1519 37.4714 48.7819C38.0715 48.2719 38.9115 47.6418 39.7115 47.7018C38.2815 47.2618 36.7414 47.5718 35.7914 48.1519C36.1514 48.5519 36.2414 49.1219 36.0414 49.5919L36.0514 49.6019Z" fill="#5E76B8"/>
<path fill-rule="evenodd" clip-rule="evenodd" d="M42.8916 52.942C42.7416 53.9821 41.7016 54.2621 41.6016 55.2121C42.0716 55.0021 42.6316 55.0721 43.0417 55.4121C43.4917 54.5921 43.5217 53.7821 42.8916 52.942Z" fill="#5E76B8"/>
<path fill-rule="evenodd" clip-rule="evenodd" d="M40.8816 55.9521C40.3515 56.0322 39.8915 56.4022 39.4615 56.7722C38.8615 57.2822 38.0215 57.9122 37.2214 57.8522C38.6515 58.2922 40.1915 57.9822 41.1416 57.4022C40.7816 57.0022 40.6916 56.4322 40.8916 55.9621L40.8816 55.9521Z" fill="#5E76B8"/>
<path fill-rule="evenodd" clip-rule="evenodd" d="M38.6315 48.3519C39.6715 48.5019 39.9515 49.5419 40.9016 49.6419C40.6916 49.1719 40.7516 48.6119 41.1016 48.2019C40.2815 47.7418 39.4715 47.7218 38.6315 48.3519Z" fill="#53BD92"/>
<path fill-rule="evenodd" clip-rule="evenodd" d="M41.6416 50.362C41.7216 50.892 42.0916 51.352 42.4616 51.782C42.9716 52.382 43.6017 53.2221 43.5417 54.0221C43.9817 52.592 43.6717 51.042 43.0916 50.102C42.6916 50.462 42.1216 50.552 41.6416 50.352V50.362Z" fill="#53BD92"/>
<path fill-rule="evenodd" clip-rule="evenodd" d="M38.3015 57.1922C37.2614 57.0422 36.9814 56.0022 36.0314 55.9022C36.2414 56.3722 36.1814 56.9322 35.8314 57.3422C36.6514 57.8022 37.4614 57.8222 38.3015 57.1922Z" fill="#53BD92"/>
<path fill-rule="evenodd" clip-rule="evenodd" d="M35.2914 55.1821C35.2114 54.6521 34.8413 54.1921 34.4713 53.7621C33.9613 53.162 33.3313 52.322 33.3913 51.522C32.9513 52.952 33.2613 54.5021 33.8413 55.4421C34.2413 55.0821 34.8113 54.9921 35.2914 55.1821Z" fill="#53BD92"/>
<path fill-rule="evenodd" clip-rule="evenodd" d="M42.9816 48.2618C43.4217 48.7019 43.4217 49.4219 42.9816 49.8619C42.5416 50.3019 41.8216 50.3019 41.3816 49.8619C40.9416 49.4219 40.9416 48.7019 41.3816 48.2618C41.8216 47.8218 42.5416 47.8218 42.9816 48.2618Z" fill="#53BD92"/>
<path fill-rule="evenodd" clip-rule="evenodd" d="M35.5514 55.6922C35.9914 56.1322 35.9914 56.8522 35.5514 57.2922C35.1113 57.7323 34.3913 57.7323 33.9513 57.2922C33.5113 56.8522 33.5113 56.1322 33.9513 55.6922C34.3913 55.2522 35.1113 55.2522 35.5514 55.6922Z" fill="#53BD92"/>
<path fill-rule="evenodd" clip-rule="evenodd" d="M42.9816 57.2822C42.5416 57.7222 41.8216 57.7222 41.3816 57.2822C40.9416 56.8422 40.9416 56.1222 41.3816 55.6822C41.8216 55.2421 42.5416 55.2421 42.9816 55.6822C43.4217 56.1222 43.4217 56.8422 42.9816 57.2822Z" fill="#5E76B8"/>
<path fill-rule="evenodd" clip-rule="evenodd" d="M35.5514 49.8619C35.1113 50.3019 34.3913 50.3019 33.9513 49.8619C33.5113 49.4219 33.5113 48.7019 33.9513 48.2618C34.3913 47.8218 35.1113 47.8218 35.5514 48.2618C35.9914 48.7019 35.9914 49.4219 35.5514 49.8619Z" fill="#5E76B8"/>
<path fill-rule="evenodd" clip-rule="evenodd" d="M37.9914 52.292L37.1614 51.492C37.0914 51.422 37.0914 51.392 37.0914 51.322V51.032V51.002V50.962V50.922V50.902C37.0914 50.902 37.0914 50.902 37.0914 50.892C37.0914 50.892 37.0914 50.872 37.0914 50.862V50.842C37.0914 50.842 37.0914 50.832 37.0914 50.822C37.0914 50.822 37.0914 50.822 37.0914 50.812V50.792V50.772C37.0914 50.772 37.0914 50.7719 37.0914 50.7619V50.742C37.0914 50.742 37.0914 50.7419 37.0914 50.7319V50.7119C37.0914 50.7119 37.0914 50.7119 37.0914 50.7019C37.0914 50.7019 37.0914 50.7019 37.0914 50.6919C37.0914 50.6919 37.0914 50.6919 37.0914 50.6819C37.0914 50.6819 37.0914 50.6819 37.0914 50.6719H37.1014C37.1014 50.6719 37.1014 50.6619 37.1014 50.6519C37.1014 50.6519 37.1014 50.6519 37.1114 50.6519C37.1814 50.6219 37.2514 50.6019 37.3314 50.6019H38.6615V50.2019L39.5115 51.052L38.6615 51.902V51.502H37.7014V52.372H37.8114L37.9914 52.292ZM37.9914 53.252H37.1214V52.292H37.5214L36.6814 51.442L35.8414 52.292H36.2414V53.6221C36.2414 53.7021 36.2614 53.7721 36.2914 53.8421V53.8621C36.2914 53.8621 36.2914 53.8621 36.2914 53.8721V53.8921V53.9121C36.2914 53.9121 36.2914 53.9121 36.2914 53.9221V53.9421C36.2914 53.9421 36.2914 53.9521 36.2914 53.9621C36.2914 53.9621 36.2914 53.9621 36.2914 53.9721C36.2914 53.9721 36.2914 53.9721 36.2914 53.9821C36.2914 53.9821 36.2914 53.9821 36.3014 53.9821H36.3114C36.3114 53.9821 36.3114 53.9821 36.3214 53.9921C36.3214 53.9921 36.3214 53.9921 36.3314 53.9921H36.7314C36.7914 53.9921 36.8314 53.9921 36.8914 53.9321L37.6914 53.102L37.7914 53.132L37.9914 53.252ZM38.9515 52.292H39.8215V53.252H39.4215L40.2615 54.1021L41.1016 53.252H40.7016V51.922C40.7016 51.842 40.6816 51.772 40.6516 51.702V51.682V51.662C40.6516 51.662 40.6516 51.652 40.6516 51.642V51.622V51.612V51.592C40.6516 51.592 40.6516 51.592 40.6516 51.582C40.6516 51.582 40.6516 51.582 40.6516 51.572V51.562C40.6516 51.562 40.6516 51.562 40.6516 51.552C40.6516 51.552 40.6516 51.552 40.6516 51.542C40.6516 51.542 40.6515 51.542 40.6415 51.542C40.6415 51.542 40.6416 51.542 40.6315 51.542H40.2415C40.1815 51.542 40.1415 51.542 40.0815 51.602L39.2815 52.432L39.1715 52.392L38.9515 52.292ZM37.9914 53.7221V54.1221H38.9515V53.252L39.7815 54.0521C39.8515 54.1221 39.8415 54.1521 39.8415 54.2221V54.5121V54.5421V54.5821V54.6221V54.6521V54.6721C39.8415 54.6721 39.8415 54.6821 39.8415 54.6921V54.7121C39.8415 54.7121 39.8415 54.7221 39.8415 54.7321V54.7521V54.7621C39.8415 54.7621 39.8415 54.7621 39.8415 54.7721C39.8415 54.7721 39.8415 54.7721 39.8415 54.7821C39.8415 54.7821 39.8415 54.7821 39.8415 54.7921V54.8121C39.8415 54.8121 39.8415 54.8121 39.8415 54.8221C39.8415 54.8221 39.8415 54.8221 39.8415 54.8321C39.8415 54.8321 39.8415 54.8321 39.8415 54.8421C39.8415 54.8421 39.8415 54.8421 39.8415 54.8521C39.8415 54.8521 39.8415 54.8621 39.8415 54.8721C39.8415 54.8721 39.8415 54.8721 39.8315 54.8721C39.7615 54.9021 39.6915 54.9221 39.6115 54.9221H38.2815V55.3221L37.4314 54.4721L38.2815 53.6221H38.1715L37.9914 53.7221Z" fill="#53BD92"/>
<g filter="url(#filter2_d_0_248)">
<path d="M153.746 23.4709C159.306 23.4709 163.806 27.971 163.806 33.5313C163.806 39.0915 159.306 43.5916 153.746 43.5916C148.186 43.5916 143.685 39.0915 143.685 33.5313C143.685 27.971 148.186 23.4709 153.746 23.4709Z" fill="#F9FAFB"/>
</g>
<path d="M156.786 31.8712L153.686 28.2411L150.586 31.8712C149.146 33.5413 149.296 36.0614 150.926 37.5514C151.706 38.2715 152.696 38.6315 153.696 38.6315C154.696 38.6315 155.676 38.2715 156.466 37.5514C158.096 36.0614 158.246 33.5513 156.806 31.8712H156.786ZM156.476 36.0914C156.296 36.5014 156.006 36.8714 155.646 37.1514C155.186 37.5014 154.636 37.6814 154.056 37.6814C153.846 37.6814 153.676 37.5114 153.676 37.3014C153.676 37.0914 153.846 36.9214 154.056 36.9214C154.466 36.9214 154.866 36.7914 155.196 36.5414C155.456 36.3414 155.666 36.0814 155.796 35.7814C155.896 35.5413 155.946 35.2913 155.946 35.0313C155.946 34.8213 156.116 34.6513 156.326 34.6513C156.536 34.6513 156.706 34.8213 156.706 35.0313C156.706 35.4013 156.636 35.7514 156.486 36.0814L156.476 36.0914Z" fill="#3CBDED"/>
<g filter="url(#filter3_d_0_248)">
<path d="M209.908 10.1104C215.468 10.1104 219.968 14.6105 219.968 20.1708C219.968 25.731 215.468 30.2311 209.908 30.2311C204.348 30.2311 199.848 25.731 199.848 20.1708C199.848 14.6105 204.348 10.1104 209.908 10.1104Z" fill="#F9FAFB"/>
</g>
<path d="M207.418 25.4509L208.618 21.0508H206.168C205.858 21.0508 205.658 20.7108 205.818 20.4507L208.878 15.1005C208.948 14.9805 209.078 14.9005 209.228 14.9005H213.708L211.128 18.8607H214.008C214.238 18.8607 214.348 19.1407 214.178 19.2907L207.418 25.4609V25.4509Z" fill="#C2D72E"/>
<g filter="url(#filter4_d_0_248)">
<path d="M106.354 15.3906C111.914 15.3906 116.414 19.8908 116.414 25.451C116.414 31.0112 111.914 35.5114 106.354 35.5114C100.794 35.5114 96.2937 31.0112 96.2937 25.451C96.2937 19.8908 100.794 15.3906 106.354 15.3906Z" fill="#F9FAFB"/>
</g>
<path d="M108.804 21.3009C108.804 20.6708 108.294 20.1708 107.674 20.1708H102.394C102.084 20.1708 101.794 20.3008 101.594 20.5008C101.394 20.7008 101.264 20.9908 101.264 21.3009C101.184 22.1309 101.134 22.9609 101.104 23.801C101.444 23.5409 101.874 23.3809 102.344 23.3809H107.734C108.204 23.3809 108.624 23.5409 108.974 23.801C108.944 22.9709 108.894 22.1309 108.814 21.3009H108.804ZM105.784 22.0509H104.274C104.064 22.0509 103.894 21.8809 103.894 21.6709C103.894 21.4609 104.064 21.2909 104.274 21.2909H105.784C105.994 21.2909 106.164 21.4609 106.164 21.6709C106.164 21.8809 105.994 22.0509 105.784 22.0509Z" fill="#53BD92"/>
<path d="M106.364 30.7312H102.404C101.774 30.7312 101.274 30.2212 101.274 29.6011C101.144 28.2211 101.084 26.831 101.084 25.451V25.391C101.084 24.7009 101.654 24.1309 102.354 24.1309H107.454C105.944 24.6209 104.854 26.051 104.854 27.7111C104.854 28.9411 105.454 30.0412 106.364 30.7312Z" fill="#04946C"/>
<path d="M108.624 24.6909C106.954 24.6909 105.604 26.041 105.604 27.7111C105.604 29.3811 106.954 30.7312 108.624 30.7312C110.294 30.7312 111.644 29.3811 111.644 27.7111C111.644 26.041 110.294 24.6909 108.624 24.6909ZM110.734 27.9311C110.674 27.9911 110.594 28.0211 110.514 28.0211C110.434 28.0211 110.354 27.9911 110.294 27.9311L110.194 27.8311C110.134 28.8111 109.314 29.5911 108.314 29.5911C107.314 29.5911 106.424 28.7411 106.424 27.7011C106.424 26.661 107.274 25.811 108.314 25.811C108.484 25.811 108.624 25.951 108.624 26.121C108.624 26.291 108.484 26.441 108.314 26.441C107.624 26.441 107.054 27.001 107.054 27.7011C107.054 28.4011 107.624 28.9611 108.314 28.9611C108.964 28.9611 109.494 28.4711 109.564 27.8411L109.484 27.9211C109.364 28.0411 109.164 28.0411 109.034 27.9211C108.914 27.8011 108.914 27.6011 109.034 27.4711L109.664 26.841C109.784 26.721 109.984 26.721 110.114 26.841L110.744 27.4711C110.864 27.5911 110.864 27.7911 110.744 27.9211L110.734 27.9311Z" fill="#53BD92"/>
<g filter="url(#filter5_d_0_248)">
<path d="M232.879 50.6719C238.439 50.6719 242.939 55.1721 242.939 60.7323C242.939 66.2925 238.439 70.7927 232.879 70.7927C227.319 70.7927 222.819 66.2925 222.819 60.7323C222.819 55.1721 227.319 50.6719 232.879 50.6719Z" fill="#F4F5F5"/>
</g>
<path d="M236.469 56.5822C236.469 55.9522 235.989 55.4521 235.389 55.4521H230.359C230.059 55.4521 229.789 55.5821 229.599 55.7821C229.409 55.9821 229.279 56.2722 229.279 56.5822C229.209 57.4122 229.159 58.2422 229.129 59.0823C229.459 58.8223 229.859 58.6623 230.309 58.6623H235.439C235.889 58.6623 236.289 58.8223 236.619 59.0823C236.589 58.2522 236.539 57.4122 236.469 56.5822ZM233.599 57.3322H232.159C231.959 57.3322 231.799 57.1622 231.799 56.9522C231.799 56.7422 231.959 56.5722 232.159 56.5722H233.599C233.799 56.5722 233.959 56.7422 233.959 56.9522C233.959 57.1622 233.799 57.3322 233.599 57.3322Z" fill="#FFC660"/>
<path d="M232.239 61.8823C232.239 62.0323 232.189 62.1523 232.099 62.2323C232.009 62.3123 231.869 62.3523 231.679 62.3523H231.189V61.4023H231.679C231.869 61.4023 232.009 61.4423 232.099 61.5223C232.189 61.6023 232.239 61.7223 232.239 61.8723V61.8823Z" fill="#F6911E"/>
<path d="M235.439 59.4022H230.309C229.649 59.4022 229.109 59.9623 229.099 60.6623V60.7223C229.099 62.1023 229.159 63.4924 229.279 64.8724C229.279 65.5025 229.759 66.0025 230.359 66.0025H235.389C235.689 66.0025 235.959 65.8725 236.149 65.6725C236.339 65.4725 236.469 65.1825 236.469 64.8724C236.589 63.4924 236.649 62.1023 236.649 60.7223V60.6623C236.649 59.9723 236.099 59.4022 235.439 59.4022ZM232.249 63.4124L231.779 62.7124C231.779 62.7124 231.729 62.7124 231.689 62.7124H231.179V63.4024H230.759V61.0223H231.689C231.889 61.0223 232.059 61.0523 232.209 61.1223C232.349 61.1823 232.469 61.2823 232.539 61.4123C232.619 61.5423 232.649 61.6923 232.649 61.8723C232.649 62.0523 232.609 62.1923 232.539 62.3223C232.459 62.4423 232.349 62.5424 232.209 62.6124C232.199 62.6124 232.179 62.6124 232.169 62.6224L232.689 63.4024H232.239L232.249 63.4124ZM234.919 62.3223C234.839 62.4523 234.729 62.5524 234.589 62.6124C234.449 62.6824 234.269 62.7124 234.069 62.7124H233.559V63.4024H233.139V61.0223H234.069C234.269 61.0223 234.439 61.0523 234.589 61.1223C234.729 61.1823 234.849 61.2823 234.919 61.4123C234.999 61.5423 235.039 61.6923 235.039 61.8723C235.039 62.0523 234.999 62.1923 234.919 62.3223ZM234.049 61.4023H233.549V62.3523H234.049C234.229 62.3523 234.369 62.3123 234.469 62.2323C234.569 62.1523 234.609 62.0323 234.609 61.8823C234.609 61.7323 234.559 61.6123 234.469 61.5323C234.379 61.4523 234.239 61.4123 234.049 61.4123V61.4023Z" fill="#F6911E"/>
<path d="M182.727 61.2624C182.915 61.2624 183.067 61.1101 183.067 60.9223C183.067 60.7346 182.915 60.5823 182.727 60.5823C182.539 60.5823 182.387 60.7346 182.387 60.9223C182.387 61.1101 182.539 61.2624 182.727 61.2624Z" fill="white"/>
</g>
<defs>
<filter id="filter0_d_0_248" x="45.0117" y="2.49009" width="28.1211" height="28.1211" filterUnits="userSpaceOnUse" color-interpolation-filters="sRGB">
<feFlood flood-opacity="0" result="BackgroundImageFix"/>
<feColorMatrix in="SourceAlpha" type="matrix" values="0 0 0 0 0 0 0 0 0 0 0 0 0 0 0 0 0 0 127 0" result="hardAlpha"/>
<feOffset dx="1" dy="1"/>
<feGaussianBlur stdDeviation="2"/>
<feColorMatrix type="matrix" values="0 0 0 0 0.137255 0 0 0 0 0.121569 0 0 0 0 0.12549 0 0 0 0.1 0"/>
<feBlend mode="normal" in2="BackgroundImageFix" result="effect1_dropShadow_0_248"/>
<feBlend mode="normal" in="SourceGraphic" in2="effect1_dropShadow_0_248" result="shape"/>
</filter>
<filter id="filter1_d_0_248" x="25.411" y="39.7115" width="28.1211" height="28.1211" filterUnits="userSpaceOnUse" color-interpolation-filters="sRGB">
<feFlood flood-opacity="0" result="BackgroundImageFix"/>
<feColorMatrix in="SourceAlpha" type="matrix" values="0 0 0 0 0 0 0 0 0 0 0 0 0 0 0 0 0 0 127 0" result="hardAlpha"/>
<feOffset dx="1" dy="1"/>
<feGaussianBlur stdDeviation="2"/>
<feColorMatrix type="matrix" values="0 0 0 0 0.137255 0 0 0 0 0.121569 0 0 0 0 0.12549 0 0 0 0.1 0"/>
<feBlend mode="normal" in2="BackgroundImageFix" result="effect1_dropShadow_0_248"/>
<feBlend mode="normal" in="SourceGraphic" in2="effect1_dropShadow_0_248" result="shape"/>
</filter>
<filter id="filter2_d_0_248" x="140.685" y="20.4708" width="28.1211" height="28.1211" filterUnits="userSpaceOnUse" color-interpolation-filters="sRGB">
<feFlood flood-opacity="0" result="BackgroundImageFix"/>
<feColorMatrix in="SourceAlpha" type="matrix" values="0 0 0 0 0 0 0 0 0 0 0 0 0 0 0 0 0 0 127 0" result="hardAlpha"/>
<feOffset dx="1" dy="1"/>
<feGaussianBlur stdDeviation="2"/>
<feColorMatrix type="matrix" values="0 0 0 0 0.137255 0 0 0 0 0.121569 0 0 0 0 0.12549 0 0 0 0.1 0"/>
<feBlend mode="normal" in2="BackgroundImageFix" result="effect1_dropShadow_0_248"/>
<feBlend mode="normal" in="SourceGraphic" in2="effect1_dropShadow_0_248" result="shape"/>
</filter>
<filter id="filter3_d_0_248" x="196.848" y="7.11026" width="28.1211" height="28.1211" filterUnits="userSpaceOnUse" color-interpolation-filters="sRGB">
<feFlood flood-opacity="0" result="BackgroundImageFix"/>
<feColorMatrix in="SourceAlpha" type="matrix" values="0 0 0 0 0 0 0 0 0 0 0 0 0 0 0 0 0 0 127 0" result="hardAlpha"/>
<feOffset dx="1" dy="1"/>
<feGaussianBlur stdDeviation="2"/>
<feColorMatrix type="matrix" values="0 0 0 0 0.137255 0 0 0 0 0.121569 0 0 0 0 0.12549 0 0 0 0.1 0"/>
<feBlend mode="normal" in2="BackgroundImageFix" result="effect1_dropShadow_0_248"/>
<feBlend mode="normal" in="SourceGraphic" in2="effect1_dropShadow_0_248" result="shape"/>
</filter>
<filter id="filter4_d_0_248" x="93.2936" y="12.3905" width="28.1211" height="28.1211" filterUnits="userSpaceOnUse" color-interpolation-filters="sRGB">
<feFlood flood-opacity="0" result="BackgroundImageFix"/>
<feColorMatrix in="SourceAlpha" type="matrix" values="0 0 0 0 0 0 0 0 0 0 0 0 0 0 0 0 0 0 127 0" result="hardAlpha"/>
<feOffset dx="1" dy="1"/>
<feGaussianBlur stdDeviation="2"/>
<feColorMatrix type="matrix" values="0 0 0 0 0.137255 0 0 0 0 0.121569 0 0 0 0 0.12549 0 0 0 0.1 0"/>
<feBlend mode="normal" in2="BackgroundImageFix" result="effect1_dropShadow_0_248"/>
<feBlend mode="normal" in="SourceGraphic" in2="effect1_dropShadow_0_248" result="shape"/>
</filter>
<filter id="filter5_d_0_248" x="219.818" y="47.6718" width="28.1211" height="28.1211" filterUnits="userSpaceOnUse" color-interpolation-filters="sRGB">
<feFlood flood-opacity="0" result="BackgroundImageFix"/>
<feColorMatrix in="SourceAlpha" type="matrix" values="0 0 0 0 0 0 0 0 0 0 0 0 0 0 0 0 0 0 127 0" result="hardAlpha"/>
<feOffset dx="1" dy="1"/>
<feGaussianBlur stdDeviation="2"/>
<feColorMatrix type="matrix" values="0 0 0 0 0.137255 0 0 0 0 0.121569 0 0 0 0 0.12549 0 0 0 0.1 0"/>
<feBlend mode="normal" in2="BackgroundImageFix" result="effect1_dropShadow_0_248"/>
<feBlend mode="normal" in="SourceGraphic" in2="effect1_dropShadow_0_248" result="shape"/>
</filter>
<clipPath id="clip0_0_248">
<rect width="261.99" height="178.84" fill="white"/>
</clipPath>
</defs>
</svg>
