<svg width="200" height="200" viewBox="0 0 200 200" fill="none" xmlns="http://www.w3.org/2000/svg">
<path d="M102.647 171.827C140.358 171.827 170.928 141.121 170.928 103.245C170.928 65.3683 140.358 34.6633 102.647 34.6633C64.9364 34.6633 34.3658 65.3683 34.3658 103.245C34.3658 141.121 64.9364 171.827 102.647 171.827Z" fill="#F4EADC"/>
<path d="M135.358 174.882L92.0956 184.031C92.0956 184.031 89.568 175.168 86.5901 161.422C83.6029 147.658 73.7592 140.245 66.6268 130.857C59.5037 121.468 63.7132 106.485 63.7132 106.485L66.9301 93.2009L68.3364 99.2292L75.1287 128.272C76.1673 132.74 80.6342 135.509 85.0827 134.466L126.351 124.745C130.818 123.702 133.575 119.216 132.537 114.729L131.02 108.239C137.279 113.455 135.322 123.001 135.285 123.896C135.23 125.032 133.346 130.072 132.757 148.489C132.169 166.888 135.358 174.882 135.358 174.882Z" fill="white"/>
<path d="M116.599 56.3945C116.599 56.3945 126.048 52.6465 129.715 54.1328C133.382 55.6191 135.165 59.0902 132.537 63.5675C129.917 68.0448 119.118 72.8083 119.118 72.8083L116.599 56.3945Z" fill="#EDDDC0"/>
<path d="M112.298 33.7032L116.599 52.2495C116.599 52.2495 125.781 32.6416 123.171 27.4165C120.561 22.1914 116.985 23.7239 115.101 26.3918C113.217 29.0597 111.884 31.1276 111.884 31.1276L112.307 33.7032H112.298Z" fill="#EDDDC0"/>
<path d="M121.811 72.7806L121.029 71.1189C121.176 71.0543 135.285 64.2506 132.371 57.6777C131.792 56.3668 130.864 55.5083 129.55 55.0375C124.982 53.4127 117.619 57.133 117.546 57.17L116.719 55.536C117.05 55.3698 124.871 51.4187 130.165 53.3019C131.958 53.9389 133.272 55.1575 134.053 56.9299C137.693 65.1368 122.472 72.476 121.829 72.7806H121.811Z" fill="#DBBC7A"/>
<path d="M116.664 54.7052L115 53.9297C119.246 44.7258 124.715 28.9305 121.324 25.7272C120.579 25.0256 119.798 24.7486 118.943 24.9148C115.855 25.4779 112.454 31.1092 111.406 33.2324L109.77 32.4201C109.945 32.0785 113.998 23.9455 118.621 23.1146C120.064 22.8561 121.397 23.29 122.583 24.3978C128.051 29.549 117.849 52.148 116.673 54.7144L116.664 54.7052Z" fill="#DBBC7A"/>
<path d="M126.241 124.736L84.9816 134.466C80.5331 135.509 76.0662 132.731 75.0276 128.272L68.2353 99.2292L66.829 93.2009L53.0698 34.3125C52.1323 30.2876 54.6232 26.2626 58.6121 25.3025L101.507 15.1939C105.515 14.2615 109.522 16.754 110.469 20.7698L122.151 70.722L122.564 72.5221L124.89 82.4461C124.338 83.5447 123.851 84.7263 123.502 85.9726L108.566 22.0622C107.831 18.9142 104.697 16.9571 101.572 17.6956L94.8346 19.2835L94.6048 18.2957L66.3695 24.9517L66.5993 25.9395L59.8713 27.5273C56.7371 28.2658 54.7978 31.4138 55.5331 34.5618L76.9761 126.296C77.7482 129.61 81.0478 131.66 84.3382 130.884L125.441 121.2C128.741 120.416 130.781 117.102 130.009 113.797L126.305 97.946C126.305 97.946 126.369 98.0198 126.406 98.0568C126.452 98.1029 127.344 98.7953 128.741 98.9245L130.689 107.261L130.91 108.23L132.426 114.72C133.474 119.206 130.708 123.693 126.241 124.736Z" fill="#DBBC7A"/>
<path d="M125.441 121.2L84.3382 130.884C81.0478 131.66 77.7482 129.61 76.9761 126.296L55.5331 34.5618C54.7978 31.4138 56.7371 28.2658 59.8713 27.5273L66.5993 25.9395L66.3695 24.9517L94.6048 18.2957L94.8346 19.2835L101.572 17.6957C104.697 16.9571 107.831 18.9142 108.566 22.0622L123.502 85.9726C123.851 84.7263 124.338 83.5447 124.89 82.4461L125.551 85.2895L128.281 96.9767L128.741 98.9246C127.344 98.7953 126.452 98.1029 126.406 98.0568C126.369 98.0199 126.333 97.9829 126.305 97.946L130.009 113.797C130.781 117.102 128.741 120.416 125.441 121.2Z" fill="#015596"/>
<path d="M125.441 121.2L84.3382 130.884C81.0478 131.66 77.7482 129.61 76.9761 126.296L55.5331 34.5618C54.7978 31.4138 56.7371 28.2658 59.8713 27.5273L66.5993 25.9395L94.8346 19.2835L101.572 17.6957C104.697 16.9571 107.831 18.9142 108.566 22.0622L123.502 85.9726L126.305 97.946L130.009 113.797C130.781 117.102 128.741 120.416 125.441 121.2Z" fill="white"/>
<path d="M93.272 24.0932L70.1287 29.549C68.7224 29.8814 67.3162 29.0044 66.9853 27.5919L66.5993 25.9395L66.3695 24.9517L94.6048 18.2957L94.8345 19.2835L95.2206 20.936C95.5515 22.3484 94.6783 23.7608 93.272 24.0932Z" fill="#DBBC7A"/>
<path d="M85.8487 22.4897L72.8742 25.5486C72.716 25.5859 72.6179 25.7449 72.655 25.9037L72.7916 26.4879C72.8287 26.6468 72.987 26.7453 73.1451 26.708L86.1197 23.6491C86.2778 23.6118 86.3759 23.4528 86.3388 23.294L86.2023 22.7098C86.1651 22.551 86.0069 22.4524 85.8487 22.4897Z" fill="white"/>
<path d="M88.1985 23.29C88.6046 23.29 88.9338 22.9593 88.9338 22.5515C88.9338 22.1436 88.6046 21.8129 88.1985 21.8129C87.7924 21.8129 87.4632 22.1436 87.4632 22.5515C87.4632 22.9593 87.7924 23.29 88.1985 23.29Z" fill="white"/>
<path d="M107.335 80.3228L108.309 84.5047L98.8143 86.7388C97.7482 86.988 96.6544 86.4803 96.1489 85.511L92.693 78.8735C92.1875 77.9042 91.0937 77.3964 90.0276 77.6457L80.6342 79.8612L79.6599 75.6793C78.9982 72.836 80.7537 69.9927 83.5754 69.328L87.8401 68.3217C88.9062 68.0725 90 68.5802 90.5055 69.5495L93.9614 76.1871C94.4669 77.1564 95.5607 77.6641 96.6268 77.4149L101.002 76.3809C103.833 75.7163 106.664 77.4795 107.325 80.3136L107.335 80.3228ZM95.4871 66.1708C94.4209 66.42 93.3272 65.9123 92.8217 64.943L89.3658 58.3055C88.8603 57.3361 87.7665 56.8284 86.7004 57.0776L77.307 59.2932L78.2812 63.4751C78.943 66.3185 81.7739 68.0817 84.6048 67.4078L88.8695 66.4016C89.9357 66.1523 91.0294 66.6601 91.5349 67.6294L94.9908 74.2669C95.4963 75.2362 96.5901 75.744 97.6562 75.4947L102.031 74.4608C104.862 73.7961 106.618 70.9527 105.947 68.1094L104.972 63.9275L95.4779 66.1615L95.4871 66.1708Z" fill="#005499"/>
<path d="M125.138 83.6462C125.138 83.6462 123.125 87.6158 123.796 91.3546C124.467 95.0934 126.498 97.3459 127.362 97.6413C128.226 97.9368 132.105 98.3799 134.798 93.6256C137.491 88.8713 140.919 82.4461 140.919 82.4461C140.919 82.4461 144.825 74.1008 137.27 71.3959C129.715 68.6818 122.316 71.4144 122.316 71.4144L125.147 83.6555L125.138 83.6462Z" fill="#EDDDC0"/>
<path d="M90.4688 76.4732C86.9577 77.6456 73.5754 87.5604 72.114 88.9174C70.5423 90.3853 68.1893 99.7923 68.1893 99.7923L66.6912 93.6071L67.8309 89.5175C67.8309 89.5175 69.8438 86.628 77.7849 81.5968C85.7077 76.5748 89.9908 75.864 89.9908 75.864C89.9908 75.864 90.1562 76.0855 90.4688 76.4732Z" fill="white"/>
<path d="M132.757 145.203C132.757 145.203 126.066 154.942 110.542 154.24C99.9265 153.76 94.329 177.689 94.329 177.689C94.329 177.689 88.1618 147.547 77.3989 139.202C66.6177 130.857 64.5313 117.425 66.489 106.051L68.3364 99.2292C68.3364 99.2292 70.5331 90.3853 72.114 88.9175C73.5754 87.5604 86.9485 77.6549 90.4596 76.4733C90.7169 76.3625 90.9191 76.3255 91.0662 76.344C92.5 76.5102 94.0349 78.495 94.0533 80.7383C94.0717 81.6614 93.8327 82.6123 93.2261 83.4985C91.1765 86.5449 84.0809 95.555 84.0809 95.555C84.0809 95.555 82.9412 101.768 83.511 106.088L84.2279 108.488C84.2279 108.488 88.5754 109.892 90.3217 112.624C91.8566 115.052 99.1544 119.114 101.553 130.58L126.351 124.736C130.818 123.693 133.575 119.206 132.537 114.72L131.002 108.156C140.055 118.957 132.04 134.679 132.757 145.203Z" fill="#EDDDC0"/>
<path d="M91.3235 185C91.2776 184.705 86.7739 155.108 77.0221 145.046C66.5625 134.254 58.8603 124.653 62.5184 107.685C64.568 98.1583 65.9191 92.8317 66.682 90.0437C67.2518 87.9758 68.5754 86.2034 70.4228 85.0679L85.1103 76.0025C87.3162 74.6454 90.0643 74.59 92.114 75.8732C93.6673 76.8425 94.5956 78.0796 94.8805 79.5566C95.2298 81.3568 94.5864 83.4062 92.9596 85.6587C90.5882 88.9452 88.3915 91.6223 86.4246 93.6441C84.9908 95.1119 84.2187 97.0597 84.2647 99.1276L84.4393 107.353C84.4393 107.491 84.5129 107.611 84.6323 107.676C87.2794 109.042 100.597 116.695 102.638 133.34L100.818 133.562C98.8879 117.831 86.296 110.593 83.796 109.31C83.0882 108.941 82.6287 108.212 82.6103 107.399L82.4357 99.1738C82.3805 96.6074 83.3364 94.1887 85.1195 92.3609C87.0221 90.413 89.1636 87.7912 91.4798 84.5878C92.7941 82.76 93.3364 81.1906 93.0882 79.9167C92.9044 78.9566 92.2518 78.1257 91.1489 77.4426C89.6783 76.5287 87.6838 76.584 86.0662 77.5811L71.3787 86.6465C69.9357 87.5327 68.8971 88.9175 68.4467 90.5422C67.6838 93.3117 66.3511 98.5922 64.3015 108.082C60.8272 124.182 67.9228 133.026 78.3272 143.772C88.4835 154.259 92.9412 183.495 93.125 184.732L91.3143 185.009L91.3235 185Z" fill="#DBBC7A"/>
<path d="M135.303 176.802C135 176.101 127.987 159.308 133.566 125.715C133.594 125.548 136.149 112.523 129.825 108.968L130.717 107.362C138.208 111.572 135.487 125.456 135.368 126.047C129.899 159.013 136.921 175.907 136.985 176.073L135.303 176.802Z" fill="#DBBC7A"/>
<path d="M140.515 72.3375C135.386 67.3894 124.577 70.0389 122.151 70.722L122.564 72.5222C124.577 71.959 134.825 69.3926 139.246 73.6669C142.987 77.2764 140.956 81.2645 137.059 88.0128C136.305 89.3052 135.533 90.653 134.77 92.0562C133.226 94.9457 131.517 96.672 129.844 97.0321C129.605 97.0875 129.375 97.1059 129.164 97.1059C128.814 97.1059 128.52 97.0505 128.281 96.9767C127.886 96.8567 127.647 96.6997 127.638 96.6997C124.118 93.0348 124.256 88.8529 125.551 85.2895C127.187 80.7844 130.671 77.258 130.928 76.9995C131.287 76.6487 131.287 76.0671 130.937 75.7071C130.579 75.3378 130 75.3378 129.642 75.6978C129.586 75.7532 126.838 78.5227 124.89 82.4461C124.338 83.5447 123.851 84.7263 123.502 85.9726C122.445 89.7668 122.656 94.0779 126.305 97.946C126.333 97.9829 126.369 98.0198 126.406 98.0568C126.452 98.1029 127.344 98.7953 128.741 98.9245C128.879 98.9245 129.026 98.943 129.173 98.943C129.485 98.943 129.816 98.9153 130.165 98.8415C132.445 98.3799 134.531 96.3859 136.388 92.9332C137.132 91.5393 137.904 90.2099 138.64 88.9359C142.307 82.6031 145.478 77.1287 140.515 72.3375Z" fill="#DBBC7A"/>
<path d="M39.0349 101.999C49.5476 101.999 58.0699 93.4389 58.0699 82.88C58.0699 72.3211 49.5476 63.7614 39.0349 63.7614C28.5222 63.7614 20 72.3211 20 82.88C20 93.4389 28.5222 101.999 39.0349 101.999Z" fill="#005499"/>
<path d="M160.965 157.739C171.478 157.739 180 149.179 180 138.62C180 128.061 171.478 119.502 160.965 119.502C150.452 119.502 141.93 128.061 141.93 138.62C141.93 149.179 150.452 157.739 160.965 157.739Z" fill="#DBBC7A"/>
<path d="M43.0147 93.7733L39.0349 96.5058L35.0551 93.7733C31.1121 91.0684 28.75 86.5726 28.75 81.7814V73.9069L39.0349 70.8789L49.3199 73.9069V81.7814C49.3199 86.5819 46.9577 91.0684 43.0147 93.7733Z" fill="#DBBC7A"/>
<path d="M37.693 86.3419C37.1323 86.3419 36.6084 86.1203 36.2132 85.7233L34.0441 83.5447C33.6857 83.1847 33.6857 82.6031 34.0441 82.243C34.4026 81.883 34.9816 81.883 35.3401 82.243L37.5092 84.4217C37.6287 84.5417 37.739 84.5417 37.8584 84.4217L43.2721 78.975C43.6305 78.615 44.2096 78.615 44.568 78.975C44.9265 79.3351 44.9265 79.9167 44.568 80.2767L39.1544 85.7233C38.7592 86.1203 38.2353 86.3419 37.6746 86.3419H37.693Z" fill="white"/>
<path d="M171.066 137.67V146.209C171.066 148.129 169.715 149.689 168.033 149.689H164.642V144.944C164.642 144.076 164.228 143.282 163.566 142.71C162.904 142.138 161.985 141.787 160.965 141.787C158.934 141.787 157.289 143.199 157.289 144.953V149.698H153.897C152.224 149.698 150.864 148.138 150.864 146.218V137.679C151.608 138.122 152.472 138.371 153.382 138.371H153.851C155.138 138.371 156.369 137.873 157.289 136.986C158.189 137.845 159.393 138.371 160.726 138.371H161.195C162.537 138.371 163.741 137.845 164.632 136.986C165.542 137.873 166.783 138.371 168.07 138.371H168.539C169.449 138.371 170.322 138.122 171.057 137.679L171.066 137.67Z" fill="white"/>
<path d="M156.305 127.542L155.892 130.709H150.515L151.774 127.542H156.305Z" fill="white"/>
<path d="M164.449 130.709H157.472L157.895 127.542H164.026L164.449 130.709Z" fill="white"/>
<path d="M171.415 130.709H166.029L165.616 127.542H170.156L171.415 130.709Z" fill="white"/>
<path d="M156.314 135.712C155.699 136.368 154.816 136.774 153.851 136.774H153.382C151.48 136.774 149.945 135.223 149.945 133.321V132.158H155.717V133.321C155.717 134.189 155.938 135.011 156.324 135.722L156.314 135.712Z" fill="white"/>
<path d="M171.985 132.158V133.321C171.985 135.223 170.45 136.774 168.548 136.774H168.079C167.114 136.774 166.232 136.368 165.616 135.712C166.002 135.002 166.222 134.189 166.222 133.312V132.149H171.994L171.985 132.158Z" fill="white"/>
<path d="M157.289 132.158H164.642V133.081C164.642 135.122 162.996 136.774 160.965 136.774C158.934 136.774 157.289 135.122 157.289 133.081V132.158Z" fill="white"/>
<path d="M155.092 38.5775C157.94 38.5775 160.248 36.2588 160.248 33.3986C160.248 30.5384 157.94 28.2197 155.092 28.2197C152.244 28.2197 149.936 30.5384 149.936 33.3986C149.936 36.2588 152.244 38.5775 155.092 38.5775Z" fill="#015596"/>
<path d="M59.4322 165.598L53.2354 163.664L51.3101 169.888L57.5069 171.822L59.4322 165.598Z" fill="#DBBC7A"/>
</svg>
