<svg width="12" height="16" viewBox="0 0 12 16" fill="none" xmlns="http://www.w3.org/2000/svg">
<path d="M0.0678627 0.0742674C0.199763 -0.0149058 0.351838 0.00171967 0.499255 0.00171967C1.93774 0.00171967 3.37778 -0.00432602 4.81626 0.00625387C5.73956 0.0122995 6.64424 0.139258 7.51012 0.474792C9.51345 1.25166 10.564 2.70261 10.7068 4.78232C10.7735 5.76171 10.5749 6.70181 10.19 7.60866C9.85794 8.39006 9.3381 9.0188 8.61963 9.49187C8.4567 9.59918 8.29376 9.70952 8.13548 9.81532C8.16186 10.0859 8.33876 10.2642 8.46756 10.4652C9.49483 12.0598 10.5268 13.6513 11.5587 15.2443C11.6642 15.4075 11.7728 15.5693 11.8721 15.737C11.9513 15.8715 11.897 15.994 11.7542 15.994C10.9116 15.9985 10.0674 15.994 9.22482 16C9.05568 16 8.9455 15.9244 8.85861 15.7975C8.7624 15.6569 8.66929 15.5148 8.57463 15.3728C7.62961 13.9551 6.68924 12.5359 5.74111 11.1212C5.22438 10.3504 5.43386 10.4577 4.51677 10.4516C3.30174 10.4441 2.08516 10.4456 0.870127 10.4426C0.721157 10.4426 0.572187 10.4426 0.423218 10.438C0.0445875 10.4214 0.005792 10.3942 0.0119991 10.0058C0.0213096 9.35887 -0.0407609 8.70896 0.0507932 8.07568C0.317697 7.97291 0.569084 8.01069 0.814263 8.00918C2.12861 7.99558 3.4445 7.99407 4.75885 7.97593C5.12972 7.97139 5.50524 7.95175 5.86836 7.88978C6.76683 7.7341 7.38753 7.22325 7.74444 6.40859C8.32169 5.08762 7.78479 3.72584 7.0958 3.12883C6.75131 2.82957 6.36803 2.61042 5.91801 2.54996C4.90626 2.41544 3.88831 2.48195 2.8719 2.49555C2.71672 2.49706 2.67172 2.61495 2.67017 2.74493C2.66552 3.15604 2.66552 3.56563 2.66397 3.97673C2.66397 4.33947 2.66086 4.7007 2.65776 5.06344C2.65776 5.204 2.58017 5.27806 2.43586 5.29468C2.06809 5.337 0.403045 5.32038 0.0694159 5.26748C-0.0143793 4.68256 -0.0143793 0.663718 0.0694159 0.0803131V0.0742674H0.0678627Z" fill="#015596"/>
</svg>
