<svg width="24" height="24" viewBox="0 0 24 24" fill="none" xmlns="http://www.w3.org/2000/svg">
<path d="M15.75 18.375C15.75 18.4575 15.7425 18.54 15.735 18.615C15.255 18.705 14.76 18.75 14.25 18.75C12.06 18.75 10.065 17.895 8.58749 16.5H13.875C14.91 16.5 15.75 17.34 15.75 18.375Z" fill="#FF5555"/>
<path d="M6.495 16.4473C6.5775 16.4848 6.66 16.4998 6.75 16.4998H6.525L6.495 16.4473Z" fill="#FF5555"/>
<path d="M12.5625 8.65521C12.7575 8.82771 12.855 9.06021 12.855 9.36771C12.855 9.67521 12.7575 9.90021 12.5625 10.0727C12.3675 10.2377 12.075 10.3277 11.685 10.3277H10.6425V8.40771H11.685C12.075 8.40771 12.3675 8.49021 12.5625 8.65521Z" fill="#FF5555"/>
<path d="M14.25 2.25C9.69 2.25 6 5.94 6 10.5C6 10.815 6.015 11.1225 6.06 11.43C6.195 12.7425 6.645 13.95 7.335 15H13.875C15.675 15 17.145 16.4175 17.2425 18.1875C20.3175 16.995 22.5 14.0025 22.5 10.5C22.5 5.94 18.81 2.25 14.25 2.25ZM12.87 12.87L11.805 11.3325C11.805 11.3325 11.775 11.34 11.7525 11.34H10.6425V12.87H9.3675V7.3725H11.7525C12.2475 7.3725 12.6675 7.4475 13.0275 7.605C13.38 7.77 13.6575 7.995 13.8525 8.295C14.0475 8.595 14.145 8.955 14.145 9.3675C14.145 9.78 14.0475 10.125 13.8525 10.425C13.6575 10.7175 13.38 10.9425 13.0275 11.1C13.0275 11.1 13.0225 11.1025 13.0125 11.1075L14.2425 12.87H12.87ZM19.6275 10.425C19.4325 10.725 19.1625 10.9575 18.8025 11.115C18.45 11.2725 18.0225 11.355 17.5275 11.355H16.425V12.87H15.15V7.3725H17.5275C18.0225 7.3725 18.45 7.4475 18.8025 7.605C19.1625 7.77 19.4325 7.995 19.6275 8.295C19.8225 8.595 19.92 8.955 19.92 9.3675C19.92 9.78 19.8225 10.125 19.6275 10.425ZM17.46 8.4075H16.425V10.32H17.46C17.85 10.32 18.1425 10.23 18.3375 10.065C18.5325 9.9 18.63 9.6675 18.63 9.3675C18.63 9.0675 18.5325 8.8275 18.3375 8.655C18.1425 8.49 17.85 8.4075 17.46 8.4075Z" fill="#FF5555"/>
<path d="M15.75 18.3748V18.3898C15.75 18.4648 15.7425 18.5473 15.735 18.6148C15.705 18.8548 15.63 19.0948 15.5025 19.3048C15.42 19.4548 15.3225 19.5823 15.2025 19.7023C14.865 20.0398 14.3925 20.2498 13.875 20.2498H10.5C9.42 20.9698 8.16 21.3448 6.885 21.3448C6.4575 21.3448 6.0225 21.3073 5.595 21.2173L5.355 21.1723C4.785 21.0598 4.2375 20.8648 3.72 20.6098L1.5 19.4998V14.9998L4.71 12.4873C4.935 13.6273 6.21 16.3498 6.495 16.4473C6.5775 16.4848 6.66 16.4998 6.75 16.4998H13.875C14.6925 16.4998 15.39 17.0248 15.645 17.7523L15.69 17.9098C15.705 17.9698 15.72 18.0298 15.7275 18.0898C15.735 18.1498 15.7425 18.2098 15.7425 18.2698C15.75 18.3073 15.75 18.3373 15.75 18.3748Z" fill="#FFC22F"/>
</svg>
