<svg width="24" height="24" viewBox="0 0 24 24" fill="none" xmlns="http://www.w3.org/2000/svg">
<path d="M18.0525 8.7075L11.88 1.5L5.70751 8.7075C2.85001 12.0375 3.15001 17.0325 6.38251 19.995C7.93501 21.42 9.90751 22.1325 11.88 22.1325C13.8525 22.1325 15.825 21.42 17.3775 19.995C20.61 17.0325 20.91 12.0375 18.0525 8.7075ZM17.445 17.0925C17.085 17.9175 16.515 18.645 15.7875 19.1925C14.8725 19.8825 13.7775 20.25 12.63 20.25C12.2175 20.25 11.88 19.9125 11.88 19.5C11.88 19.0875 12.2175 18.75 12.63 18.75C13.455 18.75 14.235 18.4875 14.8875 18C15.405 17.6025 15.8175 17.085 16.0725 16.4925C16.275 16.02 16.38 15.5175 16.38 15C16.38 14.5875 16.7175 14.25 17.13 14.25C17.5425 14.25 17.88 14.5875 17.88 15C17.88 15.7275 17.7375 16.4325 17.445 17.0925Z" fill="#00C2FF"/>
</svg>
