<svg width="32" height="32" viewBox="0 0 32 32" fill="none" xmlns="http://www.w3.org/2000/svg">
<path d="M29 5V14C29 15.66 27.66 17 26 17V7H6V17C4.34 17 3 15.66 3 14V5C3 3.34 4.34 2 6 2H26C27.66 2 29 3.34 29 5Z" fill="#015596"/>
<path d="M8 9V27.05C8 28.13 8.87 29 9.95 29H22.05C23.13 29 24 28.13 24 27.05V9H8ZM20.35 19.99L16.64 22.64C16.27 22.9 15.78 22.9 15.4 22.64L11.67 19.97C11.19 19.63 11.08 18.97 11.42 18.49C11.63 18.19 11.96 18.04 12.29 18.04C12.5 18.04 12.73 18.1 12.91 18.24L14.93 19.68V14.86C14.93 14.28 15.41 13.8 16 13.8C16.59 13.8 17.07 14.28 17.07 14.86V19.72L19.11 18.26C19.59 17.91 20.26 18.03 20.6 18.51C20.94 18.99 20.83 19.65 20.35 19.99Z" fill="#015596"/>
</svg>
