<svg width="24" height="24" viewBox="0 0 24 24" fill="none" xmlns="http://www.w3.org/2000/svg">
<path d="M16.875 3.75C16.875 2.505 15.87 1.5 14.625 1.5H4.125C3.5025 1.5 2.94 1.755 2.535 2.16C2.13 2.565 1.875 3.1275 1.875 3.75C1.725 5.4 1.62 7.0575 1.56 8.715C2.2425 8.19 3.09 7.875 4.02 7.875H14.73C15.66 7.875 16.5075 8.19 17.19 8.715C17.13 7.0575 17.025 5.4 16.875 3.75ZM10.875 5.25H7.875C7.4625 5.25 7.125 4.9125 7.125 4.5C7.125 4.0875 7.4625 3.75 7.875 3.75H10.875C11.2875 3.75 11.625 4.0875 11.625 4.5C11.625 4.9125 11.2875 5.25 10.875 5.25Z" fill="#00DC9E"/>
<path d="M12.0075 22.5H4.125C2.88 22.5 1.875 21.495 1.875 20.25C1.62 17.505 1.5 14.7525 1.5 12V11.8725C1.515 10.4925 2.64 9.375 4.02 9.375H14.16C11.1675 10.3575 9 13.185 9 16.5C9 18.9525 10.185 21.135 12.0075 22.5Z" fill="#04956B"/>
<path d="M16.5 10.5C13.185 10.5 10.5 13.185 10.5 16.5C10.5 19.815 13.185 22.5 16.5 22.5C19.815 22.5 22.5 19.815 22.5 16.5C22.5 13.185 19.815 10.5 16.5 10.5ZM20.6925 16.9425C20.5725 17.0625 20.415 17.1225 20.25 17.1225C20.085 17.1225 19.935 17.0625 19.8075 16.9425L19.6125 16.7475C19.485 18.705 17.8575 20.25 15.8775 20.25C13.8975 20.25 12.1275 18.57 12.1275 16.5C12.1275 14.43 13.8075 12.75 15.8775 12.75C16.2225 12.75 16.5 13.035 16.5 13.3725C16.5 13.71 16.2225 14.0025 15.8775 14.0025C14.4975 14.0025 13.3725 15.12 13.3725 16.5C13.3725 17.88 14.4975 18.9975 15.8775 18.9975C17.16 18.9975 18.225 18.0225 18.36 16.7775L18.195 16.9425C17.9475 17.19 17.55 17.19 17.31 16.9425C17.0625 16.7025 17.0625 16.2975 17.31 16.0575L18.555 14.805C18.8025 14.565 19.2 14.565 19.4475 14.805L20.6925 16.0575C20.94 16.2975 20.94 16.7025 20.6925 16.9425Z" fill="#00DC9E"/>
</svg>
